<svg xmlns="http://www.w3.org/2000/svg" width="254.288" height="71.582" viewBox="0 0 254.288 71.582"><defs><style>.a,.b{fill:#fff;}.b{font-size:8px;font-family:ArialMT, Arial;}.c{letter-spacing:0.22em;}.d{letter-spacing:0.219em;}.e{letter-spacing:0.099em;}</style></defs><g transform="translate(-221 -1245)"><path class="a" d="M272.269,251.369a2.03,2.03,0,0,1-2.251,2.31c-2.413,0-2.413-1.554-2.413-2.954h1.414c0,1.155.081,1.717.888,1.717.788,0,.848-.511.848-1.073v-5.213h1.514Z" transform="translate(-41.883 998.845)"/><text class="b" transform="translate(221 1314.582)"><tspan class="c" x="0" y="0">CRA</tspan><tspan class="d" y="0">F</tspan><tspan class="c" y="0">TED </tspan><tspan class="d" y="0">F</tspan><tspan class="c" y="0">OR S</tspan><tspan class="e" y="0">T</tspan><tspan class="c" y="0">A</tspan><tspan class="d" y="0">I</tspan><tspan class="c" y="0">N</tspan><tspan class="d" y="0">L</tspan><tspan class="c" y="0">ESS</tspan><tspan class="d" y="0"> </tspan><tspan class="c" y="0">L</tspan><tspan class="d" y="0">I</tspan><tspan class="c" y="0">VIN</tspan><tspan y="0">G</tspan></text><g transform="translate(221 1258.542)"><path class="a" d="M281.857,295.468a12.579,12.579,0,1,1,12.421-12.577,12.5,12.5,0,0,1-12.421,12.577m12.583-31.936.007,3.676a19.782,19.782,0,0,0-13.866-4.464,20.206,20.206,0,0,0,.036,40.295,19.4,19.4,0,0,0,13.806-4.446l0,3.41h7.835V263.531Z" transform="translate(-261.93 -262.301)"/><path class="a" d="M330.6,276.422a46.5,46.5,0,0,0-.543,5.783l0,19.683-8.643,0V263.424h7.853l0,3.182a9.146,9.146,0,0,1,2.331-2.571,8.823,8.823,0,0,1,3.564-1.633,5.214,5.214,0,0,1,.562-.1,5.827,5.827,0,0,1,.581-.054l2.009-.018.013,9.066-1.731-.011a6.2,6.2,0,0,0-5.995,5.138" transform="translate(-271.919 -262.228)"/><path class="a" d="M378.51,272.877a16.6,16.6,0,0,0-1.356-1.682,15.9,15.9,0,0,0-1.532-1.462,15.4,15.4,0,0,0-9.862-3.6v-.008a15.441,15.441,0,0,0-11.164,4.825,16.851,16.851,0,0,0-4.651,11.7h0a16.849,16.849,0,0,0,4.651,11.7,15.436,15.436,0,0,0,11.164,4.824v-.008h0v.008a15.28,15.28,0,0,0,7.628-2.052q.548-.315,1.1-.7a14.8,14.8,0,0,0,4.081-4.088l-.023,5.524a17.675,17.675,0,0,1-2.014,1.6q-.645.445-1.353.853a18.872,18.872,0,0,1-9.417,2.528v.006h0v-.006A19.02,19.02,0,0,1,352,296.914a20.533,20.533,0,0,1-5.675-14.26h0A20.533,20.533,0,0,1,352,268.393a19.016,19.016,0,0,1,13.761-5.932v-.008a18.994,18.994,0,0,1,12.163,4.448q.312.26.613.532Z" transform="translate(-276.103 -262.263)"/></g><rect class="a" width="1.514" height="7.339" transform="translate(244.473 1245)"/><path class="a" d="M313.349,246.155h1.414v7.339h-1.514l-2.958-5.234h-.02v5.234h-1.414v-7.339h1.6l2.877,5.111h.02Z" transform="translate(-48.812 998.845)"/><g transform="translate(280.119 1245)"><path class="a" d="M334.466,252.226h1.474c1.231,0,1.645-1.257,1.645-2.463,0-2.167-1.019-2.341-1.666-2.341h-1.454Zm-1.484-6.071h3.2c2.443,0,2.947,2.105,2.947,3.5,0,1.574-.616,3.844-3.008,3.844h-3.139Z" transform="translate(-332.982 -246.155)"/></g><path class="a" d="M358.361,250.714h1.847l-.9-2.9h-.021Zm-.908,2.78h-1.6l2.585-7.339h1.746l2.554,7.339H361.1l-.464-1.512h-2.674Z" transform="translate(-56.705 998.845)"/><path class="a" d="M382.091,252.165h3.6v1.329h-5.118v-7.339h1.514Z" transform="translate(-60.857 998.845)"/><path class="a" d="M398.927,305.63h-2.177V289.315h2.177v7.907l7.809-7.907h3.008l-6.711,6.589,6.889,9.725H407.1l-5.632-8.18-2.536,2.454Z" transform="translate(-63.573 992.048)"/><rect class="a" width="2.177" height="16.314" transform="translate(352.97 1281.363)"/><path class="a" d="M431.352,289.315h13.083v1.955h-5.453v14.36H436.8V291.27h-5.452Z" transform="translate(-69.385 992.048)"/><g transform="translate(380.839 1280.931)"><path class="a" d="M466.061,294.142a4.2,4.2,0,0,0-4.511-3.385c-2.917,0-5.273,2.181-5.273,6.476,0,3.84,1.346,6.794,5.34,6.794,1.414,0,3.86-.682,4.6-4.476h2.109c-.9,6.158-5.834,6.43-7.046,6.43-3.658,0-7.249-2.408-7.249-8.68,0-5.022,2.827-8.5,7.518-8.5,4.152,0,6.306,2.613,6.62,5.34Z" transform="translate(-454.033 -288.802)"/></g><path class="a" d="M490.381,289.315h2.177V305.63h-2.177v-7.612h-8.415v7.612H479.79V289.315h2.176v6.749h8.415Z" transform="translate(-77.52 992.048)"/><path class="a" d="M516.791,305.63H504.9V289.315h11.736v1.954h-9.559v5h8.819v1.954h-8.819v5.453h9.716Z" transform="translate(-81.737 992.048)"/><path class="a" d="M538.692,289.315H540.8V305.63h-2.445l-8.191-13.179h-.046V305.63h-2.108V289.315h2.58l8.056,13.179h.045Z" transform="translate(-85.618 992.048)"/><g transform="translate(462.476 1280.932)"><path class="a" d="M562.47,294.006c-.112-2.523-2.177-3.318-3.995-3.318-1.369,0-3.68.387-3.68,2.864,0,1.386.965,1.84,1.907,2.068l4.6,1.068c2.087.5,3.658,1.773,3.658,4.362,0,3.863-3.545,4.931-6.305,4.931-2.985,0-4.151-.909-4.869-1.568a5.053,5.053,0,0,1-1.638-4.136h2.042c0,2.954,2.379,3.817,4.443,3.817,1.57,0,4.219-.409,4.219-2.749,0-1.7-.785-2.25-3.433-2.886l-3.3-.773a3.906,3.906,0,0,1-3.434-3.84c0-2.544,1.638-5.044,5.542-5.044,5.633,0,6.194,3.408,6.284,5.2Z" transform="translate(-552.148 -288.803)"/></g></g></svg>