<svg xmlns="http://www.w3.org/2000/svg" width="290.121" height="68.16" viewBox="0 0 290.121 68.16"><defs><style>.a,.b{fill:#fff;}.a{fill-rule:evenodd;}.c{fill:none;stroke:#fff;stroke-linecap:round;stroke-width:2px;}</style></defs><g transform="translate(9198.003 8142.372)"><g transform="translate(-9102 -8136.602)"><path class="a" d="M73.266,716.878l.069,4.207,3.557.038-.3-24.832a15.782,15.782,0,0,0-3.6-.05l.041,4.311c-.963-.649-2.08-3.022-6.677-4.285a17.666,17.666,0,0,0-10.18.387c-12.829,4.611-11.834,20.246.051,24.245,5.249,1.767,12.1,1,15.573-2.567a11.328,11.328,0,0,1,1.47-1.455m131.362-22.453c-8.7,1.224-13.751,7.869-12.751,14.617.946,6.434,7.636,12.265,16.567,11.307,7.362-.795,13.863-7.248,12.682-14.524-1.136-7.021-8.546-12.517-16.5-11.4m-58.8,6.36-.338-.262c-1.338-1.423-2.009-2.795-4.956-3.991-7.835-3.183-15.488,3.216-15.309,11.562.227,11.1,12.95,16.145,19.775,7.953.237-.287.759-1.134,1.045-1.268.017,1.184-.119,5.1.169,5.886l1.781.051-.47-33.761-1.848-.005Zm-85.66-2.061c-6.1.818-10.44,5.428-9.511,11.6.752,5.015,5.982,9.515,13.124,8.531,5.925-.816,10.537-5.751,9.43-11.607-.961-5.046-5.883-9.484-13.043-8.525m144.839-1.44c-9.6,1.2-12.928,11.987-5.737,17.838a12.158,12.158,0,0,0,8.811,2.361c6.028-.826,10.264-5.676,9.46-11.514-.661-4.857-5.915-9.511-12.534-8.685m-69.659.118c-5.385.788-8.718,6.085-8.2,11.5.466,4.769,4.383,10.324,10.558,9.536,5.832-.746,8.407-6.58,8.176-11.463-.222-4.7-4.533-10.455-10.538-9.575m33.525,1.023-.075-3.045a28.829,28.829,0,0,0-3.587-.046l.354,24.862,3.6.04c-.055-3.462-.332-12.066-.159-14.968.264-4.361,3.34-7.842,8.745-7.807,5.348.035,8.189,3.393,8.722,7.682.411,3.321-.008,10.889.3,14.89l3.528-.005c.2-1.089-.094-9.855-.111-11.756-.042-3.678-.256-6.892-2.556-9.611a12.192,12.192,0,0,0-9.179-4.08c-6.992-.182-8.874,3.521-9.583,3.845m60.287,5.808-7.536-9.417-4.188.022c.146.733,9.617,11.748,9.634,12.154a26.855,26.855,0,0,1-2.277,3.174c-.778,1.032-1.521,2.034-2.315,3.131-.738,1.006-4.432,5.818-4.661,6.464l4.2-.05,6.322-8.729c.178-.227.27-.357.43-.581l.555-.61c.527.437,3.137,4.05,3.789,4.862l3.748,4.9h4.18c-.174-.859-9.581-12.229-9.6-12.571a26.3,26.3,0,0,1,2.257-3.057c.786-1.022,1.6-2.01,2.359-3.092.808-1.134,4.361-5.487,4.681-6.211l-4.273.016c-1.154,1.36-6.711,9.234-7.306,9.6M97.7,695.986l-5.827.068.024,2.8c1.466.186,4.862-.223,5.949.087l.313,21.929h3.584l-.3-22.024,6.663-.067.039-2.875-6.754.028-.118-8.762-3.49.01c-.6,1.419.446,7.124-.088,8.806m-15.022,3.647-.068-3.486-3.571.005.35,24.921,3.54.007c.233-.894-.118-12.317-.136-14.281-.042-4.651,2.584-7.468,7.826-7.979l.051-3.327a8.776,8.776,0,0,0-6.753,2.485,15.972,15.972,0,0,1-1.238,1.655m70.9-4.224.008,2.74H159.3l.266,15.616.073,6.509h3.524l.026-1.109v-.354l-.382-23.429Zm-37.286,1.015-6.235.038-.108,1,6.327-.013.417,23.333h1.861l-.3-23.366,6.092-.058.033-.994c-1.593-.11-4.9.221-6.142-.036l-.159-9.435-1.874-.028Zm37.256-2.509,9.234-.071-.007-2.7c-.678-.177-7.881-.016-9.168.009a7.8,7.8,0,0,0-.06,2.757m-4.23-5.1h.67l3.441-8.655c-1.028-.036-.809-.168-1.511,1.743-.492,1.342-2.581,6.249-2.6,6.913" transform="translate(-46.925 -680.141)"/><path class="a" d="M73.266,716.878l.069,4.207,3.557.038-.3-24.832a15.782,15.782,0,0,0-3.6-.05l.041,4.311c-.963-.649-2.08-3.022-6.677-4.285a17.666,17.666,0,0,0-10.18.387c-12.829,4.611-11.834,20.246.051,24.245,5.249,1.767,12.1,1,15.573-2.567a11.328,11.328,0,0,1,1.47-1.455m131.362-22.453c-8.7,1.224-13.751,7.869-12.751,14.617.946,6.434,7.636,12.265,16.567,11.307,7.362-.795,13.863-7.248,12.682-14.524-1.136-7.021-8.546-12.517-16.5-11.4m-58.8,6.36-.338-.262c-1.338-1.423-2.009-2.795-4.956-3.991-7.835-3.183-15.488,3.216-15.309,11.562.227,11.1,12.95,16.145,19.775,7.953.237-.287.759-1.134,1.045-1.268.017,1.184-.119,5.1.169,5.886l1.781.051-.47-33.761-1.848-.005Zm-85.66-2.061c-6.1.818-10.44,5.428-9.511,11.6.752,5.015,5.982,9.515,13.124,8.531,5.925-.816,10.537-5.751,9.43-11.607-.961-5.046-5.883-9.484-13.043-8.525m144.839-1.44c-9.6,1.2-12.928,11.987-5.737,17.838a12.158,12.158,0,0,0,8.811,2.361c6.028-.826,10.264-5.676,9.46-11.514-.661-4.857-5.915-9.511-12.534-8.685m-69.659.118c-5.385.788-8.718,6.085-8.2,11.5.466,4.769,4.383,10.324,10.558,9.536,5.832-.746,8.407-6.58,8.176-11.463-.222-4.7-4.533-10.455-10.538-9.575m33.525,1.023-.075-3.045a28.829,28.829,0,0,0-3.587-.046l.354,24.862,3.6.04c-.055-3.462-.332-12.066-.159-14.968.264-4.361,3.34-7.842,8.745-7.807,5.348.035,8.189,3.393,8.722,7.682.411,3.321-.008,10.889.3,14.89l3.528-.005c.2-1.089-.094-9.855-.111-11.756-.042-3.678-.256-6.892-2.556-9.611a12.192,12.192,0,0,0-9.179-4.08c-6.992-.182-8.874,3.521-9.583,3.845m60.287,5.808-7.536-9.417-4.188.022c.146.733,9.617,11.748,9.634,12.154a26.855,26.855,0,0,1-2.277,3.174c-.778,1.032-1.521,2.034-2.315,3.131-.738,1.006-4.432,5.818-4.661,6.464l4.2-.05,6.322-8.729c.178-.227.27-.357.43-.581l.555-.61c.527.437,3.137,4.05,3.789,4.862l3.748,4.9h4.18c-.174-.859-9.581-12.229-9.6-12.571a26.3,26.3,0,0,1,2.257-3.057c.786-1.022,1.6-2.01,2.359-3.092.808-1.134,4.361-5.487,4.681-6.211l-4.273.016c-1.154,1.36-6.711,9.234-7.306,9.6M97.7,695.986l-5.827.068.024,2.8c1.466.186,4.862-.223,5.949.087l.313,21.929h3.584l-.3-22.024,6.663-.067.039-2.875-6.754.028-.118-8.762-3.49.01c-.6,1.419.446,7.124-.088,8.806m-15.022,3.647-.068-3.486-3.571.005.35,24.921,3.54.007c.233-.894-.118-12.317-.136-14.281-.042-4.651,2.584-7.468,7.826-7.979l.051-3.327a8.776,8.776,0,0,0-6.753,2.485,15.972,15.972,0,0,1-1.238,1.655m70.9-4.224.008,2.74H159.3l.266,15.616.073,6.509h3.524l.026-1.109v-.354l-.382-23.429Zm-37.286,1.015-6.235.038-.108,1,6.327-.013.417,23.333h1.861l-.3-23.366,6.092-.058.033-.994c-1.593-.11-4.9.221-6.142-.036l-.159-9.435-1.874-.028Zm37.256-2.509,9.234-.071-.007-2.7c-.678-.177-7.881-.016-9.168.009a7.8,7.8,0,0,0-.06,2.757m-4.23-5.1h.67l3.441-8.655c-1.028-.036-.809-.168-1.511,1.743-.492,1.342-2.581,6.249-2.6,6.913" transform="translate(-46.925 -680.141)"/><path class="b" d="M49.788,719.565a.782.782,0,0,0-.665-.374c-.275,0-.539.184-.539.422,0,.376.6.54,1.208.768s1.193.538,1.2,1.216a1.618,1.618,0,0,1-1.772,1.427,1.954,1.954,0,0,1-1.792-.959l.849-.323a1.034,1.034,0,0,0,.94.547c.42,0,.783-.24.782-.607,0-.23-.134-.34-.366-.467l-.973-.428c-.576-.256-1-.492-1-1.081a1.4,1.4,0,0,1,1.519-1.251,1.585,1.585,0,0,1,1.415.749Z" transform="translate(-46.769 -668.204)"/><path class="b" d="M57.508,723.214h-.994L56.5,719.7h-.54v-.771h.54l-.005-1.641h.993l.007,1.642h.972v.769h-.972Z" transform="translate(-44.112 -668.571)"/><path class="b" d="M68.623,722.825H67.63v-.669H67.6a2.241,2.241,0,0,1-1.752.821,2.289,2.289,0,1,1-.052-4.567,2.241,2.241,0,0,1,1.794.838h.021v-.716h.994Zm-.947-2.143A1.66,1.66,0,1,0,66,722.244a1.542,1.542,0,0,0,1.672-1.562" transform="translate(-41.802 -668.218)"/><path class="b" d="M75.121,717.124a.694.694,0,1,1-.685-.58.7.7,0,0,1,.685.58m-.163,6.254h-.994l-.017-4.291h.993Z" transform="translate(-38.568 -668.799)"/><path class="b" d="M82.254,719.074h.022a1.865,1.865,0,0,1,1.553-.711c1.458,0,1.837.811,1.84,1.857l.01,2.559h-.994l-.009-2.459c0-.732-.126-1.228-1.141-1.224-1.281,0-1.277.938-1.275,1.717l.008,1.973h-.994l-.017-4.291h.994Z" transform="translate(-36.23 -668.234)"/><rect class="b" width="0.994" height="7.96" transform="translate(57.899 46.56) rotate(-0.172)"/><path class="b" d="M99,720.732a1.48,1.48,0,0,0,1.562,1.418,1.734,1.734,0,0,0,1.544-.838l.841.392a2.813,2.813,0,0,1-2.392,1.18A2.3,2.3,0,0,1,98,720.634a2.237,2.237,0,0,1,2.508-2.317,2.176,2.176,0,0,1,2.429,2.277v.129Zm2.946-.631a1.325,1.325,0,0,0-1.43-1.068,1.409,1.409,0,0,0-1.464,1.075Z" transform="translate(-31.013 -668.248)"/><path class="b" d="M109.941,719.4a.783.783,0,0,0-.665-.375.5.5,0,0,0-.539.424c0,.376.6.539,1.208.767s1.193.538,1.2,1.217a1.618,1.618,0,0,1-1.772,1.426,1.954,1.954,0,0,1-1.792-.959l.849-.323a1.038,1.038,0,0,0,.94.548c.42,0,.783-.241.782-.607,0-.231-.134-.34-.366-.467l-.973-.429c-.576-.256-1-.492-1-1.081a1.4,1.4,0,0,1,1.519-1.25,1.579,1.579,0,0,1,1.415.749Z" transform="translate(-28.03 -668.256)"/><path class="b" d="M118.561,719.376A.782.782,0,0,0,117.9,719c-.275,0-.54.184-.539.424,0,.375.6.539,1.207.767s1.195.538,1.2,1.216a1.618,1.618,0,0,1-1.773,1.427,1.954,1.954,0,0,1-1.792-.959l.85-.323a1.035,1.035,0,0,0,.94.548c.42,0,.783-.241.782-.608,0-.23-.134-.34-.366-.466l-.974-.429c-.576-.256-1-.492-1-1.081a1.4,1.4,0,0,1,1.519-1.251,1.584,1.584,0,0,1,1.416.75Z" transform="translate(-25.346 -668.263)"/><path class="b" d="M137.809,722.634h-.994v-.67h-.022a2.238,2.238,0,0,1-1.752.822,2.29,2.29,0,1,1-.052-4.567,2.24,2.24,0,0,1,1.794.838h.021v-.716h.994Zm-.947-2.145a1.66,1.66,0,1,0-1.672,1.563,1.542,1.542,0,0,0,1.672-1.563" transform="translate(-20.249 -668.278)"/><path class="b" d="M143.966,719.022H144a1.5,1.5,0,0,1,1.411-.83,1.821,1.821,0,0,1,.818.209l-.45.754a.986.986,0,0,0-.609-.172c-1.07,0-1.2.829-1.2,1.525l.009,2.109h-.994l-.018-4.291h.994Z" transform="translate(-17.006 -668.287)"/><path class="b" d="M152.676,722.952h-.994l-.014-3.523h-.542v-.77h.542l-.007-1.641h.993l.007,1.642h.973v.769h-.971Z" transform="translate(-14.465 -668.652)"/><path class="b" d="M160.223,716.89a.695.695,0,1,1-.687-.576.64.64,0,0,1,.687.576m-.164,6.255h-1l-.017-4.291h1Z" transform="translate(-12.057 -668.872)"/><path class="b" d="M168.506,719.239a.783.783,0,0,0-.665-.375c-.275,0-.54.185-.539.424,0,.376.6.539,1.207.767s1.2.538,1.2,1.216a1.619,1.619,0,0,1-1.773,1.427,1.953,1.953,0,0,1-1.792-.959l.85-.323a1.035,1.035,0,0,0,.94.548c.42,0,.783-.241.782-.608,0-.23-.134-.339-.366-.466l-.974-.429c-.576-.256-1-.492-1-1.081a1.4,1.4,0,0,1,1.519-1.25,1.581,1.581,0,0,1,1.416.749Z" transform="translate(-9.787 -668.306)"/><path class="b" d="M176.226,722.887h-.994l-.014-3.521h-.542v-.77h.542l-.007-1.641h.993l.008,1.642h.972v.77h-.971Z" transform="translate(-7.129 -668.673)"/><path class="b" d="M183.431,718.914h.033a1.493,1.493,0,0,1,1.41-.83,1.786,1.786,0,0,1,.818.209l-.45.754a.988.988,0,0,0-.609-.173c-1.07,0-1.2.829-1.2,1.527l.009,2.109h-.994l-.018-4.293h1Z" transform="translate(-4.711 -668.321)"/><path class="b" d="M190.43,718.169h1.161l1.755,2.719,1.612-2.729h1.115l-4.156,6.762h-1.128l2.018-3.2Z" transform="translate(-2.22 -668.299)"/></g><g transform="translate(-9198 -8142.373)"><path class="b" d="M299.564,96.347a6.817,6.817,0,0,1-6.776,6.842,6.893,6.893,0,0,1-6.708-5.712,9.136,9.136,0,0,1-8.37,5.712,9.233,9.233,0,1,1,0-18.465h8.3V71.7a11.644,11.644,0,0,0-12.887,1.064l-.6-.6a13.028,13.028,0,0,1,7.838-2.722,12.862,12.862,0,0,1,12.821,12.022v20.858a5.968,5.968,0,0,0,5.579-5.979ZM270.737,77.482a4.018,4.018,0,1,1,4.052,3.985,3.97,3.97,0,0,1-4.052-3.985m15.277,8.038h-8.37a8.057,8.057,0,0,0-1.328.066v16.672a7.481,7.481,0,0,0,1.328.133,8.478,8.478,0,0,0,8.37-8.436Z" transform="translate(-255.413 -56.525)"/><path class="b" d="M277.188,83.134a6.819,6.819,0,0,1,6.777-6.842A6.894,6.894,0,0,1,290.673,82a9.134,9.134,0,0,1,8.37-5.713,9.234,9.234,0,1,1,0,18.469h-8.3v13.019a11.647,11.647,0,0,0,12.887-1.062l.6.6a13.036,13.036,0,0,1-7.839,2.724,12.863,12.863,0,0,1-12.819-12.023V77.158a5.967,5.967,0,0,0-5.58,5.976Zm13.551,10.829h8.369a8.034,8.034,0,0,0,1.328-.066V77.223a7.558,7.558,0,0,0-1.328-.133,8.477,8.477,0,0,0-8.369,8.436ZM306.017,102a4.018,4.018,0,1,1-4.052-3.985A3.97,3.97,0,0,1,306.017,102" transform="translate(-253.177 -54.794)"/><path class="b" d="M291.956,126.411A33.345,33.345,0,1,1,325.3,93.066a33.345,33.345,0,0,1-33.344,33.345m0-66.506a33.161,33.161,0,1,0,33.161,33.161,33.161,33.161,0,0,0-33.161-33.161" transform="translate(-257.874 -58.984)"/><path class="b" d="M292.1,127.294a34.08,34.08,0,1,1,34.08-34.08,34.08,34.08,0,0,1-34.08,34.08m0-66.5a32.424,32.424,0,1,0,32.43,32.424A32.423,32.423,0,0,0,292.1,60.794" transform="translate(-258.023 -59.133)"/></g><line class="c" y1="58" transform="translate(-9115.5 -8137.5)"/></g></svg>