<?xml version="1.0" encoding="utf-8"?>
<!-- Generator: Adobe Illustrator 25.0.0, SVG Export Plug-In . SVG Version: 6.00 Build 0)  -->
<svg version="1.1" id="Layer_1" xmlns="http://www.w3.org/2000/svg" xmlns:xlink="http://www.w3.org/1999/xlink" x="0px" y="0px"
	 viewBox="0 0 200 52" style="enable-background:new 0 0 200 52;" xml:space="preserve">
<style type="text/css">
	.st0{fill-rule:evenodd;clip-rule:evenodd;fill:#FFFFFF;}
	.st1{fill:#FFFFFF;}
</style>
<g transform="translate(9198.003 8142.372)">
	<g transform="translate(-9102 -8136.602)">
		<path class="st0" d="M-71.7,27v3.4h2.9L-69,10.5c-1-0.1-1.9-0.1-2.9,0V14c-0.7-0.5-1.7-2.4-5.4-3.5c-2.8-0.7-5.5-0.6-8.2,0.4
			c-10.3,3.7-9.6,16.3,0,19.6c4.2,1.4,9.7,0.8,12.6-2C-72.6,27.8-72.1,27.4-71.7,27 M34.5,8.9c-7.1,1-11.1,6.4-10.3,11.8
			c0.7,5.2,6.1,9.9,13.3,9.1c6-0.6,11.2-5.9,10.2-11.8C46.9,12.4,40.8,7.9,34.5,8.9 M-13.1,14.1l-0.2-0.2c-1.1-1.2-1.7-2.3-4-3.2
			c-6.4-2.5-12.5,2.6-12.4,9.4c0.2,9,10.5,13.1,16,6.4c0.2-0.2,0.6-1,0.8-1.1c0,1-0.1,4.1,0.1,4.8h1.4l-0.4-27.2h-1.4V14.1z
			 M-82.3,12.4c-4.9,0.7-8.4,4.4-7.7,9.4c0.6,4.1,4.8,7.7,10.6,6.8c4.8-0.6,8.5-4.7,7.6-9.4C-72.6,15.2-76.6,11.5-82.3,12.4
			 M34.7,11.2c-7.8,1-10.5,9.7-4.7,14.4c2,1.6,4.6,2.2,7.1,1.9c4.9-0.7,8.3-4.6,7.7-9.3C44.3,14.3,40.1,10.6,34.7,11.2 M-21.5,11.3
			c-4.3,0.6-7.1,4.9-6.6,9.3c0.4,3.8,3.5,8.3,8.5,7.7c4.7-0.6,6.8-5.3,6.6-9.3C-13.2,15.3-16.7,10.6-21.5,11.3 M5.5,12.1L5.4,9.7
			c-1-0.1-1.9-0.1-2.9,0l0.2,20.1h2.9c0-2.8-0.2-9.7-0.1-12.1c0.2-3.5,2.6-6.4,7.1-6.4c4.3,0,6.6,2.8,7.1,6.2c0.4,2.6,0,8.8,0.2,12
			h2.9c0.1-0.8-0.1-7.9-0.1-9.5c0-3-0.2-5.5-2-7.8c-1.9-2.2-4.6-3.4-7.5-3.2C7.7,8.9,6.1,11.9,5.5,12.1 M54.3,16.8l-6.1-7.6h-3.4
			c0.1,0.6,7.8,9.5,7.8,9.9c-0.6,0.8-1.2,1.8-1.8,2.5c-0.6,0.8-1.2,1.7-1.9,2.5c-0.6,0.8-3.6,4.7-3.7,5.2h3.4l5.2-7.1
			c0.1-0.2,0.2-0.2,0.4-0.5l0.5-0.5c0.5,0.4,2.5,3.2,3,4l3,4h3.4c-0.1-0.7-7.7-9.9-7.8-10.2c0.6-0.8,1.2-1.7,1.8-2.5
			c0.6-0.8,1.3-1.7,1.9-2.5c0.6-1,3.5-4.4,3.7-5h-3.5C59.2,10.2,54.8,16.5,54.3,16.8 M-51.9,10.1h-4.7v2.3c1.2,0.1,4-0.1,4.8,0.1
			l0.2,17.7h2.9l-0.2-17.7h5.4v-2.3h-5.4L-49,3h-2.8C-52.4,4.2-51.6,8.8-51.9,10.1 M-64.2,13.1v-2.8h-2.9l0.2,20.2h2.9
			c0.2-0.7-0.1-10-0.1-11.5c0-3.7,2-6,6.4-6.5V9.9c-2-0.1-4,0.6-5.4,2C-63.5,12.3-63.8,12.6-64.2,13.1 M-6.9,9.7v2.2h4.6l0.2,12.6
			v5.3h2.9V29v-0.2l-0.4-19L-6.9,9.7z M-36.9,10.5h-5l-0.1,0.8h5.2l0.4,18.9h1.6l-0.4-18.9h4.9v-0.8c-1.3-0.1-4,0.1-4.9,0l-0.1-7.6
			H-37L-36.9,10.5z M-6.9,8.5h7.5V6.4c-0.6-0.1-6.4,0-7.5,0C-7,7-7,7.7-6.9,8.5 M-10.2,4.3h0.6l2.8-7c-0.8,0-0.6-0.1-1.2,1.4
			C-8.5-0.1-10.2,3.9-10.2,4.3"/>
		<path class="st0" d="M-71.7,27v3.4h2.9L-69,10.5c-1-0.1-1.9-0.1-2.9,0V14c-0.7-0.5-1.7-2.4-5.4-3.5c-2.8-0.7-5.5-0.6-8.2,0.4
			c-10.3,3.7-9.6,16.3,0,19.6c4.2,1.4,9.7,0.8,12.6-2C-72.6,27.8-72.1,27.4-71.7,27 M34.5,8.9c-7.1,1-11.1,6.4-10.3,11.8
			c0.7,5.2,6.1,9.9,13.3,9.1c6-0.6,11.2-5.9,10.2-11.8C46.9,12.4,40.8,7.9,34.5,8.9 M-13.1,14.1l-0.2-0.2c-1.1-1.2-1.7-2.3-4-3.2
			c-6.4-2.5-12.5,2.6-12.4,9.4c0.2,9,10.5,13.1,16,6.4c0.2-0.2,0.6-1,0.8-1.1c0,1-0.1,4.1,0.1,4.8h1.4l-0.4-27.2h-1.4V14.1z
			 M-82.3,12.4c-4.9,0.7-8.4,4.4-7.7,9.4c0.6,4.1,4.8,7.7,10.6,6.8c4.8-0.6,8.5-4.7,7.6-9.4C-72.6,15.2-76.6,11.5-82.3,12.4
			 M34.7,11.2c-7.8,1-10.5,9.7-4.7,14.4c2,1.6,4.6,2.2,7.1,1.9c4.9-0.7,8.3-4.6,7.7-9.3C44.3,14.3,40.1,10.6,34.7,11.2 M-21.5,11.3
			c-4.3,0.6-7.1,4.9-6.6,9.3c0.4,3.8,3.5,8.3,8.5,7.7c4.7-0.6,6.8-5.3,6.6-9.3C-13.2,15.3-16.7,10.6-21.5,11.3 M5.5,12.1L5.4,9.7
			c-1-0.1-1.9-0.1-2.9,0l0.2,20.1h2.9c0-2.8-0.2-9.7-0.1-12.1c0.2-3.5,2.6-6.4,7.1-6.4c4.3,0,6.6,2.8,7.1,6.2c0.4,2.6,0,8.8,0.2,12
			h2.9c0.1-0.8-0.1-7.9-0.1-9.5c0-3-0.2-5.5-2-7.8c-1.9-2.2-4.6-3.4-7.5-3.2C7.7,8.9,6.1,11.9,5.5,12.1 M54.3,16.8l-6.1-7.6h-3.4
			c0.1,0.6,7.8,9.5,7.8,9.9c-0.6,0.8-1.2,1.8-1.8,2.5c-0.6,0.8-1.2,1.7-1.9,2.5c-0.6,0.8-3.6,4.7-3.7,5.2h3.4l5.2-7.1
			c0.1-0.2,0.2-0.2,0.4-0.5l0.5-0.5c0.5,0.4,2.5,3.2,3,4l3,4h3.4c-0.1-0.7-7.7-9.9-7.8-10.2c0.6-0.8,1.2-1.7,1.8-2.5
			c0.6-0.8,1.3-1.7,1.9-2.5c0.6-1,3.5-4.4,3.7-5h-3.5C59.2,10.2,54.8,16.5,54.3,16.8 M-51.9,10.1h-4.7v2.3c1.2,0.1,4-0.1,4.8,0.1
			l0.2,17.7h2.9l-0.2-17.7h5.4v-2.3h-5.4L-49,3h-2.8C-52.4,4.2-51.6,8.8-51.9,10.1 M-64.2,13.1v-2.8h-2.9l0.2,20.2h2.9
			c0.2-0.7-0.1-10-0.1-11.5c0-3.7,2-6,6.4-6.5V9.9c-2-0.1-4,0.6-5.4,2C-63.5,12.3-63.8,12.6-64.2,13.1 M-6.9,9.7v2.2h4.6l0.2,12.6
			v5.3h2.9V29v-0.2l-0.4-19L-6.9,9.7z M-36.9,10.5h-5l-0.1,0.8h5.2l0.4,18.9h1.6l-0.4-18.9h4.9v-0.8c-1.3-0.1-4,0.1-4.9,0l-0.1-7.6
			H-37L-36.9,10.5z M-6.9,8.5h7.5V6.4c-0.6-0.1-6.4,0-7.5,0C-7,7-7,7.7-6.9,8.5 M-10.2,4.3h0.6l2.8-7c-0.8,0-0.6-0.1-1.2,1.4
			C-8.5-0.1-10.2,3.9-10.2,4.3"/>
		<path class="st1" d="M-90.6,38.8c-0.1-0.2-0.4-0.4-0.5-0.4c-0.2,0-0.5,0.1-0.5,0.4c0,0.4,0.5,0.5,1,0.6s1,0.5,1,1
			c-0.1,0.7-0.7,1.2-1.4,1.2c-0.6,0-1.2-0.2-1.4-0.7l0.7-0.2c0.1,0.2,0.5,0.5,0.7,0.5c0.4,0,0.6-0.2,0.6-0.5s-0.1-0.2-0.2-0.4
			l-0.8-0.4c-0.5-0.2-0.8-0.4-0.8-0.8c0.1-0.6,0.6-1.1,1.2-1c0.5,0,0.8,0.2,1.2,0.6L-90.6,38.8z"/>
		<path class="st1" d="M-82.2,41.5H-83v-2.9h-0.4V38h0.5v-1.3h0.8V38h0.8v0.6h-1V41.5z"/>
		<path class="st1" d="M-71.4,41.5h-0.8V41l0,0c-0.4,0.5-0.8,0.7-1.4,0.7c-1,0.1-1.9-0.7-2-1.7c-0.1-1,0.7-1.9,1.7-2
			c0.1,0,0.1,0,0.2,0c0.6,0,1.1,0.2,1.4,0.7l0,0V38h0.8L-71.4,41.5z M-72.1,39.8c0-0.7-0.5-1.3-1.2-1.4c-0.7,0-1.3,0.5-1.4,1.2
			c0,0.7,0.5,1.3,1.2,1.4c0,0,0,0,0.1,0c0.7,0,1.3-0.5,1.3-1.1C-72.1,39.8-72.1,39.8-72.1,39.8"/>
		<path class="st1" d="M-63.5,36.4c0,0.4-0.1,0.6-0.5,0.6c-0.4,0-0.6-0.1-0.6-0.5c0-0.4,0.1-0.6,0.5-0.6h0.1
			C-63.7,35.9-63.6,36.2-63.5,36.4 M-63.6,41.5h-0.8V38h0.8V41.5z"/>
		<path class="st1" d="M-55.8,38.5L-55.8,38.5c0.4-0.4,0.8-0.6,1.3-0.6c1.2,0,1.4,0.6,1.4,1.4v2h-0.8v-2c0-0.6-0.1-1-1-1
			c-1,0.1-1,0.8-1,1.6v1.6h-0.8V38h0.8V38.5z"/>
		
			<rect x="-46.2" y="35" transform="matrix(1 -3.001934e-03 3.001934e-03 1 -0.115 -0.1371)" class="st1" width="0.8" height="6.5"/>
		<path class="st1" d="M-38.1,39.8c0,0.6,0.6,1.2,1.2,1.2l0,0c0.5,0,1-0.2,1.2-0.7l0.7,0.4c-0.5,0.6-1.2,1-1.9,1
			c-1,0.1-1.9-0.6-2-1.7v-0.1c0-1,0.7-1.8,1.7-1.9c0.1,0,0.2,0,0.2,0c1-0.1,1.8,0.6,1.9,1.6c0,0.1,0,0.2,0,0.4v0.1L-38.1,39.8z
			 M-35.7,39.3c-0.1-0.6-0.6-1-1.2-0.8c-0.6,0-1.1,0.4-1.2,0.8H-35.7z"/>
		<path class="st1" d="M-26.8,38.7c-0.1-0.2-0.4-0.4-0.5-0.4c-0.2,0-0.4,0.1-0.5,0.4c0,0.4,0.5,0.5,1,0.6c0.5,0.2,1,0.5,1,1
			c-0.1,0.7-0.7,1.2-1.4,1.2c-0.6,0-1.2-0.2-1.4-0.7l0.7-0.2c0.1,0.2,0.5,0.5,0.7,0.5c0.4,0,0.6-0.2,0.6-0.5s-0.1-0.2-0.2-0.4
			l-0.8-0.4c-0.5-0.2-0.8-0.4-0.8-0.8c0.1-0.6,0.6-1.1,1.2-1c0.5,0,0.8,0.2,1.2,0.6L-26.8,38.7z"/>
		<path class="st1" d="M-17.7,38.7c-0.1-0.2-0.4-0.4-0.5-0.4c-0.2,0-0.5,0.1-0.5,0.4c0,0.4,0.5,0.5,1,0.6c0.5,0.2,1,0.5,1,1
			c-0.1,0.7-0.7,1.2-1.4,1.2c-0.6,0-1.2-0.2-1.4-0.7l0.7-0.2c0.1,0.2,0.5,0.5,0.7,0.5c0.4,0,0.6-0.2,0.6-0.5s-0.1-0.2-0.2-0.4
			l-0.8-0.4c-0.5-0.2-0.8-0.4-0.8-0.8c0.1-0.6,0.6-1.1,1.2-1c0.5,0,0.8,0.2,1.2,0.6L-17.7,38.7z"/>
		<path class="st1" d="M2,41.2H1.2v-0.6l0,0c-0.4,0.5-0.8,0.7-1.4,0.7c-1,0.1-1.9-0.7-2-1.7s0.7-1.9,1.7-2c0.1,0,0.2,0,0.2,0
			c0.6,0,1.1,0.2,1.4,0.7l0,0v-0.6h0.8L2,41.2z M1.2,39.5c0-0.7-0.5-1.3-1.2-1.4c-0.7,0-1.3,0.5-1.4,1.2c0,0.7,0.5,1.3,1.2,1.4
			c0,0,0,0,0.1,0c0.7,0,1.3-0.5,1.3-1.1C1.2,39.7,1.2,39.5,1.2,39.5"/>
		<path class="st1" d="M9.6,38.3L9.6,38.3c0.2-0.5,0.7-0.7,1.2-0.7c0.2,0,0.5,0.1,0.7,0.1l-0.4,0.6c-0.1-0.1-0.4-0.1-0.5-0.1
			c-0.8,0-1,0.7-1,1.2v1.7H8.9v-3.5h0.8L9.6,38.3z"/>
		<path class="st1" d="M18.7,41.2h-0.8v-2.9h-0.5v-0.6h0.5v-1.3h0.8v1.3h0.8v0.6h-0.8V41.2z"/>
		<path class="st1" d="M26.8,36.2c0,0.4-0.1,0.6-0.5,0.6s-0.6-0.1-0.6-0.5s0.1-0.6,0.5-0.6h0.1C26.4,35.7,26.7,35.9,26.8,36.2
			 M26.5,41.2h-0.8v-3.5h0.8V41.2z"/>
		<path class="st1" d="M35.3,38.5c-0.1-0.2-0.4-0.4-0.5-0.4c-0.2,0-0.5,0.1-0.5,0.4c0,0.4,0.5,0.5,1,0.6c0.5,0.2,1,0.5,1,1
			c-0.1,0.7-0.7,1.2-1.4,1.2c-0.6,0-1.2-0.2-1.4-0.7l0.7-0.2c0.1,0.2,0.5,0.5,0.7,0.5c0.4,0,0.6-0.2,0.6-0.5s-0.1-0.2-0.2-0.4
			l-0.8-0.4c-0.5-0.2-0.8-0.4-0.8-0.8c0.1-0.6,0.6-1.1,1.2-1c0.5,0,0.8,0.2,1.2,0.6L35.3,38.5z"/>
		<path class="st1" d="M43.6,41.2h-0.8v-2.9h-0.5v-0.6h0.5v-1.3h0.8v1.3h0.8v0.6h-0.8V41.2z"/>
		<path class="st1" d="M51.4,38.2L51.4,38.2c0.2-0.5,0.7-0.7,1.2-0.7c0.2,0,0.5,0.1,0.7,0.1L53,38.2c-0.1-0.1-0.4-0.1-0.5-0.1
			c-0.8,0-1,0.7-1,1.2V41h-0.8v-3.5h0.8L51.4,38.2z"/>
		<path class="st1" d="M59.1,37.6h1l1.4,2.2l1.3-2.2h0.8L60.3,43h-1l1.7-2.6L59.1,37.6z"/>
	</g>
</g>
</svg>
