<?xml version="1.0" encoding="utf-8"?>
<!-- Generator: Adobe Illustrator 25.0.0, SVG Export Plug-In . SVG Version: 6.00 Build 0)  -->
<svg version="1.1" id="Layer_1" xmlns="http://www.w3.org/2000/svg" xmlns:xlink="http://www.w3.org/1999/xlink" x="0px" y="0px"
	 viewBox="0 0 395 52.1" style="enable-background:new 0 0 395 52.1;" xml:space="preserve">
<style type="text/css">
	.st0{fill:none;stroke:#FFFFFF;stroke-miterlimit:2.613;}
	.st1{fill:none;stroke:#575656;stroke-miterlimit:2.613;}
	.st2{fill:#EC8022;}
	.st3{fill:#FFFFFF;}
	.st4{fill:none;stroke:#FFFFFF;stroke-width:0.9962;stroke-miterlimit:2.613;}
	.st5{fill:#ED7C22;}
</style>
<path class="st0" d="M213.6,1.5v48.6"/>
<g>
	<path class="st3" d="M295,45.4l1.1-0.1c0,0.3,0,0.6,0.1,0.8c0.1,0.2,0.3,0.4,0.5,0.6c0.3,0.1,0.6,0.2,0.9,0.2
		c0.5,0,0.9-0.1,1.1-0.3c0.2-0.2,0.4-0.4,0.4-0.7c0-0.2-0.1-0.4-0.2-0.6c-0.2-0.2-0.5-0.4-1.1-0.6c-0.6-0.3-1-0.4-1.1-0.5
		c-0.3-0.2-0.5-0.4-0.6-0.6c-0.1-0.2-0.2-0.5-0.2-0.8c0-0.5,0.2-1,0.6-1.3c0.4-0.4,1-0.6,1.7-0.6c0.8,0,1.5,0.2,1.9,0.6
		c0.4,0.4,0.7,0.9,0.7,1.5l-1.1,0.1c0-0.4-0.2-0.7-0.4-1c-0.3-0.2-0.6-0.4-1.1-0.4c-0.4,0-0.7,0.1-0.9,0.3c-0.2,0.2-0.3,0.4-0.3,0.6
		c0,0.2,0.1,0.4,0.3,0.5c0.1,0.1,0.4,0.3,1,0.5c0.9,0.4,1.4,0.7,1.6,0.9c0.4,0.3,0.5,0.8,0.5,1.3c0,0.3-0.1,0.6-0.3,1
		c-0.2,0.3-0.5,0.6-0.9,0.8c-0.4,0.2-0.9,0.3-1.5,0.3c-0.8,0-1.4-0.2-1.9-0.6C295.2,46.8,295,46.2,295,45.4 M302.9,39.8l0.3-1.3h1.1
		l-0.3,1.3H302.9z M301.3,47.6l1.4-6.6h1.1l-1.4,6.6H301.3z M304.1,47.6l1.4-6.6h1l-0.2,1.2c0.4-0.5,0.9-0.8,1.3-1
		c0.4-0.2,0.8-0.3,1.2-0.3c0.5,0,1,0.1,1.3,0.4c0.3,0.3,0.5,0.7,0.5,1.2c0,0.2-0.1,0.6-0.2,1.2l-0.9,4h-1.1l0.9-4.2
		c0.1-0.4,0.1-0.7,0.1-0.9c0-0.2-0.1-0.4-0.2-0.5c-0.2-0.1-0.4-0.2-0.7-0.2c-0.6,0-1.1,0.2-1.6,0.6c-0.5,0.4-0.8,1.1-1,2.1l-0.6,3.1
		H304.1z M315.8,45.2l1.1,0.1c-0.3,0.8-0.7,1.4-1.2,1.8c-0.5,0.4-1.1,0.6-1.8,0.6c-0.7,0-1.3-0.2-1.8-0.7c-0.4-0.5-0.7-1.1-0.7-1.9
		c0-0.7,0.1-1.4,0.4-2.1c0.3-0.7,0.7-1.2,1.2-1.6c0.5-0.4,1.1-0.5,1.8-0.5c0.7,0,1.3,0.2,1.7,0.6c0.4,0.4,0.6,0.9,0.6,1.6l-1.1,0.1
		c0-0.4-0.1-0.7-0.4-1c-0.2-0.2-0.6-0.4-0.9-0.4c-0.5,0-0.8,0.1-1.2,0.4c-0.3,0.3-0.6,0.7-0.8,1.3c-0.2,0.6-0.3,1.1-0.3,1.7
		c0,0.6,0.1,1,0.4,1.3c0.2,0.3,0.6,0.4,0.9,0.4c0.4,0,0.7-0.1,1.1-0.4C315.3,46.2,315.6,45.8,315.8,45.2z M322.5,45.4l1.1,0.1
		c-0.2,0.5-0.5,1.1-1.1,1.6c-0.6,0.5-1.2,0.7-2,0.7c-0.5,0-0.9-0.1-1.4-0.3c-0.4-0.2-0.7-0.6-0.9-1c-0.2-0.4-0.3-0.9-0.3-1.5
		c0-0.7,0.2-1.4,0.5-2.1c0.3-0.7,0.8-1.2,1.3-1.5c0.5-0.3,1.1-0.5,1.7-0.5c0.8,0,1.4,0.2,1.9,0.7c0.5,0.5,0.7,1.2,0.7,2
		c0,0.3,0,0.7-0.1,1H319c0,0.1,0,0.2,0,0.3c0,0.6,0.1,1.1,0.4,1.4c0.3,0.3,0.6,0.5,1,0.5c0.4,0,0.8-0.1,1.1-0.4
		C322,46.2,322.3,45.9,322.5,45.4z M319.2,43.7h3.7c0-0.1,0-0.2,0-0.2c0-0.6-0.1-1-0.4-1.3c-0.3-0.3-0.6-0.4-1.1-0.4
		c-0.5,0-0.9,0.2-1.3,0.5C319.7,42.6,319.4,43.1,319.2,43.7z"/>
	<path class="st3" d="M335.2,49.9h-2.6V40c-1,0.9-2.1,1.6-3.4,2v-2.4c0.7-0.2,1.4-0.6,2.2-1.3c0.8-0.6,1.4-1.4,1.7-2.2h2.1V49.9z
		 M339.2,46.7l2.5-0.3c0.1,0.5,0.2,0.9,0.5,1.2c0.3,0.3,0.6,0.4,1,0.4c0.5,0,1-0.3,1.4-0.8c0.4-0.5,0.6-1.5,0.7-3.1
		c-0.7,0.8-1.5,1.1-2.5,1.1c-1.1,0-2-0.4-2.8-1.2c-0.8-0.8-1.2-1.9-1.2-3.2c0-1.4,0.4-2.5,1.2-3.4c0.8-0.9,1.9-1.3,3.2-1.3
		c1.4,0,2.5,0.5,3.4,1.6c0.9,1.1,1.3,2.8,1.3,5.3c0,2.5-0.5,4.3-1.4,5.4c-0.9,1.1-2.1,1.7-3.6,1.7c-1.1,0-1.9-0.3-2.6-0.9
		C339.8,48.7,339.4,47.9,339.2,46.7z M345.1,41c0-0.8-0.2-1.5-0.6-2c-0.4-0.5-0.8-0.7-1.3-0.7c-0.5,0-0.9,0.2-1.2,0.6
		c-0.3,0.4-0.5,1-0.5,1.9c0,0.9,0.2,1.5,0.5,1.9c0.3,0.4,0.8,0.6,1.3,0.6c0.5,0,0.9-0.2,1.3-0.6C344.9,42.3,345.1,41.7,345.1,41z
		 M364.8,36.1c1.3,0,2.4,0.5,3.1,1.4c0.9,1.1,1.3,3,1.3,5.6c0,2.6-0.5,4.5-1.3,5.6c-0.7,0.9-1.8,1.4-3.1,1.4c-1.3,0-2.4-0.5-3.2-1.5
		c-0.8-1-1.2-2.9-1.2-5.5c0-2.6,0.4-4.5,1.3-5.6C362.5,36.6,363.5,36.1,364.8,36.1z M364.8,38.3c-0.3,0-0.6,0.1-0.8,0.3
		c-0.2,0.2-0.4,0.6-0.6,1.1c-0.2,0.7-0.3,1.8-0.3,3.4c0,1.6,0.1,2.7,0.2,3.3c0.2,0.6,0.4,1,0.6,1.2c0.2,0.2,0.5,0.3,0.8,0.3
		c0.3,0,0.6-0.1,0.8-0.3c0.2-0.2,0.4-0.6,0.6-1.1c0.2-0.7,0.3-1.8,0.3-3.4c0-1.6-0.1-2.7-0.2-3.3c-0.2-0.6-0.4-1-0.6-1.2
		C365.4,38.4,365.1,38.3,364.8,38.3z"/>
	<path class="st4" d="M255.6,8.6h-20.1v35.1h52.8 M376.1,43.7h12.6V8.6h-45"/>
	<path class="st3" d="M242.5,33.8v-7.1h-2.7v-0.9h6.4v0.9h-2.7v7.1H242.5z M246.8,33.8v-5.9h0.9v0.9c0.2-0.4,0.4-0.7,0.6-0.8
		c0.2-0.1,0.4-0.2,0.6-0.2c0.3,0,0.7,0.1,1,0.3l-0.4,0.9c-0.2-0.1-0.5-0.2-0.7-0.2c-0.2,0-0.4,0.1-0.6,0.2c-0.2,0.1-0.3,0.3-0.4,0.5
		c-0.1,0.4-0.2,0.7-0.2,1.2v3.1H246.8z M254.4,33.8v-0.9c-0.5,0.7-1.1,1-1.9,1c-0.3,0-0.7-0.1-1-0.2c-0.3-0.1-0.5-0.3-0.7-0.5
		c-0.1-0.2-0.2-0.4-0.3-0.7c0-0.2-0.1-0.5-0.1-0.9v-3.6h1v3.2c0,0.5,0,0.9,0.1,1c0.1,0.3,0.2,0.5,0.4,0.6c0.2,0.1,0.4,0.2,0.7,0.2
		c0.3,0,0.6-0.1,0.8-0.2c0.3-0.2,0.4-0.4,0.6-0.6c0.1-0.3,0.2-0.6,0.2-1.1v-3.1h1v5.9H254.4z M256.4,32l1-0.2
		c0.1,0.4,0.2,0.7,0.5,0.9c0.3,0.2,0.6,0.3,1.1,0.3c0.5,0,0.8-0.1,1-0.3c0.2-0.2,0.3-0.4,0.3-0.7c0-0.2-0.1-0.4-0.3-0.5
		c-0.1-0.1-0.5-0.2-1-0.3c-0.7-0.2-1.2-0.3-1.5-0.5c-0.3-0.1-0.5-0.3-0.6-0.6c-0.1-0.2-0.2-0.5-0.2-0.8c0-0.3,0.1-0.5,0.2-0.7
		c0.1-0.2,0.3-0.4,0.5-0.6c0.2-0.1,0.4-0.2,0.6-0.3c0.3-0.1,0.6-0.1,0.9-0.1c0.5,0,0.9,0.1,1.2,0.2c0.3,0.1,0.6,0.3,0.8,0.5
		c0.2,0.2,0.3,0.5,0.3,0.9l-1,0.1c0-0.3-0.2-0.5-0.4-0.7c-0.2-0.2-0.5-0.3-0.9-0.3c-0.5,0-0.8,0.1-1,0.2c-0.2,0.2-0.3,0.3-0.3,0.5
		c0,0.1,0,0.2,0.1,0.3c0.1,0.1,0.2,0.2,0.4,0.3c0.1,0,0.4,0.1,0.9,0.3c0.7,0.2,1.2,0.3,1.5,0.5c0.3,0.1,0.5,0.3,0.7,0.5
		c0.2,0.2,0.2,0.5,0.2,0.8c0,0.3-0.1,0.6-0.3,0.9c-0.2,0.3-0.5,0.5-0.8,0.7c-0.4,0.2-0.8,0.2-1.2,0.2c-0.8,0-1.3-0.2-1.7-0.5
		C256.8,33.1,256.5,32.6,256.4,32z M264.6,32.9l0.1,0.9c-0.3,0.1-0.5,0.1-0.7,0.1c-0.4,0-0.6-0.1-0.8-0.2c-0.2-0.1-0.3-0.3-0.4-0.5
		c-0.1-0.2-0.1-0.6-0.1-1.2v-3.4h-0.7v-0.8h0.7v-1.5l1-0.6v2h1v0.8h-1v3.4c0,0.3,0,0.5,0.1,0.5c0,0.1,0.1,0.1,0.2,0.2
		c0.1,0,0.2,0.1,0.3,0.1C264.3,32.9,264.5,32.9,264.6,32.9z M269.6,31.9l1,0.1c-0.2,0.6-0.5,1.1-0.9,1.4c-0.4,0.3-1,0.5-1.7,0.5
		c-0.9,0-1.5-0.3-2-0.8c-0.5-0.5-0.8-1.3-0.8-2.2c0-1,0.3-1.7,0.8-2.3c0.5-0.5,1.2-0.8,2-0.8c0.8,0,1.4,0.3,1.9,0.8
		c0.5,0.5,0.7,1.3,0.7,2.2c0,0.1,0,0.1,0,0.3h-4.4c0,0.6,0.2,1.1,0.5,1.5c0.3,0.3,0.7,0.5,1.2,0.5c0.4,0,0.7-0.1,0.9-0.3
		C269.3,32.6,269.5,32.3,269.6,31.9z M266.4,30.3h3.3c0-0.5-0.2-0.9-0.4-1.1c-0.3-0.4-0.7-0.6-1.2-0.6c-0.5,0-0.8,0.2-1.1,0.5
		C266.6,29.3,266.4,29.8,266.4,30.3z M275.7,33.8V33c-0.4,0.6-0.9,0.9-1.6,0.9c-0.5,0-0.9-0.1-1.3-0.4c-0.4-0.3-0.7-0.6-0.9-1.1
		c-0.2-0.5-0.3-1-0.3-1.6c0-0.6,0.1-1.1,0.3-1.6c0.2-0.5,0.5-0.8,0.9-1.1c0.4-0.3,0.8-0.4,1.3-0.4c0.4,0,0.7,0.1,0.9,0.2
		c0.3,0.1,0.5,0.3,0.7,0.6v-2.9h1v8.1H275.7z M272.5,30.8c0,0.7,0.2,1.3,0.5,1.7c0.3,0.4,0.7,0.6,1.1,0.6c0.4,0,0.8-0.2,1.1-0.5
		c0.3-0.4,0.5-0.9,0.5-1.6c0-0.8-0.2-1.4-0.5-1.8c-0.3-0.4-0.7-0.6-1.1-0.6c-0.4,0-0.8,0.2-1.1,0.5
		C272.7,29.5,272.5,30.1,272.5,30.8z"/>
	<path class="st3" d="M280,33.8l1.4-6.7h0.8l-0.5,2.4c0.3-0.2,0.5-0.4,0.7-0.5c0.2-0.1,0.4-0.1,0.7-0.1c0.4,0,0.8,0.2,1.1,0.5
		c0.3,0.3,0.4,0.8,0.4,1.5c0,0.4-0.1,0.8-0.2,1.2c-0.1,0.4-0.3,0.7-0.4,0.9c-0.2,0.2-0.4,0.4-0.5,0.6c-0.2,0.1-0.4,0.3-0.6,0.3
		c-0.2,0.1-0.4,0.1-0.6,0.1c-0.3,0-0.6-0.1-0.8-0.3c-0.2-0.2-0.4-0.4-0.6-0.8l-0.2,0.9H280z M281.2,31.8l0,0.2
		c0,0.4,0.1,0.7,0.3,0.9c0.2,0.2,0.4,0.3,0.7,0.3c0.3,0,0.5-0.1,0.8-0.3c0.2-0.2,0.4-0.5,0.6-1c0.2-0.4,0.2-0.8,0.2-1.2
		c0-0.4-0.1-0.7-0.3-1c-0.2-0.2-0.4-0.3-0.7-0.3c-0.3,0-0.6,0.1-0.8,0.3c-0.2,0.2-0.4,0.6-0.6,1.1C281.3,31.2,281.2,31.5,281.2,31.8
		z M284.9,35.7l0-0.8c0.2,0,0.3,0.1,0.5,0.1c0.2,0,0.3,0,0.4-0.1c0.1-0.1,0.3-0.3,0.4-0.6l0.3-0.5l-0.8-4.9h0.8l0.4,2.5
		c0.1,0.5,0.1,1,0.2,1.5l2.2-3.9h0.9l-3.1,5.5c-0.3,0.5-0.6,0.9-0.8,1.1c-0.2,0.2-0.5,0.3-0.8,0.3C285.3,35.7,285.1,35.7,284.9,35.7
		z"/>
	<path class="st3" d="M260,17.7c1.8,0,3.2-0.5,4.2-1.6c1-1,1.5-2.4,1.5-4.3V2.1h-4.2v9.7c0,1.4-0.7,2.1-1.8,2.1
		c-0.9,0-1.6-0.5-2.4-1.4l-2.7,2.6C255.7,16.6,257.4,17.7,260,17.7 M269.6,17.5h4.3V2.1h-4.3V17.5z M277.9,17.5h4.2V9l6.6,8.4h3.7
		V2.1h-4.2v8.1l-6.3-8.1h-4V17.5z M296.4,17.5h5.8c5.5,0,8.8-3.3,8.8-7.7v0c0-4.4-3.2-7.6-8.7-7.6h-5.9V17.5z M300.6,13.7V5.9h1.7
		c2.5,0,4.2,1.4,4.2,3.9v0c0,2.5-1.7,3.9-4.2,3.9H300.6z M312.1,17.5h4.5l1.1-2.7h5.9l1.1,2.7h4.6L322.7,2h-4.1L312.1,17.5z
		 M318.9,11.4l1.7-4.4l1.7,4.4H318.9z M332,17.5h11.7v-3.7h-7.4V2.1H332V17.5z"/>
	<path class="st3" d="M369.8,29.6c0,1.4,0.5,2.4,1.6,3.2c1.1,0.8,2.5,1.2,4.4,1.2c1.8,0,3.2-0.4,4.2-1.2c1-0.8,1.5-1.8,1.5-3
		c0-1.2-0.4-2.1-1.2-2.7c-0.5-0.4-1.3-0.7-2.4-0.9l-2.4-0.5c-0.9-0.2-1.6-0.4-1.8-0.5c-0.4-0.2-0.7-0.6-0.7-1c0-0.5,0.2-0.9,0.7-1.2
		c0.5-0.3,1.1-0.4,1.8-0.4c0.7,0,1.3,0.1,1.7,0.3c0.7,0.3,1.1,0.9,1.1,1.7h2.8c-0.1-1.4-0.6-2.5-1.7-3.2c-1-0.7-2.3-1.1-3.8-1.1
		c-1.8,0-3.2,0.4-4.1,1.2c-0.9,0.8-1.4,1.7-1.4,2.9c0,1.3,0.5,2.2,1.4,2.8c0.6,0.4,1.6,0.7,3.1,1l1.5,0.3c0.9,0.2,1.5,0.4,1.9,0.6
		c0.4,0.2,0.6,0.6,0.6,1c0,0.7-0.4,1.2-1.2,1.5c-0.4,0.1-1,0.2-1.7,0.2c-1.2,0-2-0.3-2.5-0.8c-0.2-0.3-0.4-0.7-0.5-1.3H369.8z
		 M355.2,33.6h2.7v-9.3l5.8,9.3h2.9V20.5h-2.7v9.1l-5.6-9.1h-3.1V33.6z M338.9,33.6h3.1l0.9-2.7h5.2l0.9,2.7h3.2l-4.9-13.1h-3.3
		L338.9,33.6z M345.5,23.5l1.8,5.2h-3.6L345.5,23.5z M335.9,20.5H333v13.1h2.9V20.5z M324,20.5h-6.1v13.1h6.1c2.1,0,3.7-0.8,4.7-2.4
		c0.8-1.2,1.1-2.7,1.1-4.4c0-0.7-0.1-1.4-0.3-2.2c-0.2-0.7-0.5-1.5-1-2.1c-0.6-0.8-1.4-1.4-2.4-1.7C325.6,20.6,324.8,20.5,324,20.5z
		 M323.5,22.8c1.3,0,2.2,0.4,2.7,1.1c0.4,0.7,0.7,1.7,0.7,3.1c0,1-0.2,1.8-0.4,2.5c-0.5,1.3-1.5,1.9-2.9,1.9h-2.7v-8.6H323.5z
		 M302.6,33.6h2.7v-9.3l5.8,9.3h2.9V20.5h-2.7v9.1l-5.6-9.1h-3.1V33.6z M298.6,20.5h-2.9v13.1h2.9V20.5z"/>
	<path class="st3" d="M352.4,46.1c0.1,0.6,0.3,1,0.6,1.3c0.3,0.3,0.7,0.5,1.3,0.5c0.7,0,1.2-0.2,1.5-0.7c0.3-0.5,0.5-1,0.5-1.7
		c0-0.7-0.2-1.3-0.5-1.7c-0.3-0.5-0.8-0.7-1.5-0.7c-0.3,0-0.6,0-0.8,0.1c-0.4,0.1-0.7,0.4-0.9,0.8l-2.4-0.1l0.9-7.4h7.4v2.3H353
		l-0.5,2.9c0.4-0.3,0.7-0.4,1-0.5c0.4-0.1,0.9-0.2,1.4-0.2c1.1,0,2.1,0.4,2.9,1.1c0.8,0.8,1.2,1.8,1.2,3.3c0,1.2-0.4,2.4-1.2,3.3
		c-0.8,1-2,1.5-3.6,1.5c-1.3,0-2.3-0.3-3.2-1c-0.8-0.7-1.3-1.7-1.4-2.9H352.4z"/>
</g>
<g>
	<path class="st5" d="M168.4,10.1c8.6,0,15.7,6.8,15.9,15.4h6.1c-0.2-11.9-10-21.4-22-21.4c-7.3,0-13.8,3.5-17.8,8.9
		c-1.6,2.2-2.8,4.7-3.5,7.4c-0.4,1.6-0.7,3.4-0.7,5.1h6.1C152.7,16.9,159.7,10.1,168.4,10.1L168.4,10.1z"/>
	<path class="st3" d="M168.4,11.9c-4.7,0-8.8,2.2-11.3,5.7c-1,1.4-1.8,3-2.3,4.7c-0.3,1-0.4,2.1-0.4,3.2h5.7
		c0.1-4.5,3.8-8.1,8.4-8.1c4.6,0,8.3,3.6,8.4,8.1h5.7C182.3,17.9,176,11.9,168.4,11.9L168.4,11.9z"/>
	<path class="st3" d="M67.8,19c-0.1,0.7-0.7,1.2-1.4,1.2H41.5v0.3c0,2.7,2.2,5,5,5h21.9c2.8,0,5-2.2,5-5v-4
		c-0.3-2.4-2.3-4.3-4.8-4.4H48.4c-0.7,0-1.3-0.5-1.4-1.2v-0.2c0.1-0.7,0.7-1.2,1.4-1.2h25V9.2c0-2.7-2.2-5-5-5H46.5
		c-2.8,0-5,2.2-5,5v4c0.3,2.4,2.3,4.2,4.7,4.3h20.2c0.7,0,1.3,0.5,1.4,1.2V19L67.8,19z"/>
	<path class="st3" d="M30.6,20.3H6.3v0.3c0,2.7,2.2,5,5,5h21.9c2.8,0,5-2.2,5-5V9.2c0-2.7-2.2-5-5-5h-0.5v13.9
		C32.7,19.3,31.8,20.3,30.6,20.3L30.6,20.3z"/>
	<path class="st3" d="M82.1,18.2V4.3h-0.4c-2.8,0-5,2.2-5,5v11.4c0,2.7,2.2,5,5,5h21.9c2.8,0,5-2.2,5-5v-0.3H84.2
		C83.1,20.3,82.1,19.3,82.1,18.2L82.1,18.2z"/>
	<path class="st2" d="M168.2,10c8.7,0,15.7,6.9,15.9,15.5h6.1c-0.2-12-10-21.7-22.1-21.7c-7.3,0-13.8,3.6-17.8,9
		c-1.6,2.2-2.8,4.7-3.5,7.4c-0.4,1.7-0.7,3.4-0.7,5.2h6.1C152.5,16.9,159.5,10,168.2,10L168.2,10z"/>
	<path class="st3" d="M117.4,18.2V4.3H117c-2.8,0-5,2.2-5,5v11.4c0,2.7,2.2,5,5,5h21.9c2.8,0,5-2.2,5-5v-0.3h-24.4
		C118.3,20.3,117.4,19.3,117.4,18.2L117.4,18.2z"/>
	<g>
		<path class="st3" d="M70.4,38.3h1.4v10h-1.4V38.3z"/>
		<path class="st3" d="M78.1,38.3h1.6l5,8.1v-8.1H86v10h-1.5l-5.1-8.1v8.1h-1.3V38.3z"/>
		<path class="st3" d="M92.5,38.3h6.9v1.2h-5.6v3h4.9v1.2h-4.9v4.5h-1.4V38.3z"/>
		<path class="st3" d="M105.2,38.3h4.5c0.7,0,1.4,0.1,1.9,0.3c0.9,0.4,1.4,1.2,1.4,2.4c0,0.6-0.1,1.1-0.4,1.5
			c-0.2,0.4-0.6,0.7-1,0.9c0.4,0.2,0.7,0.4,0.9,0.6c0.2,0.3,0.3,0.7,0.3,1.3l0,1.3c0,0.4,0,0.7,0.1,0.9c0.1,0.3,0.2,0.5,0.4,0.6v0.2
			h-1.7c0-0.1-0.1-0.2-0.1-0.3c0-0.1-0.1-0.4-0.1-0.8l-0.1-1.7c0-0.7-0.3-1.1-0.7-1.3c-0.3-0.1-0.6-0.2-1.2-0.2h-3v4.3h-1.4V38.3z
			 M109.6,42.9c0.6,0,1.1-0.1,1.5-0.4c0.4-0.3,0.5-0.7,0.5-1.4c0-0.7-0.3-1.2-0.8-1.5c-0.3-0.1-0.6-0.2-1.1-0.2h-3.2v3.4H109.6z"/>
		<path class="st3" d="M122.2,38.3h1.5l3.6,10h-1.5l-1-3h-3.9l-1.1,3h-1.4L122.2,38.3z M124.4,44.2l-1.5-4.4l-1.6,4.4H124.4z"/>
	</g>
	<path class="st0" d="M158,43.2h-20.2 M58.9,43.2H38.7"/>
</g>
</svg>
