<svg xmlns="http://www.w3.org/2000/svg" width="423.742" height="52.145"><defs><clipPath id="a"><path transform="translate(-2 -2)" fill="none" d="M0 0h157.812v52.145H0z"/></clipPath><style>.d{fill:#ef7c00}.g{fill:#ec8022}.h{fill:#929294}</style></defs><path stroke-miterlimit="2.613" stroke="#575656" fill="none" d="M246.335 1.5v48.621"/><g clip-path="url(#a)" transform="translate(267.93 2)"><path class="d" d="M59.774 43.357l1.136-.064a2.078 2.078 0 00.149.83 1.176 1.176 0 00.547.56 1.913 1.913 0 00.931.219 1.75 1.75 0 001.115-.3.878.878 0 00.372-.7.849.849 0 00-.221-.553 3.552 3.552 0 00-1.115-.644 10.387 10.387 0 01-1.136-.536 1.849 1.849 0 01-.634-.6 1.475 1.475 0 01-.213-.794 1.75 1.75 0 01.621-1.344 2.512 2.512 0 011.74-.56 2.76 2.76 0 011.891.576 2 2 0 01.674 1.517l-1.1.077a1.285 1.285 0 00-.421-.951 1.634 1.634 0 00-1.121-.351 1.379 1.379 0 00-.906.268.764.764 0 00-.321.583.709.709 0 00.278.549 4.588 4.588 0 00.957.5 6.386 6.386 0 011.623.883 1.673 1.673 0 01.536 1.255 1.762 1.762 0 01-.3.963 2.067 2.067 0 01-.919.755 3.469 3.469 0 01-1.457.283 3.279 3.279 0 01-1.944-.567 2.021 2.021 0 01-.764-1.845m7.9-5.59l.268-1.276h1.121l-.268 1.276zm-1.647 7.862l1.389-6.629h1.124l-1.387 6.623zm2.848 0l1.389-6.629h1.03l-.238 1.157a5.416 5.416 0 011.259-.987 2.542 2.542 0 011.2-.31 1.785 1.785 0 011.276.438 1.532 1.532 0 01.463 1.17 6.133 6.133 0 01-.172 1.157l-.9 4h-1.121l.93-4.189a4.629 4.629 0 00.138-.9.678.678 0 00-.231-.534.981.981 0 00-.673-.206 2.284 2.284 0 00-1.574.621 3.927 3.927 0 00-1.013 2.131l-.643 3.08zm11.667-2.412l1.136.115a3.774 3.774 0 01-1.208 1.838 2.851 2.851 0 01-1.78.6 2.323 2.323 0 01-1.753-.7 2.69 2.69 0 01-.67-1.946 5.539 5.539 0 01.43-2.127 3.442 3.442 0 011.232-1.589 3.182 3.182 0 011.831-.544 2.332 2.332 0 011.691.6 2.118 2.118 0 01.623 1.594l-1.11.076a1.338 1.338 0 00-.366-.985 1.291 1.291 0 00-.947-.355 1.75 1.75 0 00-1.181.43 2.82 2.82 0 00-.783 1.3 5.453 5.453 0 00-.285 1.683 1.866 1.866 0 00.374 1.268 1.18 1.18 0 00.923.423 1.622 1.622 0 001.053-.417 2.736 2.736 0 00.79-1.267m6.691.166l1.1.1a3.339 3.339 0 01-1.091 1.551 3.015 3.015 0 01-2.033.733 2.755 2.755 0 01-1.351-.338 2.24 2.24 0 01-.938-.988 3.26 3.26 0 01-.321-1.474 4.7 4.7 0 01.5-2.1 3.591 3.591 0 011.3-1.512 3.233 3.233 0 011.731-.494 2.511 2.511 0 011.9.734 2.754 2.754 0 01.708 2 5.965 5.965 0 01-.087.993h-4.89a2.584 2.584 0 00-.026.349 2.092 2.092 0 00.43 1.421 1.345 1.345 0 001.049.489 2.036 2.036 0 001.147-.378 2.472 2.472 0 00.876-1.089m-3.295-1.66h3.731c0-.115.006-.2.006-.249a1.814 1.814 0 00-.425-1.293 1.443 1.443 0 00-1.1-.449 2.023 2.023 0 00-1.323.5 2.981 2.981 0 00-.893 1.5m16.001 6.161h-2.623v-9.922a8.993 8.993 0 01-3.388 2v-2.392a7.482 7.482 0 002.23-1.277 4.844 4.844 0 001.652-2.189h2.128zm4.023-3.184l2.545-.281a1.857 1.857 0 00.482 1.155 1.411 1.411 0 001.027.376 1.67 1.67 0 001.372-.753 6.468 6.468 0 00.721-3.114 3.133 3.133 0 01-2.476 1.149 3.7 3.7 0 01-2.788-1.248 4.549 4.549 0 01-1.171-3.248 4.61 4.61 0 011.238-3.359 4.48 4.48 0 016.576.338q1.335 1.617 1.337 5.319 0 3.761-1.388 5.43a4.479 4.479 0 01-3.618 1.669 3.8 3.8 0 01-2.59-.862 4.152 4.152 0 01-1.267-2.571m5.915-5.749a2.989 2.989 0 00-.584-1.969 1.713 1.713 0 00-1.346-.7 1.507 1.507 0 00-1.206.575 2.909 2.909 0 00-.482 1.877 3 3 0 00.523 1.946 1.638 1.638 0 001.3.619 1.618 1.618 0 001.274-.6 2.609 2.609 0 00.517-1.752m19.732-4.85a3.746 3.746 0 013.115 1.427q1.335 1.685 1.337 5.593t-1.347 5.605a3.737 3.737 0 01-3.1 1.407 3.921 3.921 0 01-3.225-1.541q-1.225-1.541-1.225-5.5 0-3.881 1.346-5.586a3.736 3.736 0 013.1-1.408m0 2.182a1.264 1.264 0 00-.836.307 2.029 2.029 0 00-.571 1.091 15.264 15.264 0 00-.268 3.44 15.242 15.242 0 00.239 3.324 2.354 2.354 0 00.6 1.206 1.262 1.262 0 00.832.3 1.278 1.278 0 00.84-.306 2.053 2.053 0 00.568-1.091 15.138 15.138 0 00.268-3.433 15.2 15.2 0 00-.24-3.321 2.364 2.364 0 00-.6-1.209 1.257 1.257 0 00-.833-.307"/><path d="M20.393 6.595H.333v35.1h52.781m87.721 0h12.643v-35.1h-44.987" stroke-miterlimit="2.613" stroke="#575656" fill="none"/><path class="d" d="M7.248 31.758v-7.143H4.581v-.95h6.409v.95H8.322v7.143zm4.291 0v-5.866h.893v.9a2.406 2.406 0 01.633-.823 1.1 1.1 0 01.638-.2 1.979 1.979 0 011.024.314l-.355.918a1.463 1.463 0 00-.723-.2.942.942 0 00-.582.2 1.054 1.054 0 00-.367.543 3.828 3.828 0 00-.166 1.159v3.065zm7.607 0v-.872a2.136 2.136 0 01-1.855 1 2.378 2.378 0 01-.967-.2 1.616 1.616 0 01-.667-.5 1.868 1.868 0 01-.3-.737 5.108 5.108 0 01-.061-.927v-3.63h.994v3.246a5.863 5.863 0 00.06 1.048 1.025 1.025 0 00.4.614 1.218 1.218 0 00.748.224 1.619 1.619 0 00.836-.228 1.282 1.282 0 00.554-.624 3.143 3.143 0 00.162-1.144v-3.136h.988v5.866zm2.059-1.752l.983-.158a1.376 1.376 0 00.462.906 1.618 1.618 0 001.058.314 1.56 1.56 0 001.019-.278.834.834 0 00.332-.654.6.6 0 00-.3-.53 4.521 4.521 0 00-1.017-.337 9.323 9.323 0 01-1.513-.475 1.451 1.451 0 01-.857-1.342 1.512 1.512 0 01.179-.725 1.616 1.616 0 01.488-.554 2.086 2.086 0 01.631-.288 3.009 3.009 0 01.858-.119 3.344 3.344 0 011.209.2 1.645 1.645 0 01.771.539 2.13 2.13 0 01.341.912l-.972.135a1.083 1.083 0 00-.383-.716 1.381 1.381 0 00-.895-.256 1.617 1.617 0 00-.974.226.661.661 0 00-.292.529.554.554 0 00.121.349.883.883 0 00.381.264c.1.038.39.122.876.254a12.294 12.294 0 011.469.46 1.5 1.5 0 01.656.52 1.44 1.44 0 01.239.85 1.654 1.654 0 01-.29.932 1.891 1.891 0 01-.837.679 3.055 3.055 0 01-1.238.239 2.769 2.769 0 01-1.743-.473 2.2 2.2 0 01-.765-1.4m8.206.865l.136.878a3.714 3.714 0 01-.748.089 1.69 1.69 0 01-.835-.176.963.963 0 01-.418-.451 3.58 3.58 0 01-.12-1.175v-3.374h-.735v-.769h.735v-1.455l.994-.6v2.048h.995v.776h-.995v3.436a1.712 1.712 0 00.053.548.415.415 0 00.169.194.675.675 0 00.339.071 3.178 3.178 0 00.433-.039m4.983-1.012l1.029.136a2.488 2.488 0 01-.9 1.392 2.7 2.7 0 01-1.675.5 2.671 2.671 0 01-2.034-.792 3.085 3.085 0 01-.752-2.217 3.23 3.23 0 01.759-2.291 2.57 2.57 0 011.972-.816 2.5 2.5 0 011.915.8 3.18 3.18 0 01.744 2.249c0 .058 0 .147-.006.264h-4.363a2.249 2.249 0 00.547 1.477 1.624 1.624 0 001.222.512 1.508 1.508 0 00.93-.288 1.907 1.907 0 00.612-.922m-3.256-1.602h3.267a1.985 1.985 0 00-.375-1.11 1.518 1.518 0 00-1.228-.574 1.574 1.574 0 00-1.149.457 1.827 1.827 0 00-.515 1.227m9.327 3.493v-.744a1.823 1.823 0 01-1.639.869 2.281 2.281 0 01-1.287-.386 2.544 2.544 0 01-.912-1.075 3.727 3.727 0 01-.322-1.591 4.177 4.177 0 01.292-1.59 2.308 2.308 0 01.878-1.093 2.333 2.333 0 011.305-.381 1.951 1.951 0 01.944.224 1.976 1.976 0 01.672.584v-2.91h1v8.093zm-3.142-2.926a2.524 2.524 0 00.477 1.681 1.432 1.432 0 001.122.556 1.41 1.41 0 001.11-.531 2.444 2.444 0 00.456-1.622 2.732 2.732 0 00-.466-1.761 1.428 1.428 0 00-1.145-.562 1.383 1.383 0 00-1.11.539 2.664 2.664 0 00-.444 1.7m7.448 2.938l1.413-6.745h.828l-.51 2.411a2.853 2.853 0 01.7-.511 1.511 1.511 0 01.653-.149 1.414 1.414 0 011.11.51 2.188 2.188 0 01.444 1.482 3.735 3.735 0 01-.179 1.186 3.335 3.335 0 01-.444.9 2.812 2.812 0 01-.546.584 2.192 2.192 0 01-.58.325 1.637 1.637 0 01-.568.108 1.414 1.414 0 01-.831-.251 1.627 1.627 0 01-.559-.77l-.2.917zm1.228-2l-.006.156a1.366 1.366 0 00.291.945.93.93 0 00.722.323 1.167 1.167 0 00.78-.306 2.194 2.194 0 00.583-.953 3.613 3.613 0 00.228-1.195 1.436 1.436 0 00-.287-.955.9.9 0 00-.713-.34 1.143 1.143 0 00-.8.347 2.626 2.626 0 00-.611 1.069 2.956 2.956 0 00-.184.909m3.692 3.88l.047-.787a1.856 1.856 0 00.5.074.682.682 0 00.412-.114 1.915 1.915 0 00.443-.568l.267-.476-.813-4.9h.819l.367 2.458q.111.728.189 1.456l2.185-3.914h.862l-3.112 5.529a3.546 3.546 0 01-.8 1.074 1.3 1.3 0 01-.8.264 1.7 1.7 0 01-.565-.1m-24.888-17.92a5.784 5.784 0 004.211-1.558 5.7 5.7 0 001.514-4.321V.11h-4.234v9.716c0 1.426-.68 2.149-1.755 2.149a3.1 3.1 0 01-2.39-1.425l-2.742 2.588a6.242 6.242 0 005.4 2.588m9.571-.263h4.277V.11h-4.286zm8.321 0h4.211V7.04l6.558 8.422H57.2V.11h-4.215v8.115L46.673.11h-3.97zm18.454 0h5.834c5.527 0 8.751-3.29 8.751-7.721V7.7c0-4.43-3.18-7.589-8.663-7.589h-5.927zm4.255-3.772V3.882h1.732c2.544 0 4.233 1.426 4.233 3.882v.044c0 2.478-1.689 3.882-4.233 3.882zm11.435 3.772h4.474l1.1-2.742h5.921l1.119 2.742h4.562L87.479 0h-4.1zm6.821-6.053l1.733-4.364 1.711 4.364zm13.08 6.053h11.69v-3.729h-7.435V.11h-4.255z"/><path d="M134.584 27.555a3.811 3.811 0 001.572 3.226 7.244 7.244 0 004.363 1.167 6.6 6.6 0 004.181-1.188 3.686 3.686 0 001.479-2.984 3.117 3.117 0 00-1.247-2.694 6.374 6.374 0 00-2.432-.95l-2.446-.543a7.968 7.968 0 01-1.848-.547 1.111 1.111 0 01-.684-1.038 1.387 1.387 0 01.684-1.2 3.687 3.687 0 011.848-.418 4.069 4.069 0 011.732.33 1.88 1.88 0 011.131 1.673h2.818a3.848 3.848 0 00-1.655-3.185 6.548 6.548 0 00-3.811-1.095 6.119 6.119 0 00-4.071 1.167 3.712 3.712 0 00-1.379 2.932 3.124 3.124 0 001.4 2.824 9.729 9.729 0 003.072 1.017l1.5.31a7.117 7.117 0 011.947.619 1.115 1.115 0 01.623 1 1.535 1.535 0 01-1.247 1.513 5.647 5.647 0 01-1.715.222 3.3 3.3 0 01-2.51-.805 2.856 2.856 0 01-.524-1.347zm-14.659 4.062h2.7v-9.343l5.764 9.343h2.9V18.506h-2.7v9.142l-5.6-9.142h-3.056zm-16.231 0h3.06l.932-2.695h5.157l.916 2.695h3.172l-4.942-13.111h-3.31zm6.614-10.107l1.754 5.152h-3.58zm-9.639-3h-2.9v13.108h2.9zm-11.928 0H82.69v13.107h6.051a5.166 5.166 0 004.7-2.442 8.212 8.212 0 001.131-4.445 10.027 10.027 0 00-.27-2.163 5.771 5.771 0 00-.993-2.116 4.717 4.717 0 00-2.394-1.657 8.172 8.172 0 00-2.178-.289m-.486 2.256a2.925 2.925 0 012.664 1.079 5.89 5.89 0 01.679 3.092 6.564 6.564 0 01-.447 2.514 2.924 2.924 0 01-2.9 1.915h-2.725v-8.6zM67.369 31.617h2.7v-9.343l5.764 9.343h2.9V18.506h-2.7v9.142l-5.6-9.142h-3.056zm-3.958-13.111h-2.9v13.112h2.9z" fill="#575656"/><path class="d" d="M117.129 44.118a2.555 2.555 0 00.606 1.337 1.716 1.716 0 001.3.47 1.753 1.753 0 001.5-.7 2.841 2.841 0 00.518-1.744 3.012 3.012 0 00-.486-1.743 1.686 1.686 0 00-1.5-.711 2.538 2.538 0 00-.839.121 1.656 1.656 0 00-.94.826l-2.381-.111.949-7.449h7.437v2.251h-5.519l-.483 2.947a5.732 5.732 0 01.959-.53 4.045 4.045 0 011.4-.212 4.072 4.072 0 014.169 4.4 5.13 5.13 0 01-1.2 3.337 4.361 4.361 0 01-3.591 1.47 4.769 4.769 0 01-3.163-1.032 4.016 4.016 0 01-1.378-2.931z"/></g><path class="g" d="M194.616 11.144a18.683 18.683 0 0118.754 18.14h7.24a26.054 26.054 0 00-46.976-14.74 25.509 25.509 0 00-4.182 8.691 25.848 25.848 0 00-.863 6.046h7.238a18.693 18.693 0 0118.766-18.137"/><path class="h" d="M194.617 13.204a16.611 16.611 0 00-13.38 6.73 16.245 16.245 0 00-2.661 5.537 16.513 16.513 0 00-.536 3.775h6.7a9.873 9.873 0 0119.738 0h6.7a16.519 16.519 0 00-16.561-16.042m-122.049 8.44a1.725 1.725 0 01-1.727 1.468H41.464v.371a5.889 5.889 0 005.914 5.857h25.819a5.893 5.893 0 005.909-5.856v-4.75a5.893 5.893 0 00-5.633-5.185H49.661a1.726 1.726 0 01-1.683-1.468v-.259a1.727 1.727 0 011.684-1.468h29.446v-.285a5.892 5.892 0 00-5.909-5.866H47.378a5.89 5.89 0 00-5.916 5.866v4.776a5.863 5.863 0 005.545 5.123h23.877a1.729 1.729 0 011.727 1.468zm-43.872 1.459h-28.7v.381a5.89 5.89 0 005.916 5.856h25.825a5.9 5.9 0 005.916-5.856V10.069a5.9 5.9 0 00-5.916-5.866h-.562v16.412a2.47 2.47 0 01-2.479 2.453m60.716-2.418V4.238h-.527a5.891 5.891 0 00-5.916 5.864v13.381a5.89 5.89 0 005.916 5.856h25.819a5.89 5.89 0 005.94-5.839v-.388H91.891a2.472 2.472 0 01-2.479-2.453m41.603-.009V4.238h-.519a5.892 5.892 0 00-5.918 5.864v13.381a5.893 5.893 0 005.918 5.856h25.819a5.89 5.89 0 005.926-5.856v-.371h-28.73a2.47 2.47 0 01-2.5-2.444v-.018"/><path class="g" d="M58.805 44.511a3.664 3.664 0 01-2.245.622h-2.065a.093.093 0 00-.1.106v3.478a.126.126 0 01-.142.142h-.612a.114.114 0 01-.136-.132v-8.445a.159.159 0 01.029-.112.139.139 0 01.1-.029h2.809a3.942 3.942 0 012.333.618 2.5 2.5 0 01.029 3.753zm-.676-3.266a3.008 3.008 0 00-1.721-.411h-1.88c-.094 0-.14.043-.14.129v3.326c0 .094.035.14.1.14h2a2.7 2.7 0 001.646-.441 1.614 1.614 0 00.587-1.38 1.539 1.539 0 00-.59-1.363zm11.072-1.076a.147.147 0 01.1-.029h.635a.122.122 0 01.094.029.194.194 0 01.023.112v7.754a.136.136 0 00.023.094.139.139 0 00.094.023h4.148a.162.162 0 01.094.019q.023.016.023.088v.493c0 .071-.039.106-.117.106h-5a.125.125 0 01-.142-.142v-8.434a.167.167 0 01.025-.113zm19.262 8.091a3.225 3.225 0 01-2.28.716 3.073 3.073 0 01-2.308-.764 3.3 3.3 0 01-.735-2.36v-5.558c0-.1.04-.154.117-.154h.635a.116.116 0 01.142.142v5.8a1.937 1.937 0 002.208 2.174 1.963 1.963 0 002.233-2.209v-5.778c0-.086.04-.129.117-.129h.518c.079 0 .117.043.117.129v5.77a2.915 2.915 0 01-.764 2.221zm10.727.446v-8.424a.167.167 0 01.029-.112.147.147 0 01.1-.029h.787a.259.259 0 01.123.025.155.155 0 01.065.094l2.82 7.191c.04.079.071.117.094.117s.055-.039.094-.117l2.844-7.18a.15.15 0 01.153-.129h.846c.079 0 .117.048.117.142v8.425a.135.135 0 01-.153.153h-.587a.115.115 0 01-.142-.142v-6.935q0-.046-.023-.042a.058.058 0 00-.035.042l-2.726 6.932a.194.194 0 01-.2.142h-.47a.315.315 0 01-.146-.029.227.227 0 01-.088-.1l-2.667-6.873c-.009-.039-.02-.059-.035-.059s-.025.02-.025.059v6.87a.139.139 0 01-.029.1.16.16 0 01-.111.029h-.493c-.095.003-.142-.048-.142-.15zm18.153.036v-8.448a.2.2 0 01.029-.119.144.144 0 01.112-.035h2.584a4.059 4.059 0 012.356.582 1.92 1.92 0 01.829 1.675 1.963 1.963 0 01-1.539 1.961.053.053 0 000 .106 2.323 2.323 0 011.3.71 2.008 2.008 0 01.451 1.357 1.965 1.965 0 01-.857 1.744 4.408 4.408 0 01-2.481.582h-2.667a.1.1 0 01-.117-.115zm2.867-4.63a2.946 2.946 0 001.527-.37 1.339 1.339 0 00.622-1.251 1.416 1.416 0 00-.61-1.253 3 3 0 00-1.7-.416h-1.681a.192.192 0 00-.1.023.107.107 0 00-.035.094v3.031c0 .094.035.142.106.142zm-.142 4.066a3.547 3.547 0 001.875-.388 1.368 1.368 0 00.6-1.246 1.48 1.48 0 00-.635-1.32 2.99 2.99 0 00-1.7-.43h-1.833q-.153 0-.153.129v3.114c0 .094.035.142.106.142zm13.819-8.038a.124.124 0 01.094.029.194.194 0 01.023.112v8.4a.142.142 0 01-.177.177h-.541a.213.213 0 01-.128-.029.139.139 0 01-.035-.112v-8.435a.159.159 0 01.029-.112.144.144 0 01.1-.029zm16.52 0a.124.124 0 01.094.029.181.181 0 01.023.1v8.458a.114.114 0 01-.129.129h-.47a.2.2 0 01-.177-.083l-4.735-6.932c-.04-.055-.072-.077-.1-.071s-.04.035-.04.083v6.874c0 .086-.048.129-.142.129h-.505a.162.162 0 01-.111-.029.159.159 0 01-.029-.112v-8.433a.159.159 0 01.029-.112.141.141 0 01.1-.029h.493a.313.313 0 01.123.018.223.223 0 01.088.088l4.653 6.838c.04.048.074.071.106.071a.061.061 0 00.046-.029.119.119 0 00.023-.075v-6.783c0-.086.04-.129.119-.129zm11.459 8.301a3.392 3.392 0 01-1.234-1.533 6.005 6.005 0 01-.428-2.373 6.085 6.085 0 01.441-2.427 3.278 3.278 0 013.166-2.086 3.334 3.334 0 011.439.324 3.238 3.238 0 011.134.858 2.208 2.208 0 01.528 1.134v.069a.075.075 0 01-.069.083l-.67.1h-.023c-.04 0-.068-.031-.083-.094a2.091 2.091 0 00-.769-1.263 2.3 2.3 0 00-1.5-.51 2.277 2.277 0 00-1.978.969 4.733 4.733 0 00-.689 2.767 4.842 4.842 0 00.689 2.836 2.309 2.309 0 002 .958 2.413 2.413 0 001.328-.353 2.329 2.329 0 00.834-.887 2.534 2.534 0 00.305-1.086v-.81c0-.063-.039-.094-.117-.094h-2.045c-.071 0-.1-.032-.1-.094v-.411c0-.063.026-.094.082-.094h2.867c.085 0 .128.039.128.117v4.171c0 .094-.043.142-.128.142h-.248a.27.27 0 01-.128-.025.129.129 0 01-.06-.1l-.069-1.151c-.008-.04-.023-.06-.042-.06s-.042.02-.065.06a2.832 2.832 0 01-1.012 1.008 3 3 0 01-1.573.388 3.362 3.362 0 01-1.911-.533z"/><path class="h" d="M174.804 44.296h18.97v.407h-18.97zm-147.969 0h18.97v.407h-18.97z"/></svg>