<?xml version="1.0" encoding="utf-8"?>
<!-- Generator: Adobe Illustrator 25.0.0, SVG Export Plug-In . SVG Version: 6.00 Build 0)  -->
<svg version="1.1" id="Layer_1" xmlns="http://www.w3.org/2000/svg" xmlns:xlink="http://www.w3.org/1999/xlink" x="0px" y="0px"
	 viewBox="0 0 423.7 52.1" style="enable-background:new 0 0 423.7 52.1;" xml:space="preserve">
<style type="text/css">
	.st0{fill:none;stroke:#FFFFFF;stroke-miterlimit:2.613;}
	.st1{fill:none;stroke:#575656;stroke-miterlimit:2.613;}
	.st2{fill:#EC8022;}
	.st3{fill:#FFFFFF;}
	.st4{fill:none;stroke:#FFFFFF;stroke-width:0.9962;stroke-miterlimit:2.613;}
</style>
<path class="st0" d="M246.3,1.5v48.6"/>
<path class="st1" d="M0,0"/>
<path class="st1" d="M0,0"/>
<path class="st1" d="M0,0"/>
<g id="XMLID_4_">
	<g id="XMLID_59_">
		<path id="XMLID_87_" class="st2" d="M195.6,10.5c10.2,0,18.6,8,18.9,18.2h7.3c-0.4-14.5-12.5-25.8-27-25.4
			c-8,0.2-15.5,4.1-20.3,10.6c-1.9,2.6-3.4,5.6-4.2,8.7c-0.5,2-0.8,4-0.9,6.1h7.3C177.1,18.6,185.4,10.5,195.6,10.5"/>
		<path id="XMLID_84_" class="st3" d="M195.6,12.6c-5.3,0-10.3,2.5-13.5,6.8c-1.2,1.7-2.1,3.6-2.7,5.6c-0.3,1.2-0.5,2.5-0.5,3.8h6.7
			c0.2-5.5,4.7-9.8,10.2-9.6c5.3,0.2,9.5,4.4,9.6,9.6h6.7C212,19.7,204.6,12.6,195.6,12.6"/>
		<path id="XMLID_81_" class="st3" d="M73,21.1c-0.1,0.9-0.9,1.5-1.7,1.5H41.7v0.4c0,3.3,2.7,5.9,5.9,5.9h26c3.3,0,5.9-2.6,5.9-5.9
			v-4.8c-0.3-2.9-2.7-5.1-5.7-5.2H49.9c-0.8,0-1.6-0.6-1.7-1.5v-0.3c0.1-0.8,0.8-1.5,1.7-1.5h29.6V9.4c0-3.3-2.7-5.9-5.9-5.9h-26
			c-3.3,0-5.9,2.6-5.9,5.9v4.8c0.4,2.8,2.7,5,5.6,5.1h24c0.9,0,1.6,0.6,1.7,1.5L73,21.1z"/>
		<path id="XMLID_76_" class="st3" d="M28.8,22.5H0v0.4c0,3.3,2.7,5.9,5.9,5.9h26c3.3,0,5.9-2.6,5.9-5.9V9.4c0-3.3-2.7-5.9-5.9-5.9
			h-0.6V20C31.3,21.4,30.2,22.5,28.8,22.5"/>
		<path id="XMLID_66_" class="st3" d="M89.9,20.1V3.6h-0.5c-3.3,0-5.9,2.6-5.9,5.9v13.5c0,3.3,2.7,5.9,5.9,5.9h26
			c3.3,0,5.9-2.6,6-5.9v0v-0.4H92.4C91,22.5,89.9,21.4,89.9,20.1"/>
		<path id="XMLID_60_" class="st3" d="M131.7,20.1V3.6h-0.5c-3.3,0-5.9,2.6-5.9,5.9v13.5c0,3.3,2.7,5.9,5.9,5.9h26
			c3.3,0,5.9-2.6,6-5.9v0v-0.4h-28.9C132.8,22.6,131.7,21.5,131.7,20.1L131.7,20.1"/>
	</g>
	<g id="XMLID_16_">
		<g id="XMLID_24_">
			<path id="XMLID_50_" class="st3" d="M59.1,44.1c-0.6,0.4-1.3,0.6-2.3,0.6h-2.1c-0.1,0-0.1,0-0.1,0.1v3.5c0,0.1,0,0.1-0.1,0.1
				h-0.6c-0.1,0-0.1,0-0.1-0.1v-8.5c0-0.1,0-0.1,0-0.1c0,0,0.1,0,0.1,0h2.8c1,0,1.8,0.2,2.3,0.6c0.6,0.4,0.9,1,0.9,1.9
				C60,43,59.7,43.6,59.1,44.1z M58.4,40.8c-0.4-0.3-1-0.4-1.7-0.4h-1.9c-0.1,0-0.1,0-0.1,0.1v3.3c0,0.1,0,0.1,0.1,0.1h2
				c0.7,0,1.3-0.1,1.7-0.4c0.4-0.3,0.6-0.8,0.6-1.4C59,41.5,58.8,41,58.4,40.8z"/>
			<path id="XMLID_45_" class="st3" d="M69.6,39.7c0,0,0.1,0,0.1,0h0.6c0,0,0.1,0,0.1,0c0,0,0,0.1,0,0.1v7.8c0,0,0,0.1,0,0.1
				c0,0,0,0,0.1,0h4.2c0,0,0.1,0,0.1,0c0,0,0,0,0,0.1v0.5c0,0.1,0,0.1-0.1,0.1h-5c-0.1,0-0.1,0-0.1-0.1v-8.5
				C69.5,39.7,69.5,39.7,69.6,39.7z"/>
			<path id="XMLID_43_" class="st3" d="M88.9,47.8c-0.5,0.5-1.3,0.7-2.3,0.7c-1.1,0-1.8-0.3-2.3-0.8s-0.7-1.3-0.7-2.4v-5.6
				c0-0.1,0-0.2,0.1-0.2h0.6c0.1,0,0.1,0,0.1,0c0,0,0,0.1,0,0.1v5.8c0,1.5,0.7,2.2,2.2,2.2c1.5,0,2.2-0.7,2.2-2.2v-5.8
				c0-0.1,0-0.1,0.1-0.1h0.5c0.1,0,0.1,0,0.1,0.1v5.8C89.7,46.6,89.4,47.3,88.9,47.8z"/>
			<path id="XMLID_40_" class="st3" d="M99.7,48.3v-8.5c0-0.1,0-0.1,0-0.1c0,0,0.1,0,0.1,0h0.8c0.1,0,0.1,0,0.1,0c0,0,0,0,0.1,0.1
				l2.8,7.2c0,0.1,0.1,0.1,0.1,0.1s0.1,0,0.1-0.1l2.9-7.2c0-0.1,0.1-0.1,0.2-0.1h0.9c0.1,0,0.1,0,0.1,0.1v8.5c0,0.1-0.1,0.2-0.2,0.2
				h-0.6c-0.1,0-0.1,0-0.1,0c0,0,0-0.1,0-0.1v-7c0,0,0,0,0,0c0,0,0,0,0,0l-2.7,7c0,0.1-0.1,0.1-0.2,0.1h-0.5c-0.1,0-0.1,0-0.1,0
				c0,0-0.1-0.1-0.1-0.1l-2.7-6.9c0,0,0-0.1,0-0.1c0,0,0,0,0,0.1v6.9c0,0,0,0.1,0,0.1c0,0-0.1,0-0.1,0h-0.5
				C99.8,48.4,99.7,48.4,99.7,48.3z"/>
			<path id="XMLID_32_" class="st3" d="M118,48.3v-8.5c0-0.1,0-0.1,0-0.1c0,0,0.1,0,0.1,0h2.6c1,0,1.8,0.2,2.4,0.6s0.8,1,0.8,1.7
				c0,1-0.5,1.6-1.5,2c0,0,0,0,0,0.1s0,0,0,0.1c0.6,0.1,1,0.4,1.3,0.7c0.3,0.4,0.5,0.8,0.5,1.4c0,0.8-0.3,1.4-0.9,1.8
				c-0.6,0.4-1.4,0.6-2.5,0.6h-2.7C118,48.4,118,48.4,118,48.3z M120.8,43.7c0.6,0,1.1-0.1,1.5-0.4c0.4-0.2,0.6-0.7,0.6-1.3
				c0-0.6-0.2-1-0.6-1.3s-1-0.4-1.7-0.4H119c0,0-0.1,0-0.1,0s0,0,0,0.1v3c0,0.1,0,0.1,0.1,0.1H120.8z M120.7,47.7
				c0.9,0,1.5-0.1,1.9-0.4c0.4-0.3,0.6-0.7,0.6-1.3c0-0.6-0.2-1-0.6-1.3c-0.4-0.3-1-0.4-1.7-0.4H119c-0.1,0-0.2,0-0.2,0.1v3.1
				c0,0.1,0,0.1,0.1,0.1H120.7z"/>
			<path id="XMLID_30_" class="st3" d="M134.6,39.7C134.6,39.7,134.7,39.7,134.6,39.7c0.1,0,0.1,0.1,0.1,0.1v8.4c0,0.1,0,0.1,0,0.1
				c0,0-0.1,0-0.1,0H134c-0.1,0-0.1,0-0.1,0c0,0,0-0.1,0-0.1v-8.5c0-0.1,0-0.1,0-0.1c0,0,0.1,0,0.1,0H134.6z"/>
			<path id="XMLID_27_" class="st3" d="M151.2,39.7C151.2,39.7,151.3,39.7,151.2,39.7c0.1,0,0.1,0.1,0.1,0.1v8.5
				c0,0.1,0,0.1-0.1,0.1h-0.4h-0.1c-0.1,0-0.1,0-0.2-0.1l-4.8-7c0-0.1-0.1-0.1-0.1-0.1c0,0,0,0,0,0.1v6.9c0,0.1,0,0.1-0.1,0.1H145
				c-0.1,0-0.1,0-0.1,0c0,0,0-0.1,0-0.1v-8.5c0-0.1,0-0.1,0-0.1c0,0,0.1,0,0.1,0h0.5c0.1,0,0.1,0,0.1,0c0,0,0.1,0,0.1,0.1l4.7,6.9
				c0,0,0.1,0.1,0.1,0.1c0,0,0,0,0,0c0,0,0,0,0-0.1v-6.8c0-0.1,0-0.1,0.1-0.1H151.2z"/>
			<path id="XMLID_25_" class="st3" d="M162.7,48c-0.5-0.4-1-0.9-1.2-1.5c-0.3-0.7-0.4-1.5-0.4-2.4c0-0.9,0.1-1.8,0.4-2.4
				c0.3-0.7,0.7-1.2,1.3-1.6c0.5-0.4,1.2-0.5,1.9-0.5c0.5,0,1,0.1,1.4,0.3c0.5,0.2,0.8,0.5,1.1,0.9s0.5,0.7,0.5,1.1v0.1
				c0,0,0,0.1-0.1,0.1l-0.7,0.1h0c0,0-0.1,0-0.1-0.1c-0.1-0.5-0.4-0.9-0.8-1.3c-0.4-0.3-0.9-0.5-1.5-0.5c-0.9,0-1.5,0.3-2,1
				c-0.5,0.6-0.7,1.6-0.7,2.8c0,1.3,0.2,2.2,0.7,2.9c0.5,0.6,1.1,1,2,1c0.5,0,1-0.1,1.3-0.4c0.4-0.2,0.6-0.5,0.8-0.9
				c0.2-0.4,0.3-0.7,0.3-1.1v-0.8v0c0-0.1,0-0.1-0.1-0.1H165c-0.1,0-0.1,0-0.1-0.1v-0.4c0-0.1,0-0.1,0.1-0.1h2.9
				c0.1,0,0.1,0,0.1,0.1v4.2c0,0.1,0,0.1-0.1,0.1h-0.2c-0.1,0-0.1,0-0.1,0c0,0-0.1-0.1-0.1-0.1l-0.1-1.2c0,0,0-0.1,0-0.1
				c0,0,0,0-0.1,0.1c-0.2,0.4-0.6,0.8-1,1c-0.4,0.3-1,0.4-1.6,0.4C163.9,48.5,163.3,48.4,162.7,48z"/>
		</g>
	</g>
</g>
<g>
	<path class="st3" d="M327.7,45.4l1.1-0.1c0,0.3,0,0.6,0.1,0.8c0.1,0.2,0.3,0.4,0.5,0.6c0.3,0.1,0.6,0.2,0.9,0.2
		c0.5,0,0.9-0.1,1.1-0.3c0.2-0.2,0.4-0.4,0.4-0.7c0-0.2-0.1-0.4-0.2-0.6c-0.2-0.2-0.5-0.4-1.1-0.6c-0.6-0.3-1-0.4-1.1-0.5
		c-0.3-0.2-0.5-0.4-0.6-0.6c-0.1-0.2-0.2-0.5-0.2-0.8c0-0.5,0.2-1,0.6-1.3c0.4-0.4,1-0.6,1.7-0.6c0.8,0,1.5,0.2,1.9,0.6
		c0.4,0.4,0.7,0.9,0.7,1.5l-1.1,0.1c0-0.4-0.2-0.7-0.4-1c-0.3-0.2-0.6-0.4-1.1-0.4c-0.4,0-0.7,0.1-0.9,0.3c-0.2,0.2-0.3,0.4-0.3,0.6
		c0,0.2,0.1,0.4,0.3,0.5c0.1,0.1,0.4,0.3,1,0.5c0.9,0.4,1.4,0.7,1.6,0.9c0.4,0.3,0.5,0.8,0.5,1.3c0,0.3-0.1,0.6-0.3,1
		c-0.2,0.3-0.5,0.6-0.9,0.8c-0.4,0.2-0.9,0.3-1.5,0.3c-0.8,0-1.4-0.2-1.9-0.6C327.9,46.8,327.7,46.2,327.7,45.4 M335.6,39.8l0.3-1.3
		h1.1l-0.3,1.3H335.6z M334,47.6l1.4-6.6h1.1l-1.4,6.6H334z M336.8,47.6l1.4-6.6h1l-0.2,1.2c0.4-0.5,0.9-0.8,1.3-1
		c0.4-0.2,0.8-0.3,1.2-0.3c0.5,0,1,0.1,1.3,0.4c0.3,0.3,0.5,0.7,0.5,1.2c0,0.2-0.1,0.6-0.2,1.2l-0.9,4H341l0.9-4.2
		c0.1-0.4,0.1-0.7,0.1-0.9c0-0.2-0.1-0.4-0.2-0.5c-0.2-0.1-0.4-0.2-0.7-0.2c-0.6,0-1.1,0.2-1.6,0.6c-0.5,0.4-0.8,1.1-1,2.1l-0.6,3.1
		H336.8z M348.5,45.2l1.1,0.1c-0.3,0.8-0.7,1.4-1.2,1.8c-0.5,0.4-1.1,0.6-1.8,0.6c-0.7,0-1.3-0.2-1.8-0.7c-0.4-0.5-0.7-1.1-0.7-1.9
		c0-0.7,0.1-1.4,0.4-2.1c0.3-0.7,0.7-1.2,1.2-1.6c0.5-0.4,1.1-0.5,1.8-0.5c0.7,0,1.3,0.2,1.7,0.6c0.4,0.4,0.6,0.9,0.6,1.6l-1.1,0.1
		c0-0.4-0.1-0.7-0.4-1c-0.2-0.2-0.6-0.4-0.9-0.4c-0.5,0-0.8,0.1-1.2,0.4c-0.3,0.3-0.6,0.7-0.8,1.3c-0.2,0.6-0.3,1.1-0.3,1.7
		c0,0.6,0.1,1,0.4,1.3c0.2,0.3,0.6,0.4,0.9,0.4c0.4,0,0.7-0.1,1.1-0.4C348,46.2,348.3,45.8,348.5,45.2z M355.2,45.4l1.1,0.1
		c-0.2,0.5-0.5,1.1-1.1,1.6c-0.6,0.5-1.2,0.7-2,0.7c-0.5,0-0.9-0.1-1.4-0.3c-0.4-0.2-0.7-0.6-0.9-1c-0.2-0.4-0.3-0.9-0.3-1.5
		c0-0.7,0.2-1.4,0.5-2.1c0.3-0.7,0.8-1.2,1.3-1.5c0.5-0.3,1.1-0.5,1.7-0.5c0.8,0,1.4,0.2,1.9,0.7c0.5,0.5,0.7,1.2,0.7,2
		c0,0.3,0,0.7-0.1,1h-4.9c0,0.1,0,0.2,0,0.3c0,0.6,0.1,1.1,0.4,1.4c0.3,0.3,0.6,0.5,1,0.5c0.4,0,0.8-0.1,1.1-0.4
		C354.7,46.2,355,45.9,355.2,45.4z M351.9,43.7h3.7c0-0.1,0-0.2,0-0.2c0-0.6-0.1-1-0.4-1.3c-0.3-0.3-0.6-0.4-1.1-0.4
		c-0.5,0-0.9,0.2-1.3,0.5C352.4,42.6,352.1,43.1,351.9,43.7z"/>
	<path class="st3" d="M367.9,49.9h-2.6V40c-1,0.9-2.1,1.6-3.4,2v-2.4c0.7-0.2,1.4-0.6,2.2-1.3c0.8-0.6,1.4-1.4,1.7-2.2h2.1V49.9z
		 M371.9,46.7l2.5-0.3c0.1,0.5,0.2,0.9,0.5,1.2c0.3,0.3,0.6,0.4,1,0.4c0.5,0,1-0.3,1.4-0.8c0.4-0.5,0.6-1.5,0.7-3.1
		c-0.7,0.8-1.5,1.1-2.5,1.1c-1.1,0-2-0.4-2.8-1.2c-0.8-0.8-1.2-1.9-1.2-3.2c0-1.4,0.4-2.5,1.2-3.4c0.8-0.9,1.9-1.3,3.2-1.3
		c1.4,0,2.5,0.5,3.4,1.6c0.9,1.1,1.3,2.8,1.3,5.3c0,2.5-0.5,4.3-1.4,5.4c-0.9,1.1-2.1,1.7-3.6,1.7c-1.1,0-1.9-0.3-2.6-0.9
		C372.5,48.7,372.1,47.9,371.9,46.7z M377.8,41c0-0.8-0.2-1.5-0.6-2c-0.4-0.5-0.8-0.7-1.3-0.7c-0.5,0-0.9,0.2-1.2,0.6
		c-0.3,0.4-0.5,1-0.5,1.9c0,0.9,0.2,1.5,0.5,1.9c0.3,0.4,0.8,0.6,1.3,0.6c0.5,0,0.9-0.2,1.3-0.6C377.6,42.3,377.8,41.7,377.8,41z
		 M397.5,36.1c1.3,0,2.4,0.5,3.1,1.4c0.9,1.1,1.3,3,1.3,5.6c0,2.6-0.5,4.5-1.3,5.6c-0.7,0.9-1.8,1.4-3.1,1.4c-1.3,0-2.4-0.5-3.2-1.5
		c-0.8-1-1.2-2.9-1.2-5.5c0-2.6,0.4-4.5,1.3-5.6C395.2,36.6,396.2,36.1,397.5,36.1z M397.5,38.3c-0.3,0-0.6,0.1-0.8,0.3
		c-0.2,0.2-0.4,0.6-0.6,1.1c-0.2,0.7-0.3,1.8-0.3,3.4c0,1.6,0.1,2.7,0.2,3.3c0.2,0.6,0.4,1,0.6,1.2c0.2,0.2,0.5,0.3,0.8,0.3
		c0.3,0,0.6-0.1,0.8-0.3c0.2-0.2,0.4-0.6,0.6-1.1c0.2-0.7,0.3-1.8,0.3-3.4c0-1.6-0.1-2.7-0.2-3.3c-0.2-0.6-0.4-1-0.6-1.2
		C398.1,38.4,397.9,38.3,397.5,38.3z"/>
	<path class="st4" d="M288.3,8.6h-20.1v35.1H321 M408.8,43.7h12.6V8.6h-45"/>
	<path class="st3" d="M275.2,33.8v-7.1h-2.7v-0.9h6.4v0.9h-2.7v7.1H275.2z M279.5,33.8v-5.9h0.9v0.9c0.2-0.4,0.4-0.7,0.6-0.8
		c0.2-0.1,0.4-0.2,0.6-0.2c0.3,0,0.7,0.1,1,0.3l-0.4,0.9c-0.2-0.1-0.5-0.2-0.7-0.2c-0.2,0-0.4,0.1-0.6,0.2c-0.2,0.1-0.3,0.3-0.4,0.5
		c-0.1,0.4-0.2,0.7-0.2,1.2v3.1H279.5z M287.1,33.8v-0.9c-0.5,0.7-1.1,1-1.9,1c-0.3,0-0.7-0.1-1-0.2c-0.3-0.1-0.5-0.3-0.7-0.5
		c-0.1-0.2-0.2-0.4-0.3-0.7c0-0.2-0.1-0.5-0.1-0.9v-3.6h1v3.2c0,0.5,0,0.9,0.1,1c0.1,0.3,0.2,0.5,0.4,0.6c0.2,0.1,0.4,0.2,0.7,0.2
		c0.3,0,0.6-0.1,0.8-0.2c0.3-0.2,0.4-0.4,0.6-0.6c0.1-0.3,0.2-0.6,0.2-1.1v-3.1h1v5.9H287.1z M289.1,32l1-0.2
		c0.1,0.4,0.2,0.7,0.5,0.9c0.3,0.2,0.6,0.3,1.1,0.3c0.5,0,0.8-0.1,1-0.3c0.2-0.2,0.3-0.4,0.3-0.7c0-0.2-0.1-0.4-0.3-0.5
		c-0.1-0.1-0.5-0.2-1-0.3c-0.7-0.2-1.2-0.3-1.5-0.5c-0.3-0.1-0.5-0.3-0.6-0.6c-0.1-0.2-0.2-0.5-0.2-0.8c0-0.3,0.1-0.5,0.2-0.7
		c0.1-0.2,0.3-0.4,0.5-0.6c0.2-0.1,0.4-0.2,0.6-0.3c0.3-0.1,0.6-0.1,0.9-0.1c0.5,0,0.9,0.1,1.2,0.2c0.3,0.1,0.6,0.3,0.8,0.5
		c0.2,0.2,0.3,0.5,0.3,0.9l-1,0.1c0-0.3-0.2-0.5-0.4-0.7c-0.2-0.2-0.5-0.3-0.9-0.3c-0.5,0-0.8,0.1-1,0.2c-0.2,0.2-0.3,0.3-0.3,0.5
		c0,0.1,0,0.2,0.1,0.3c0.1,0.1,0.2,0.2,0.4,0.3c0.1,0,0.4,0.1,0.9,0.3c0.7,0.2,1.2,0.3,1.5,0.5c0.3,0.1,0.5,0.3,0.7,0.5
		c0.2,0.2,0.2,0.5,0.2,0.8c0,0.3-0.1,0.6-0.3,0.9c-0.2,0.3-0.5,0.5-0.8,0.7c-0.4,0.2-0.8,0.2-1.2,0.2c-0.8,0-1.3-0.2-1.7-0.5
		C289.5,33.1,289.2,32.6,289.1,32z M297.3,32.9l0.1,0.9c-0.3,0.1-0.5,0.1-0.7,0.1c-0.4,0-0.6-0.1-0.8-0.2c-0.2-0.1-0.3-0.3-0.4-0.5
		c-0.1-0.2-0.1-0.6-0.1-1.2v-3.4h-0.7v-0.8h0.7v-1.5l1-0.6v2h1v0.8h-1v3.4c0,0.3,0,0.5,0.1,0.5c0,0.1,0.1,0.1,0.2,0.2
		c0.1,0,0.2,0.1,0.3,0.1C297,32.9,297.2,32.9,297.3,32.9z M302.3,31.9l1,0.1c-0.2,0.6-0.5,1.1-0.9,1.4c-0.4,0.3-1,0.5-1.7,0.5
		c-0.9,0-1.5-0.3-2-0.8c-0.5-0.5-0.8-1.3-0.8-2.2c0-1,0.3-1.7,0.8-2.3c0.5-0.5,1.2-0.8,2-0.8c0.8,0,1.4,0.3,1.9,0.8
		c0.5,0.5,0.7,1.3,0.7,2.2c0,0.1,0,0.1,0,0.3H299c0,0.6,0.2,1.1,0.5,1.5c0.3,0.3,0.7,0.5,1.2,0.5c0.4,0,0.7-0.1,0.9-0.3
		C302,32.6,302.2,32.3,302.3,31.9z M299.1,30.3h3.3c0-0.5-0.2-0.9-0.4-1.1c-0.3-0.4-0.7-0.6-1.2-0.6c-0.5,0-0.8,0.2-1.1,0.5
		C299.3,29.3,299.1,29.8,299.1,30.3z M308.4,33.8V33c-0.4,0.6-0.9,0.9-1.6,0.9c-0.5,0-0.9-0.1-1.3-0.4c-0.4-0.3-0.7-0.6-0.9-1.1
		c-0.2-0.5-0.3-1-0.3-1.6c0-0.6,0.1-1.1,0.3-1.6c0.2-0.5,0.5-0.8,0.9-1.1c0.4-0.3,0.8-0.4,1.3-0.4c0.4,0,0.7,0.1,0.9,0.2
		c0.3,0.1,0.5,0.3,0.7,0.6v-2.9h1v8.1H308.4z M305.3,30.8c0,0.7,0.2,1.3,0.5,1.7c0.3,0.4,0.7,0.6,1.1,0.6c0.4,0,0.8-0.2,1.1-0.5
		c0.3-0.4,0.5-0.9,0.5-1.6c0-0.8-0.2-1.4-0.5-1.8c-0.3-0.4-0.7-0.6-1.1-0.6c-0.4,0-0.8,0.2-1.1,0.5
		C305.4,29.5,305.3,30.1,305.3,30.8z"/>
	<path class="st3" d="M312.7,33.8l1.4-6.7h0.8l-0.5,2.4c0.3-0.2,0.5-0.4,0.7-0.5c0.2-0.1,0.4-0.1,0.7-0.1c0.4,0,0.8,0.2,1.1,0.5
		c0.3,0.3,0.4,0.8,0.4,1.5c0,0.4-0.1,0.8-0.2,1.2c-0.1,0.4-0.3,0.7-0.4,0.9c-0.2,0.2-0.4,0.4-0.5,0.6c-0.2,0.1-0.4,0.3-0.6,0.3
		c-0.2,0.1-0.4,0.1-0.6,0.1c-0.3,0-0.6-0.1-0.8-0.3c-0.2-0.2-0.4-0.4-0.6-0.8l-0.2,0.9H312.7z M313.9,31.8l0,0.2
		c0,0.4,0.1,0.7,0.3,0.9c0.2,0.2,0.4,0.3,0.7,0.3c0.3,0,0.5-0.1,0.8-0.3c0.2-0.2,0.4-0.5,0.6-1c0.2-0.4,0.2-0.8,0.2-1.2
		c0-0.4-0.1-0.7-0.3-1c-0.2-0.2-0.4-0.3-0.7-0.3c-0.3,0-0.6,0.1-0.8,0.3c-0.2,0.2-0.4,0.6-0.6,1.1C314,31.2,313.9,31.5,313.9,31.8z
		 M317.6,35.7l0-0.8c0.2,0,0.3,0.1,0.5,0.1c0.2,0,0.3,0,0.4-0.1c0.1-0.1,0.3-0.3,0.4-0.6l0.3-0.5l-0.8-4.9h0.8l0.4,2.5
		c0.1,0.5,0.1,1,0.2,1.5l2.2-3.9h0.9l-3.1,5.5c-0.3,0.5-0.6,0.9-0.8,1.1c-0.2,0.2-0.5,0.3-0.8,0.3C318,35.7,317.8,35.7,317.6,35.7z"
		/>
	<path class="st3" d="M292.7,17.7c1.8,0,3.2-0.5,4.2-1.6c1-1,1.5-2.4,1.5-4.3V2.1h-4.2v9.7c0,1.4-0.7,2.1-1.8,2.1
		c-0.9,0-1.6-0.5-2.4-1.4l-2.7,2.6C288.4,16.6,290.1,17.7,292.7,17.7 M302.3,17.5h4.3V2.1h-4.3V17.5z M310.6,17.5h4.2V9l6.6,8.4h3.7
		V2.1h-4.2v8.1l-6.3-8.1h-4V17.5z M329.1,17.5h5.8c5.5,0,8.8-3.3,8.8-7.7v0c0-4.4-3.2-7.6-8.7-7.6h-5.9V17.5z M333.3,13.7V5.9h1.7
		c2.5,0,4.2,1.4,4.2,3.9v0c0,2.5-1.7,3.9-4.2,3.9H333.3z M344.8,17.5h4.5l1.1-2.7h5.9l1.1,2.7h4.6L355.4,2h-4.1L344.8,17.5z
		 M351.6,11.4l1.7-4.4l1.7,4.4H351.6z M364.7,17.5h11.7v-3.7h-7.4V2.1h-4.3V17.5z"/>
	<path class="st3" d="M402.5,29.6c0,1.4,0.5,2.4,1.6,3.2c1.1,0.8,2.5,1.2,4.4,1.2c1.8,0,3.2-0.4,4.2-1.2c1-0.8,1.5-1.8,1.5-3
		c0-1.2-0.4-2.1-1.2-2.7c-0.5-0.4-1.3-0.7-2.4-0.9l-2.4-0.5c-0.9-0.2-1.6-0.4-1.8-0.5c-0.4-0.2-0.7-0.6-0.7-1c0-0.5,0.2-0.9,0.7-1.2
		c0.5-0.3,1.1-0.4,1.8-0.4c0.7,0,1.3,0.1,1.7,0.3c0.7,0.3,1.1,0.9,1.1,1.7h2.8c-0.1-1.4-0.6-2.5-1.7-3.2c-1-0.7-2.3-1.1-3.8-1.1
		c-1.8,0-3.2,0.4-4.1,1.2c-0.9,0.8-1.4,1.7-1.4,2.9c0,1.3,0.5,2.2,1.4,2.8c0.6,0.4,1.6,0.7,3.1,1l1.5,0.3c0.9,0.2,1.5,0.4,1.9,0.6
		c0.4,0.2,0.6,0.6,0.6,1c0,0.7-0.4,1.2-1.2,1.5c-0.4,0.1-1,0.2-1.7,0.2c-1.2,0-2-0.3-2.5-0.8c-0.2-0.3-0.4-0.7-0.5-1.3H402.5z
		 M387.9,33.6h2.7v-9.3l5.8,9.3h2.9V20.5h-2.7v9.1l-5.6-9.1h-3.1V33.6z M371.6,33.6h3.1l0.9-2.7h5.2l0.9,2.7h3.2l-4.9-13.1h-3.3
		L371.6,33.6z M378.2,23.5l1.8,5.2h-3.6L378.2,23.5z M368.6,20.5h-2.9v13.1h2.9V20.5z M356.7,20.5h-6.1v13.1h6.1
		c2.1,0,3.7-0.8,4.7-2.4c0.8-1.2,1.1-2.7,1.1-4.4c0-0.7-0.1-1.4-0.3-2.2c-0.2-0.7-0.5-1.5-1-2.1c-0.6-0.8-1.4-1.4-2.4-1.7
		C358.3,20.6,357.5,20.5,356.7,20.5z M356.2,22.8c1.3,0,2.2,0.4,2.7,1.1c0.4,0.7,0.7,1.7,0.7,3.1c0,1-0.2,1.8-0.4,2.5
		c-0.5,1.3-1.5,1.9-2.9,1.9h-2.7v-8.6H356.2z M335.3,33.6h2.7v-9.3l5.8,9.3h2.9V20.5H344v9.1l-5.6-9.1h-3.1V33.6z M331.3,20.5h-2.9
		v13.1h2.9V20.5z"/>
	<path class="st3" d="M385.1,46.1c0.1,0.6,0.3,1,0.6,1.3c0.3,0.3,0.7,0.5,1.3,0.5c0.7,0,1.2-0.2,1.5-0.7c0.3-0.5,0.5-1,0.5-1.7
		c0-0.7-0.2-1.3-0.5-1.7c-0.3-0.5-0.8-0.7-1.5-0.7c-0.3,0-0.6,0-0.8,0.1c-0.4,0.1-0.7,0.4-0.9,0.8l-2.4-0.1l0.9-7.4h7.4v2.3h-5.5
		l-0.5,2.9c0.4-0.3,0.7-0.4,1-0.5c0.4-0.1,0.9-0.2,1.4-0.2c1.1,0,2.1,0.4,2.9,1.1c0.8,0.8,1.2,1.8,1.2,3.3c0,1.2-0.4,2.4-1.2,3.3
		c-0.8,1-2,1.5-3.6,1.5c-1.3,0-2.3-0.3-3.2-1c-0.8-0.7-1.3-1.7-1.4-2.9H385.1z"/>
</g>
<line class="st4" x1="46" y1="43.8" x2="27" y2="43.8"/>
<line class="st4" x1="194.8" y1="43.8" x2="175.7" y2="43.8"/>
</svg>
