<svg xmlns="http://www.w3.org/2000/svg" width="24.377" height="27.382" viewBox="0 0 24.377 27.382"><g transform="translate(-17.307 -7.196)"><path d="M26.886,16.093s-1.916-2.862-.646-4.343a.748.748,0,0,1,1.29.245c.245.793.087,2.551-1.6,6.428,0,0-2.282,4.664-3.971,5.673a.7.7,0,0,1-.987-.933A6.944,6.944,0,0,1,23.6,20.969s2.706-1.5,7.9-1.433a3.581,3.581,0,0,1,2.092.684.867.867,0,0,1,0,1.224c-.321.3-.975.454-2.3-.348A15.845,15.845,0,0,1,26.886,16.093Z" transform="translate(0.382 0.473)" fill="none" stroke="#fff" stroke-miterlimit="10" stroke-width="1.2"/><g transform="translate(22.49 26.666)"><path d="M24.227,24.683a2.046,2.046,0,0,0-.87-.167H21.968v4.305h.879V27.26h.51a2.1,2.1,0,0,0,.87-.163,1.2,1.2,0,0,0,.547-.471,1.522,1.522,0,0,0,0-1.467A1.207,1.207,0,0,0,24.227,24.683Zm-.212,1.553a.549.549,0,0,1-.261.205,1.065,1.065,0,0,1-.4.068h-.51V25.266h.51a.979.979,0,0,1,.4.074.575.575,0,0,1,.261.212.676.676,0,0,1,0,.683Z" transform="translate(-21.968 -24.516)" fill="#fff"/><path d="M28.341,25.1a2.033,2.033,0,0,0-.717-.433,2.727,2.727,0,0,0-.929-.151H25.237v4.305H26.7a2.727,2.727,0,0,0,.929-.15,2.019,2.019,0,0,0,.717-.434,1.891,1.891,0,0,0,.457-.679,2.544,2.544,0,0,0,0-1.777A1.9,1.9,0,0,0,28.341,25.1Zm-.4,2.18a1.074,1.074,0,0,1-.3.419,1.256,1.256,0,0,1-.442.239,1.783,1.783,0,0,1-.533.077h-.528V25.323h.528a1.82,1.82,0,0,1,.533.076,1.308,1.308,0,0,1,.442.237,1.042,1.042,0,0,1,.3.419,1.627,1.627,0,0,1,.1.615A1.6,1.6,0,0,1,27.943,27.281Z" transform="translate(-21.548 -24.516)" fill="#fff"/><path d="M31.635,25.291v-.775H29.144v4.305H30V26.989h1.574v-.738H30v-.959Z" transform="translate(-21.045 -24.516)" fill="#fff"/></g><path d="M37.935,31.2V13.785L31.834,7.8H17.907V33.978H41.084V30.971" transform="translate(0 0)" fill="none" stroke="#fff" stroke-miterlimit="10" stroke-width="1.2"/><path d="M30.248,7.8v6.032h6.1" transform="translate(1.586 0)" fill="none" stroke="#fff" stroke-miterlimit="10" stroke-width="1.2"/><path d="M34.188,27.875l1.978,1.978L38.223,27.8" transform="translate(1.729 1.386)" fill="none" stroke="#fff" stroke-miterlimit="10" stroke-width="1.2"/></g></svg>