<svg xmlns="http://www.w3.org/2000/svg" width="24.677" height="27.682" viewBox="0 0 24.677 27.682"><g transform="translate(-17.157 -7.046)"><path d="M26.886,16.093s-1.916-2.862-.646-4.343a.748.748,0,0,1,1.29.245c.245.793.087,2.551-1.6,6.428,0,0-2.282,4.664-3.971,5.673a.7.7,0,0,1-.987-.933A6.944,6.944,0,0,1,23.6,20.969s2.706-1.5,7.9-1.433a3.581,3.581,0,0,1,2.092.684.867.867,0,0,1,0,1.224c-.321.3-.975.454-2.3-.348A15.845,15.845,0,0,1,26.886,16.093Z" transform="translate(0.382 2.473)" fill="none" stroke="#fff" stroke-miterlimit="10" stroke-width="1.5"/><path d="M37.935,28.994V13.785L31.834,7.8H17.907V33.978H41.084V30.971" transform="translate(0 0)" fill="none" stroke="#fff" stroke-miterlimit="10" stroke-width="1.5"/><path d="M30.248,7.8v6.032h6.1" transform="translate(1.586 0)" fill="none" stroke="#fff" stroke-miterlimit="10" stroke-width="1.5"/><path d="M34.188,27.914l2.946,2.946L40.2,27.8" transform="translate(0.742 -1.117)" fill="none" stroke="#fff" stroke-miterlimit="10" stroke-width="1.5"/></g></svg>