<svg xmlns="http://www.w3.org/2000/svg" width="341.358" height="554.338" viewBox="0 0 341.358 554.338"><defs><style>.a{fill:#828692;}.b{fill:#07243e;}.c{fill:#fff;}</style></defs><g transform="translate(-114.528 -124.369)"><rect class="a" width="334.345" height="331.309" transform="translate(121.541 246.852)"/><path class="b" d="M259.9,436.659c.519,3.934,1,7.652,1.51,11.365a24.964,24.964,0,0,0,.534,2.525,31.51,31.51,0,0,0,30.208,24.065c.425.009.85-.059,1.417-.1a16.025,16.025,0,0,0,2.2-7.6c.391-6.553.755-13.119.755-19.681,0-36.725-.139-73.451-.167-110.177-.006-6.775-1.038-4.8,4.582-8.263,11.091-6.838,22.26-13.549,33.358-20.374a9.365,9.365,0,0,1,5.154-1.458q42.009.062,84.019.035c1.055,0,2.111.09,3.46.151.191,3.986.486,7.819.538,11.656.15,11.2.2,22.4.3,33.6.194,22.615.486,45.228.562,67.843A173.046,173.046,0,0,1,418.159,478.8C409.336,503.808,393.6,523.252,371.6,537.8a101.907,101.907,0,0,1-21.109,11.1,12.05,12.05,0,0,0-3.835,2.268c-18.254,16.408-39.514,26.564-63.893,29.123-41.023,4.3-76.885-7.537-106.63-36.428C159.794,528,150.223,508.372,145.8,486.141a147.738,147.738,0,0,1-2.4-22.133,3.57,3.57,0,0,1,1.926-3.653c12.042-7.552,24.03-15.191,36.078-22.734a7.171,7.171,0,0,1,3.577-1.11q36.678-.091,73.356-.034C258.75,436.477,259.172,436.572,259.9,436.659Zm-112.22,28.582c.179,2.449.371,4.47.468,6.5a97.827,97.827,0,0,0,9.007,36.456c14.454,31.472,38.925,51.782,71.4,62.685,14.848,4.983,30.243,6.173,45.9,5.422A104.6,104.6,0,0,0,326,560.393c23.958-15.017,40.907-35.957,52.067-61.773,5.786-13.385,9.343-27.3,9.4-41.929.107-25.75.034-51.5.023-77.25,0-1.024-.12-2.047-.237-3.923-7.213,6.833-13.277,13.72-20.037,20.081l-5.908-6.182c.831-.945,1.5-1.759,2.224-2.523,7.331-7.746,14.635-15.519,22.041-23.193a6.223,6.223,0,0,0,1.932-4.862c-.116-4.522-.027-9.049-.044-13.575,0-.922-.1-1.844-.209-3.617l-58.765,60.52-6.387-6.687c19.292-19.922,38.412-39.664,57.97-59.859-1.585-.1-2.411-.2-3.238-.2-4.74-.015-9.484.092-14.221-.053a5.806,5.806,0,0,0-4.775,2.057c-7.51,7.872-15.109,15.66-22.689,23.466-.64.66-1.372,1.231-1.957,1.751l-6.46-6.1,19.654-20.9h-45.6c0,1.487,0,2.76,0,4.033q-.008,54.95-.045,109.9c-.007,4.841-.224,9.7-.655,14.516a62.17,62.17,0,0,1-4.49,18.438c-3.2,7.706-8.194,13.864-15.557,17.966-7.9,4.4-16.358,5.459-25.288,4.692-10.212-.877-17.777-5.922-23.76-13.853a56.144,56.144,0,0,1-8.9-18.178c-.758-2.57-1.431-5.164-2.188-7.905Z" transform="translate(-1.93 -12.215)"/><path class="b" d="M386.677,124.392c31.815-.757,56.851,22.485,63.813,45.79,11.846,39.65-10.979,74.557-42.592,84.834a78.248,78.248,0,0,0-15.989,7.305c-27.361,16.254-65.49,11.672-87.822-15.982a68.98,68.98,0,0,1,38.082-111.075c2.613-.606,5.314-.822,7.945-1.359a14.75,14.75,0,0,0,4.237-1.373A62.061,62.061,0,0,1,386.677,124.392ZM383,143.911c-22.4-10.869-56.594-6.826-76.893,20.068a64.146,64.146,0,0,0,90.531,89.265A62.867,62.867,0,0,0,420.38,214.8a59,59,0,0,0-.483-26.232c-9.319,9.324-18.192,18.2-27.244,27.264l-7.214-6.525,31.252-31.37a57.718,57.718,0,0,0-6.654-11.984L353.86,222.129l-7.223-6.681c19.269-19.149,38.3-37.975,57.151-57.164a56.877,56.877,0,0,0-11.009-9.251c-1.233,1.085-2.4,2.007-3.449,3.053q-14.278,14.282-28.522,28.6c-.808.81-1.653,1.584-2.257,2.162l-7.5-6.981Z" transform="translate(-11.631)"/><g transform="translate(114.528 604.045)"><path class="b" d="M204.423,638.945c1.944-.16,3.317-.373,4.691-.37,10.55.027,21.1.037,31.65.192a42.638,42.638,0,0,1,7.99.945c5.146,1.068,8.791,4.154,10.271,9.213a39.456,39.456,0,0,1,1.875,10.412c.192,16.471.089,32.947.079,49.421,0,.947-.093,1.9-.14,2.783-4.267,1.167-15.7,1.381-21,.364-.08-1.576-.237-3.25-.24-4.924q-.029-21.319-.013-42.639c0-6.661-1.15-7.82-7.919-7.957-2.354-.048-4.71-.007-7.523-.007-.2,9.465-.069,18.671-.092,27.874-.024,9.123-.006,18.247-.006,27.571a91.807,91.807,0,0,1-19.623.249Z" transform="translate(-120.542 -638.445)"/><path class="b" d="M281.223,656.424v-17.29a11.686,11.686,0,0,1,2.447-.529c9.581.018,19.166-.091,28.74.193,10.6.313,18.521,5.563,23.447,14.744,8.445,15.738,8.78,31.5-1.488,46.683-4.1,6.064-9.706,10.378-17.023,11.968a38.709,38.709,0,0,1-7.675.856c-8.286.105-16.573.04-24.861.041h-3.4v-46.5h18.918v28.738c9.7,2.642,17.736-1.529,20.817-10.571a26.362,26.362,0,0,0,.8-14.629c-1.937-8.506-8.053-13.563-16.778-13.679-6.675-.088-13.352-.02-20.027-.021Z" transform="translate(-125.68 -638.447)"/><path class="b" d="M414.636,711.99H351.608c3.762-15.336,7.462-30.42,11.178-45.567H378.82c-1.631,9.692-3.227,19.179-4.814,28.613,2.624.85,14.225.968,17.818.2C385.551,676.6,379.289,658,372.962,639.2a68.2,68.2,0,0,1,19.1-.169Z" transform="translate(-130.389 -638.435)"/><path class="b" d="M433.8,711.768V638.975c5.566-.442,10.985-.224,16.664-.157.714,6.5.222,12.73.311,18.937.091,6.355.02,12.713.02,19.071V695.87h24.782c.112,5.457.077,10.551.013,15.57C470.646,712.641,440.225,712.862,433.8,711.768Z" transform="translate(-135.887 -638.454)"/><path class="b" d="M114.528,712.4V695.867c3.5,0,6.814,0,10.126,0,6.3,0,6.406-.1,6.406-6.244q0-23.264,0-46.528v-3.809a60.38,60.38,0,0,1,17.342-.266c.133,1.592.363,3.062.361,4.531-.028,17.123-.043,34.247-.192,51.369a35.592,35.592,0,0,1-1.1,8.61c-1.324,5.067-4.692,8.26-10.052,8.6-4.935.313-9.9.211-14.847.267C120,712.424,117.422,712.4,114.528,712.4Z" transform="translate(-114.528 -638.441)"/><path class="b" d="M184.5,713.964H165.912c-.7-2.241-.969-39.7-.279-45.493a141.223,141.223,0,0,1,18.671-.156C185.5,672.817,185.655,710.084,184.5,713.964Z" transform="translate(-117.92 -640.419)"/><path class="b" d="M165.6,639.1h19.56v17.012H165.6Z" transform="translate(-117.944 -638.48)"/></g><path class="c" d="M147.993,467.277h72.229c.757,2.741,1.43,5.335,2.188,7.905a56.143,56.143,0,0,0,8.9,18.178c5.982,7.93,13.548,12.976,23.76,13.853,8.93.767,17.385-.29,25.288-4.692,7.363-4.1,12.352-10.26,15.557-17.966a62.173,62.173,0,0,0,4.49-18.438c.431-4.82.647-9.675.655-14.516q.086-54.949.045-109.9c0-1.273,0-2.546,0-4.033h45.6l-19.654,20.9,6.46,6.1c.585-.52,1.317-1.091,1.957-1.75,7.581-7.806,15.179-15.594,22.689-23.466a5.806,5.806,0,0,1,4.775-2.056c4.736.146,9.48.038,14.22.053.827,0,1.652.1,3.238.2-19.558,20.2-38.678,39.938-57.97,59.859L328.8,404.2l58.765-60.52c.106,1.773.205,2.695.209,3.617.017,4.526-.072,9.053.044,13.575a6.224,6.224,0,0,1-1.932,4.862c-7.406,7.674-14.709,15.448-22.041,23.193-.722.764-1.393,1.578-2.224,2.523l5.908,6.182c6.76-6.361,12.825-13.248,20.037-20.081.117,1.875.236,2.9.237,3.923.01,25.75.084,51.5-.023,77.25-.061,14.633-3.618,28.543-9.4,41.929-11.16,25.816-28.109,46.756-52.067,61.773a104.6,104.6,0,0,1-51.535,15.907c-15.659.75-31.053-.44-45.9-5.422-32.479-10.9-56.951-31.213-71.4-62.685a97.827,97.827,0,0,1-9.007-36.456C148.364,471.747,148.172,469.726,147.993,467.277Z" transform="translate(-2.239 -14.251)"/><path class="c" d="M383.345,144.91l-31.952,31.956,7.5,6.981c.6-.578,1.449-1.352,2.257-2.162q14.261-14.3,28.522-28.6c1.046-1.046,2.216-1.968,3.449-3.053a56.878,56.878,0,0,1,11.009,9.251c-18.85,19.188-37.882,38.014-57.151,57.164,2.327,2.154,4.654,4.305,7.223,6.681l56.177-56.175a57.723,57.723,0,0,1,6.654,11.984l-31.252,31.37L393,216.832c9.052-9.059,17.925-17.94,27.244-27.264a59,59,0,0,1,.483,26.232,62.866,62.866,0,0,1-23.741,38.444,64.146,64.146,0,0,1-90.531-89.265C326.751,138.085,360.949,134.041,383.345,144.91Z" transform="translate(-11.976 -0.999)"/></g></svg>