<?xml version="1.0" encoding="utf-8"?>
<!-- Generator: Adobe Illustrator 25.0.0, SVG Export Plug-In . SVG Version: 6.00 Build 0)  -->
<svg version="1.1" id="Layer_1" xmlns="http://www.w3.org/2000/svg" xmlns:xlink="http://www.w3.org/1999/xlink" x="0px" y="0px"
	 viewBox="0 0 200 52" style="enable-background:new 0 0 200 52;" xml:space="preserve">
<style type="text/css">
	.st0{fill:#FFFFFF;}
	.st1{font-family:'ArialMT';}
	.st2{font-size:5.6434px;}
	.st3{letter-spacing:1;}
</style>
<g transform="translate(-221 -1245)">
	<path class="st0" d="M237.9,1249.2c0.1,0.8-0.4,1.5-1.2,1.6c-0.1,0-0.3,0-0.4,0c-1.7,0-1.7-1.1-1.7-2.1h1c0,0.8,0.1,1.2,0.6,1.2
		c0.6,0,0.6-0.4,0.6-0.8v-3.7h1.1V1249.2z"/>
	<text transform="matrix(1 0 0 1 231.3105 1294.6263)" class="st0 st1 st2 st3">CRA</text>
	<text transform="matrix(1 0 0 1 246.9501 1294.6263)" class="st0 st1 st2 st3">F</text>
	<text transform="matrix(1 0 0 1 251.6333 1294.6263)" class="st0 st1 st2 st3">TED </text>
	<text transform="matrix(1 0 0 1 269.4541 1294.6263)" class="st0 st1 st2 st3">F</text>
	<text transform="matrix(1 0 0 1 274.1372 1294.6263)" class="st0 st1 st2 st3">OR S</text>
	<text transform="matrix(1 0 0 1 292.9004 1294.6263)" class="st0 st1 st2">T</text>
	<text transform="matrix(1 0 0 1 296.9062 1294.6263)" class="st0 st1 st2 st3">A</text>
	<text transform="matrix(1 0 0 1 301.9116 1294.6263)" class="st0 st1 st2 st3">I</text>
	<text transform="matrix(1 0 0 1 304.7158 1294.6263)" class="st0 st1 st2 st3">N</text>
	<text transform="matrix(1 0 0 1 310.0327 1294.6263)" class="st0 st1 st2 st3">L</text>
	<text transform="matrix(1 0 0 1 314.4072 1294.6263)" class="st0 st1 st2 st3">ESS</text>
	<text transform="matrix(1 0 0 1 329.4243 1294.6263)" class="st0 st1 st2 st3"> </text>
	<text transform="matrix(1 0 0 1 332.228 1294.6263)" class="st0 st1 st2 st3">L</text>
	<text transform="matrix(1 0 0 1 336.6079 1294.6263)" class="st0 st1 st2 st3">I</text>
	<text transform="matrix(1 0 0 1 339.4116 1294.6263)" class="st0 st1 st2 st3">VIN</text>
	<text transform="matrix(1 0 0 1 352.5444 1294.6263)" class="st0 st1 st2">G</text>
	<g transform="translate(221 1258.542)">
		<path class="st0" d="M24.4,19.9c-4.9,0.1-8.9-3.9-9-8.8c-0.1-4.9,3.9-8.9,8.8-9c4.9-0.1,8.9,3.9,9,8.8c0,0,0,0.1,0,0.1
			C33.2,15.9,29.2,19.9,24.4,19.9 M33.2-2.6l0,2.6c-2.7-2.3-6.2-3.4-9.8-3.1C15.6-2.5,9.7,4.3,10.4,12.2c0.5,7,6.1,12.6,13.1,13.1
			c3.5,0.3,7-0.9,9.7-3.1v2.4h5.5V-2.6L33.2-2.6z"/>
		<path class="st0" d="M51.7,6.6c-0.2,1.4-0.3,2.7-0.4,4.1v13.9h-6.1V-2.6h5.5v2.2c0.4-0.7,1-1.3,1.6-1.8c0.7-0.6,1.6-1,2.5-1.2
			c0.1,0,0.3-0.1,0.4-0.1c0.1,0,0.3,0,0.4,0l1.4,0l0,6.4l-1.2,0C53.8,3,52.1,4.5,51.7,6.6"/>
		<path class="st0" d="M82.6,4c-0.3-0.4-0.6-0.8-1-1.2c-0.3-0.4-0.7-0.7-1.1-1c-1.9-1.6-4.4-2.5-7-2.5v0c-3,0-5.8,1.2-7.9,3.4
			c-2.1,2.2-3.3,5.2-3.3,8.3l0,0c0,3.1,1.2,6,3.3,8.3c2,2.2,4.9,3.4,7.9,3.4v0l0,0v0c1.9,0,3.7-0.5,5.4-1.4c0.3-0.1,0.5-0.3,0.8-0.5
			c1.1-0.8,2.1-1.7,2.9-2.9l0,3.9c-0.4,0.4-0.9,0.8-1.4,1.1c-0.3,0.2-0.6,0.4-1,0.6c-2,1.2-4.3,1.8-6.6,1.8v0l0,0v0
			c-3.7,0-7.2-1.5-9.7-4.2c-2.6-2.7-4-6.3-4-10.1l0,0c0-3.7,1.4-7.4,4-10.1c2.5-2.7,6-4.2,9.7-4.2v0c3.1,0,6.2,1.1,8.6,3.1
			c0.1,0.1,0.3,0.2,0.4,0.4L82.6,4z"/>
	</g>
	<rect x="247.9" y="1245.5" class="st0" width="1.1" height="5.2"/>
	<path class="st0" d="M262,1245.5h1v5.2H262l-2.1-3.7h0v3.7h-1v-5.2h1.1l2,3.6h0L262,1245.5z"/>
	<g transform="translate(280.119 1245)">
		<path class="st0" d="M-6.1,4.8h1c0.9,0,1.2-0.9,1.2-1.7c0-1.5-0.7-1.7-1.2-1.7h-1L-6.1,4.8z M-7.1,0.5h2.3C-3.1,0.5-2.8,2-2.8,3
			c0,1.1-0.4,2.7-2.1,2.7h-2.2V0.5z"/>
	</g>
	<path class="st0" d="M288.2,1248.8h1.3l-0.6-2h0L288.2,1248.8z M287.6,1250.7h-1.1l1.8-5.2h1.2l1.8,5.2h-1.2l-0.3-1.1h-1.9
		L287.6,1250.7z"/>
	<path class="st0" d="M302,1249.8h2.5v0.9h-3.6v-5.2h1.1L302,1249.8z"/>
	<path class="st0" d="M312,1282.7h-1.5v-11.5h1.5v5.6l5.5-5.6h2.1l-4.7,4.6l4.9,6.9h-2l-4-5.8l-1.8,1.7L312,1282.7z"/>
	<rect x="324.4" y="1271.2" class="st0" width="1.5" height="11.5"/>
	<path class="st0" d="M330.8,1271.2h9.2v1.4h-3.8v10.1h-1.5v-10.1h-3.8L330.8,1271.2z"/>
	<g transform="translate(380.839 1280.931)">
		<path class="st0" d="M-28.3-6.3c-0.3-1.5-1.7-2.5-3.2-2.4c-2.1,0-3.7,1.5-3.7,4.6c0,2.7,0.9,4.8,3.8,4.8c1,0,2.7-0.5,3.2-3.2h1.5
			c-0.6,4.3-4.1,4.5-5,4.5c-2.6,0-5.1-1.7-5.1-6.1c0-3.5,2-6,5.3-6c2.9,0,4.4,1.8,4.7,3.8L-28.3-6.3z"/>
	</g>
	<path class="st0" d="M366.7,1271.2h1.5v11.5h-1.5v-5.4h-5.9v5.4h-1.5v-11.5h1.5v4.8h5.9V1271.2z"/>
	<path class="st0" d="M382.3,1282.7h-8.4v-11.5h8.3v1.4h-6.7v3.5h6.2v1.4h-6.2v3.8h6.9L382.3,1282.7z"/>
	<path class="st0" d="M395,1271.2h1.5v11.5h-1.7l-5.8-9.3h0v9.3h-1.5v-11.5h1.8l5.7,9.3h0L395,1271.2z"/>
	<g transform="translate(462.476 1280.932)">
		<path class="st0" d="M-53.5-6.4c-0.1-1.8-1.5-2.3-2.8-2.3c-1,0-2.6,0.3-2.6,2c0,1,0.7,1.3,1.3,1.5l3.2,0.8
			c1.5,0.4,2.6,1.3,2.6,3.1c0,2.7-2.5,3.5-4.4,3.5c-2.1,0-2.9-0.6-3.4-1.1c-0.8-0.7-1.2-1.8-1.2-2.9h1.4c0,2.1,1.7,2.7,3.1,2.7
			c1.1,0,3-0.3,3-1.9c0-1.2-0.6-1.6-2.4-2L-58-3.8c-1.4-0.2-2.4-1.3-2.4-2.7c0-1.8,1.2-3.6,3.9-3.6c4,0,4.4,2.4,4.4,3.7L-53.5-6.4z"
			/>
	</g>
</g>
</svg>
