<?xml version="1.0" encoding="utf-8"?>
<!-- Generator: Adobe Illustrator 25.0.0, SVG Export Plug-In . SVG Version: 6.00 Build 0)  -->
<svg version="1.1" id="Layer_1" xmlns="http://www.w3.org/2000/svg" xmlns:xlink="http://www.w3.org/1999/xlink" x="0px" y="0px"
	 viewBox="0 0 200 52" style="enable-background:new 0 0 200 52;" xml:space="preserve">
<style type="text/css">
	.st0{fill-rule:evenodd;clip-rule:evenodd;fill:#FFFFFF;}
	.st1{fill:#FFFFFF;}
	.st2{fill:none;stroke:#FFFFFF;stroke-width:1.3451;stroke-linecap:round;}
</style>
<g transform="translate(9198.003 8142.372)">
	<g transform="translate(-9102 -8136.602)">
		<path class="st0" d="M-11.3,25.9l0,2.8l2.4,0L-9,12.1c-0.8-0.1-1.6-0.1-2.4,0l0,2.9c-0.6-0.4-1.4-2-4.5-2.9
			c-2.3-0.6-4.6-0.5-6.8,0.3c-8.6,3.1-8,13.6,0,16.3c3.5,1.2,8.1,0.7,10.5-1.7C-12,26.5-11.6,26.2-11.3,25.9 M77.1,10.8
			c-5.9,0.8-9.2,5.3-8.6,9.8c0.6,4.3,5.1,8.2,11.1,7.6c5-0.5,9.3-4.9,8.5-9.8C87.4,13.7,82.4,10,77.1,10.8 M37.5,15.1l-0.2-0.2
			c-0.9-1-1.4-1.9-3.3-2.7c-5.3-2.1-10.4,2.2-10.3,7.8c0.2,7.5,8.7,10.9,13.3,5.3c0.2-0.2,0.5-0.8,0.7-0.9c0,0.8-0.1,3.4,0.1,4
			l1.2,0L38.7,5.8l-1.2,0L37.5,15.1z M-20.1,13.7c-4.1,0.6-7,3.7-6.4,7.8c0.5,3.4,4,6.4,8.8,5.7c4-0.5,7.1-3.9,6.3-7.8
			C-12,16-15.3,13-20.1,13.7 M77.3,12.7c-6.5,0.8-8.7,8.1-3.9,12c1.7,1.3,3.8,1.8,5.9,1.6c4.1-0.6,6.9-3.8,6.4-7.7
			C85.3,15.3,81.8,12.2,77.3,12.7 M30.5,12.8c-3.6,0.5-5.9,4.1-5.5,7.7c0.3,3.2,2.9,6.9,7.1,6.4c3.9-0.5,5.7-4.4,5.5-7.7
			C37.4,16.1,34.5,12.2,30.5,12.8 M53,13.5l-0.1-2c-0.8-0.1-1.6-0.1-2.4,0l0.2,16.7l2.4,0c0-2.3-0.2-8.1-0.1-10.1
			c0.2-2.9,2.2-5.3,5.9-5.3c3.6,0,5.5,2.3,5.9,5.2c0.3,2.2,0,7.3,0.2,10l2.4,0c0.1-0.7-0.1-6.6-0.1-7.9c0-2.5-0.2-4.6-1.7-6.5
			c-1.6-1.8-3.8-2.8-6.2-2.7C54.8,10.8,53.5,13.3,53,13.5 M93.6,17.4l-5.1-6.3l-2.8,0c0.1,0.5,6.5,7.9,6.5,8.2
			c-0.5,0.7-1,1.5-1.5,2.1c-0.5,0.7-1,1.4-1.6,2.1c-0.5,0.7-3,3.9-3.1,4.3l2.8,0l4.3-5.9c0.1-0.2,0.2-0.2,0.3-0.4l0.4-0.4
			c0.4,0.3,2.1,2.7,2.5,3.3l2.5,3.3h2.8c-0.1-0.6-6.4-8.2-6.5-8.5c0.5-0.7,1-1.4,1.5-2.1c0.5-0.7,1.1-1.4,1.6-2.1
			c0.5-0.8,2.9-3.7,3.1-4.2l-2.9,0C97.7,11.9,94,17.1,93.6,17.4 M5.2,11.8l-3.9,0l0,1.9c1,0.1,3.3-0.1,4,0.1l0.2,14.7h2.4L7.7,13.8
			l4.5,0l0-1.9l-4.5,0L7.6,5.9l-2.3,0C4.8,6.9,5.5,10.7,5.2,11.8 M-5,14.3l0-2.3l-2.4,0l0.2,16.8l2.4,0c0.2-0.6-0.1-8.3-0.1-9.6
			c0-3.1,1.7-5,5.3-5.4l0-2.2c-1.7-0.1-3.3,0.5-4.5,1.7C-4.4,13.6-4.7,13.9-5,14.3 M42.7,11.5l0,1.8h3.8l0.2,10.5l0,4.4h2.4l0-0.7
			v-0.2l-0.3-15.8L42.7,11.5z M17.7,12.1l-4.2,0l-0.1,0.7l4.3,0l0.3,15.7h1.3L19,12.8l4.1,0l0-0.7c-1.1-0.1-3.3,0.1-4.1,0l-0.1-6.3
			l-1.3,0L17.7,12.1z M42.7,10.5l6.2,0l0-1.8c-0.5-0.1-5.3,0-6.2,0C42.6,9.2,42.6,9.8,42.7,10.5 M39.9,7h0.5l2.3-5.8
			c-0.7,0-0.5-0.1-1,1.2C41.3,3.3,39.9,6.6,39.9,7"/>
		<path class="st0" d="M-11.3,25.9l0,2.8l2.4,0L-9,12.1c-0.8-0.1-1.6-0.1-2.4,0l0,2.9c-0.6-0.4-1.4-2-4.5-2.9
			c-2.3-0.6-4.6-0.5-6.8,0.3c-8.6,3.1-8,13.6,0,16.3c3.5,1.2,8.1,0.7,10.5-1.7C-12,26.5-11.6,26.2-11.3,25.9 M77.1,10.8
			c-5.9,0.8-9.2,5.3-8.6,9.8c0.6,4.3,5.1,8.2,11.1,7.6c5-0.5,9.3-4.9,8.5-9.8C87.4,13.7,82.4,10,77.1,10.8 M37.5,15.1l-0.2-0.2
			c-0.9-1-1.4-1.9-3.3-2.7c-5.3-2.1-10.4,2.2-10.3,7.8c0.2,7.5,8.7,10.9,13.3,5.3c0.2-0.2,0.5-0.8,0.7-0.9c0,0.8-0.1,3.4,0.1,4
			l1.2,0L38.7,5.8l-1.2,0L37.5,15.1z M-20.1,13.7c-4.1,0.6-7,3.7-6.4,7.8c0.5,3.4,4,6.4,8.8,5.7c4-0.5,7.1-3.9,6.3-7.8
			C-12,16-15.3,13-20.1,13.7 M77.3,12.7c-6.5,0.8-8.7,8.1-3.9,12c1.7,1.3,3.8,1.8,5.9,1.6c4.1-0.6,6.9-3.8,6.4-7.7
			C85.3,15.3,81.8,12.2,77.3,12.7 M30.5,12.8c-3.6,0.5-5.9,4.1-5.5,7.7c0.3,3.2,2.9,6.9,7.1,6.4c3.9-0.5,5.7-4.4,5.5-7.7
			C37.4,16.1,34.5,12.2,30.5,12.8 M53,13.5l-0.1-2c-0.8-0.1-1.6-0.1-2.4,0l0.2,16.7l2.4,0c0-2.3-0.2-8.1-0.1-10.1
			c0.2-2.9,2.2-5.3,5.9-5.3c3.6,0,5.5,2.3,5.9,5.2c0.3,2.2,0,7.3,0.2,10l2.4,0c0.1-0.7-0.1-6.6-0.1-7.9c0-2.5-0.2-4.6-1.7-6.5
			c-1.6-1.8-3.8-2.8-6.2-2.7C54.8,10.8,53.5,13.3,53,13.5 M93.6,17.4l-5.1-6.3l-2.8,0c0.1,0.5,6.5,7.9,6.5,8.2
			c-0.5,0.7-1,1.5-1.5,2.1c-0.5,0.7-1,1.4-1.6,2.1c-0.5,0.7-3,3.9-3.1,4.3l2.8,0l4.3-5.9c0.1-0.2,0.2-0.2,0.3-0.4l0.4-0.4
			c0.4,0.3,2.1,2.7,2.5,3.3l2.5,3.3h2.8c-0.1-0.6-6.4-8.2-6.5-8.5c0.5-0.7,1-1.4,1.5-2.1c0.5-0.7,1.1-1.4,1.6-2.1
			c0.5-0.8,2.9-3.7,3.1-4.2l-2.9,0C97.7,11.9,94,17.1,93.6,17.4 M5.2,11.8l-3.9,0l0,1.9c1,0.1,3.3-0.1,4,0.1l0.2,14.7h2.4L7.7,13.8
			l4.5,0l0-1.9l-4.5,0L7.6,5.9l-2.3,0C4.8,6.9,5.5,10.7,5.2,11.8 M-5,14.3l0-2.3l-2.4,0l0.2,16.8l2.4,0c0.2-0.6-0.1-8.3-0.1-9.6
			c0-3.1,1.7-5,5.3-5.4l0-2.2c-1.7-0.1-3.3,0.5-4.5,1.7C-4.4,13.6-4.7,13.9-5,14.3 M42.7,11.5l0,1.8h3.8l0.2,10.5l0,4.4h2.4l0-0.7
			v-0.2l-0.3-15.8L42.7,11.5z M17.7,12.1l-4.2,0l-0.1,0.7l4.3,0l0.3,15.7h1.3L19,12.8l4.1,0l0-0.7c-1.1-0.1-3.3,0.1-4.1,0l-0.1-6.3
			l-1.3,0L17.7,12.1z M42.7,10.5l6.2,0l0-1.8c-0.5-0.1-5.3,0-6.2,0C42.6,9.2,42.6,9.8,42.7,10.5 M39.9,7h0.5l2.3-5.8
			c-0.7,0-0.5-0.1-1,1.2C41.3,3.3,39.9,6.6,39.9,7"/>
		<path class="st1" d="M-27,35.7c-0.1-0.2-0.3-0.3-0.4-0.3c-0.2,0-0.4,0.1-0.4,0.3c0,0.3,0.4,0.4,0.8,0.5s0.8,0.4,0.8,0.8
			c-0.1,0.6-0.6,1-1.2,1c-0.5,0-1-0.2-1.2-0.6l0.6-0.2c0.1,0.2,0.4,0.4,0.6,0.4c0.3,0,0.5-0.2,0.5-0.4c0-0.2-0.1-0.2-0.2-0.3
			l-0.7-0.3c-0.4-0.2-0.7-0.3-0.7-0.7c0.1-0.5,0.5-0.9,1-0.8c0.4,0,0.7,0.2,1,0.5L-27,35.7z"/>
		<path class="st1" d="M-20,37.9h-0.7l0-2.4H-21v-0.5h0.4l0-1.1h0.7l0,1.1h0.7v0.5H-20L-20,37.9z"/>
		<path class="st1" d="M-11,37.9h-0.7v-0.4h0c-0.3,0.4-0.7,0.6-1.2,0.6c-0.8,0.1-1.6-0.6-1.7-1.4c-0.1-0.8,0.6-1.6,1.4-1.7
			c0.1,0,0.1,0,0.2,0c0.5,0,0.9,0.2,1.2,0.6h0V35h0.7L-11,37.9z M-11.6,36.5c0-0.6-0.4-1.1-1-1.2c-0.6,0-1.1,0.4-1.2,1
			c0,0.6,0.4,1.1,1,1.2c0,0,0,0,0.1,0c0.6,0,1.1-0.4,1.1-0.9C-11.6,36.5-11.6,36.5-11.6,36.5"/>
		<path class="st1" d="M-4.4,33.7c0,0.3-0.1,0.5-0.4,0.5c-0.3,0-0.5-0.1-0.5-0.4c0-0.3,0.1-0.5,0.4-0.5c0,0,0.1,0,0.1,0
			C-4.6,33.3-4.5,33.5-4.4,33.7 M-4.5,37.9h-0.7l0-2.9h0.7L-4.5,37.9z"/>
		<path class="st1" d="M2,35.4L2,35.4c0.3-0.3,0.7-0.5,1.1-0.5c1,0,1.2,0.5,1.2,1.2l0,1.7H3.6l0-1.7c0-0.5-0.1-0.8-0.8-0.8
			C2,35.4,2,36,2,36.6l0,1.3H1.3l0-2.9H2L2,35.4z"/>
		
			<rect x="10" y="32.5" transform="matrix(1 -3.001948e-03 3.001948e-03 1 -0.1056 3.104094e-02)" class="st1" width="0.7" height="5.4"/>
		<path class="st1" d="M16.7,36.5c0,0.5,0.5,1,1,1c0,0,0,0,0,0c0.4,0,0.8-0.2,1-0.6l0.6,0.3c-0.4,0.5-1,0.8-1.6,0.8
			c-0.8,0.1-1.6-0.5-1.7-1.4c0,0,0-0.1,0-0.1c0-0.8,0.6-1.5,1.4-1.6c0.1,0,0.2,0,0.2,0c0.8-0.1,1.5,0.5,1.6,1.3c0,0.1,0,0.2,0,0.3
			v0.1L16.7,36.5z M18.7,36.1c-0.1-0.5-0.5-0.8-1-0.7c-0.5,0-0.9,0.3-1,0.7L18.7,36.1z"/>
		<path class="st1" d="M26.1,35.6c-0.1-0.2-0.3-0.3-0.4-0.3c-0.2,0-0.3,0.1-0.4,0.3c0,0.3,0.4,0.4,0.8,0.5c0.4,0.2,0.8,0.4,0.8,0.8
			c-0.1,0.6-0.6,1-1.2,1c-0.5,0-1-0.2-1.2-0.6l0.6-0.2c0.1,0.2,0.4,0.4,0.6,0.4c0.3,0,0.5-0.2,0.5-0.4c0-0.2-0.1-0.2-0.2-0.3
			l-0.7-0.3c-0.4-0.2-0.7-0.3-0.7-0.7c0.1-0.5,0.5-0.9,1-0.8c0.4,0,0.7,0.2,1,0.5L26.1,35.6z"/>
		<path class="st1" d="M33.7,35.6c-0.1-0.2-0.3-0.3-0.4-0.3c-0.2,0-0.4,0.1-0.4,0.3c0,0.3,0.4,0.4,0.8,0.5c0.4,0.2,0.8,0.4,0.8,0.8
			c-0.1,0.6-0.6,1-1.2,1c-0.5,0-1-0.2-1.2-0.6l0.6-0.2c0.1,0.2,0.4,0.4,0.6,0.4c0.3,0,0.5-0.2,0.5-0.4c0-0.2-0.1-0.2-0.2-0.3
			l-0.7-0.3c-0.4-0.2-0.7-0.3-0.7-0.7c0.1-0.5,0.5-0.9,1-0.8c0.4,0,0.7,0.2,1,0.5L33.7,35.6z"/>
		<path class="st1" d="M50.1,37.7h-0.7v-0.5h0c-0.3,0.4-0.7,0.6-1.2,0.6c-0.8,0.1-1.6-0.6-1.7-1.4s0.6-1.6,1.4-1.7
			c0.1,0,0.2,0,0.2,0c0.5,0,0.9,0.2,1.2,0.6h0v-0.5h0.7L50.1,37.7z M49.4,36.3c0-0.6-0.4-1.1-1-1.2c-0.6,0-1.1,0.4-1.2,1
			c0,0.6,0.4,1.1,1,1.2c0,0,0,0,0.1,0c0.6,0,1.1-0.4,1.1-0.9C49.4,36.4,49.4,36.3,49.4,36.3"/>
		<path class="st1" d="M56.4,35.3L56.4,35.3c0.2-0.4,0.6-0.6,1-0.6c0.2,0,0.4,0.1,0.6,0.1l-0.3,0.5c-0.1-0.1-0.3-0.1-0.4-0.1
			c-0.7,0-0.8,0.6-0.8,1l0,1.4h-0.7l0-2.9h0.7L56.4,35.3z"/>
		<path class="st1" d="M64,37.7h-0.7l0-2.4h-0.4v-0.5h0.4l0-1.1h0.7l0,1.1h0.7v0.5H64L64,37.7z"/>
		<path class="st1" d="M70.7,33.5c0,0.3-0.1,0.5-0.4,0.5c-0.3,0-0.5-0.1-0.5-0.4s0.1-0.5,0.4-0.5c0,0,0.1,0,0.1,0
			C70.4,33.1,70.6,33.3,70.7,33.5 M70.5,37.7h-0.7l0-2.9h0.7L70.5,37.7z"/>
		<path class="st1" d="M77.8,35.4c-0.1-0.2-0.3-0.3-0.4-0.3c-0.2,0-0.4,0.1-0.4,0.3c0,0.3,0.4,0.4,0.8,0.5c0.4,0.2,0.8,0.4,0.8,0.8
			c-0.1,0.6-0.6,1-1.2,1c-0.5,0-1-0.2-1.2-0.6l0.6-0.2c0.1,0.2,0.4,0.4,0.6,0.4c0.3,0,0.5-0.2,0.5-0.4c0-0.2-0.1-0.2-0.2-0.3
			L77,36.3c-0.4-0.2-0.7-0.3-0.7-0.7c0.1-0.5,0.5-0.9,1-0.8c0.4,0,0.7,0.2,1,0.5L77.8,35.4z"/>
		<path class="st1" d="M84.7,37.7h-0.7l0-2.4h-0.4v-0.5h0.4l0-1.1h0.7l0,1.1h0.7v0.5h-0.7L84.7,37.7z"/>
		<path class="st1" d="M91.2,35.2L91.2,35.2c0.2-0.4,0.6-0.6,1-0.6c0.2,0,0.4,0.1,0.6,0.1l-0.3,0.5c-0.1-0.1-0.3-0.1-0.4-0.1
			c-0.7,0-0.8,0.6-0.8,1l0,1.4h-0.7l0-2.9h0.7L91.2,35.2z"/>
		<path class="st1" d="M97.6,34.7h0.8l1.2,1.8l1.1-1.8h0.7l-2.8,4.5h-0.8l1.4-2.2L97.6,34.7z"/>
	</g>
	<g transform="translate(-9198 -8142.373)">
		<path class="st1" d="M32.1,29.9c0,2.5-2,4.6-4.6,4.6c-2.2,0-4.1-1.6-4.5-3.8c-0.9,2.3-3.1,3.8-5.6,3.8c-3.4,0-6.2-2.7-6.3-6.1
			c0-3.4,2.7-6.2,6.1-6.3c0,0,0.1,0,0.1,0H23v-8.8c-2.8-1.5-6.2-1.3-8.7,0.7l-0.4-0.4c1.5-1.2,3.4-1.8,5.3-1.8
			c4.6,0,8.3,3.5,8.6,8.1v14c2.1-0.1,3.8-1.9,3.8-4L32.1,29.9z M12.7,17.2c0-1.5,1.2-2.7,2.7-2.7c1.5,0,2.7,1.2,2.7,2.7
			c0,1.5-1.2,2.7-2.7,2.7C14,19.9,12.8,18.7,12.7,17.2C12.7,17.2,12.7,17.2,12.7,17.2 M23,22.6h-5.6c-0.3,0-0.6,0-0.9,0v11.2
			c0.3,0.1,0.6,0.1,0.9,0.1c3.1,0,5.6-2.6,5.6-5.7V22.6z"/>
		<path class="st1" d="M18.6,22.1c0-2.5,2-4.6,4.6-4.6c2.2,0,4.1,1.6,4.5,3.8c0.9-2.3,3.1-3.8,5.6-3.8c3.4,0,6.2,2.8,6.2,6.2
			c0,3.4-2.8,6.2-6.2,6.2h-5.6v8.8c2.8,1.5,6.2,1.3,8.7-0.7l0.4,0.4c-1.5,1.2-3.4,1.8-5.3,1.8c-4.6,0-8.3-3.5-8.6-8.1v-14
			c-2.1,0.1-3.8,1.9-3.8,4L18.6,22.1z M27.7,29.4h5.6c0.3,0,0.6,0,0.9,0V18.2c-0.3-0.1-0.6-0.1-0.9-0.1c-3.1,0-5.6,2.6-5.6,5.7V29.4
			z M38,34.8c0,1.5-1.2,2.7-2.7,2.7c-1.5,0-2.7-1.2-2.7-2.7c0-1.5,1.2-2.7,2.7-2.7C36.7,32.1,37.9,33.3,38,34.8
			C38,34.8,38,34.8,38,34.8"/>
		<path class="st1" d="M25.4,48.4C13,48.4,2.9,38.4,2.9,26c0-12.4,10-22.4,22.4-22.4s22.4,10,22.4,22.4c0,0,0,0,0,0
			C47.8,38.4,37.7,48.4,25.4,48.4 M25.4,3.7C13,3.7,3.1,13.7,3.1,26s10,22.3,22.3,22.3c12.3,0,22.3-10,22.3-22.3S37.7,3.7,25.4,3.7
			L25.4,3.7"/>
		<path class="st1" d="M25.4,48.9C12.7,48.9,2.4,38.7,2.4,26S12.7,3.1,25.4,3.1C38,3.1,48.3,13.3,48.3,26c0,0,0,0,0,0
			C48.3,38.7,38,48.9,25.4,48.9L25.4,48.9 M25.4,4.2C13.3,4.2,3.6,14,3.6,26c0,12,9.8,21.8,21.8,21.8c12,0,21.8-9.8,21.8-21.8
			C47.2,14,37.4,4.2,25.4,4.2C25.4,4.2,25.4,4.2,25.4,4.2"/>
	</g>
	<line class="st2" x1="-9140.1" y1="-8097" x2="-9140.1" y2="-8136"/>
</g>
</svg>
