<?xml version="1.0" encoding="utf-8"?>
<!-- Generator: Adobe Illustrator 25.0.0, SVG Export Plug-In . SVG Version: 6.00 Build 0)  -->
<svg version="1.1" id="Layer_1" xmlns="http://www.w3.org/2000/svg" xmlns:xlink="http://www.w3.org/1999/xlink" x="0px" y="0px"
	 viewBox="0 0 200 52" style="enable-background:new 0 0 200 52;" xml:space="preserve">
<style type="text/css">
	.st0{fill:#ED7C22;}
	.st1{fill:#FFFFFF;}
	.st2{fill:#EC8022;}
	.st3{fill:none;stroke:#FFFFFF;stroke-miterlimit:2.613;}
</style>
<g>
	<path class="st0" d="M170.1,10c8.6,0,15.7,6.8,15.9,15.4h6.1c-0.2-11.9-10-21.4-22-21.4c-7.3,0-13.8,3.5-17.8,8.9
		c-1.6,2.2-2.8,4.7-3.5,7.4c-0.4,1.6-0.7,3.4-0.7,5.1h6.1C154.4,16.8,161.4,10,170.1,10L170.1,10z"/>
	<path class="st1" d="M170.1,11.8c-4.7,0-8.8,2.2-11.3,5.7c-1,1.4-1.8,3-2.3,4.7c-0.3,1-0.4,2.1-0.4,3.2h5.7
		c0.1-4.5,3.8-8.1,8.4-8.1c4.6,0,8.3,3.6,8.4,8.1h5.7C184,17.8,177.7,11.8,170.1,11.8L170.1,11.8z"/>
	<path class="st1" d="M69.5,18.9c-0.1,0.7-0.7,1.2-1.4,1.2H43.2v0.3c0,2.7,2.2,5,5,5h21.9c2.8,0,5-2.2,5-5v-4
		c-0.3-2.4-2.3-4.3-4.8-4.4H50.1c-0.7,0-1.3-0.5-1.4-1.2v-0.2c0.1-0.7,0.7-1.2,1.4-1.2h25V9.1c0-2.7-2.2-5-5-5H48.2
		c-2.8,0-5,2.2-5,5v4c0.3,2.4,2.3,4.2,4.7,4.3h20.2c0.7,0,1.3,0.5,1.4,1.2V18.9L69.5,18.9z"/>
	<path class="st1" d="M32.3,20.2H8v0.3c0,2.7,2.2,5,5,5h21.9c2.8,0,5-2.2,5-5V9.1c0-2.7-2.2-5-5-5h-0.5V18
		C34.4,19.2,33.5,20.2,32.3,20.2L32.3,20.2z"/>
	<path class="st1" d="M83.8,18.1V4.2h-0.4c-2.8,0-5,2.2-5,5v11.4c0,2.7,2.2,5,5,5h21.9c2.8,0,5-2.2,5-5v-0.3H85.8
		C84.8,20.2,83.8,19.2,83.8,18.1L83.8,18.1z"/>
	<path class="st2" d="M169.9,9.9c8.7,0,15.7,6.9,15.9,15.5h6.1c-0.2-12-10-21.7-22.1-21.7c-7.3,0-13.8,3.6-17.8,9
		c-1.6,2.2-2.8,4.7-3.5,7.4c-0.4,1.7-0.7,3.4-0.7,5.2h6.1C154.2,16.8,161.2,9.9,169.9,9.9L169.9,9.9z"/>
	<path class="st1" d="M119.1,18.1V4.2h-0.4c-2.8,0-5,2.2-5,5v11.4c0,2.7,2.2,5,5,5h21.9c2.8,0,5-2.2,5-5v-0.3h-24.4
		C120,20.2,119.1,19.2,119.1,18.1L119.1,18.1z"/>
	<g>
		<path class="st1" d="M72.1,38.2h1.4v10h-1.4V38.2z"/>
		<path class="st1" d="M79.8,38.2h1.6l5,8.1v-8.1h1.3v10h-1.5l-5.1-8.1v8.1h-1.3V38.2z"/>
		<path class="st1" d="M94.2,38.2h6.9v1.2h-5.6v3h4.9v1.2h-4.9v4.5h-1.4L94.2,38.2L94.2,38.2z"/>
		<path class="st1" d="M106.8,38.2h4.5c0.7,0,1.4,0.1,1.9,0.3c0.9,0.4,1.4,1.2,1.4,2.4c0,0.6-0.1,1.1-0.4,1.5
			c-0.2,0.4-0.6,0.7-1,0.9c0.4,0.2,0.7,0.4,0.9,0.6c0.2,0.3,0.3,0.7,0.3,1.3v1.3c0,0.4,0,0.7,0.1,0.9c0.1,0.3,0.2,0.5,0.4,0.6v0.2
			h-1.7c0-0.1-0.1-0.2-0.1-0.3s-0.1-0.4-0.1-0.8l-0.1-1.7c0-0.7-0.3-1.1-0.7-1.3c-0.3-0.1-0.6-0.2-1.2-0.2h-3v4.3h-1.4v-10H106.8z
			 M111.2,42.8c0.6,0,1.1-0.1,1.5-0.4c0.4-0.3,0.5-0.7,0.5-1.4c0-0.7-0.3-1.2-0.8-1.5c-0.3-0.1-0.6-0.2-1.1-0.2h-3.2v3.4L111.2,42.8
			L111.2,42.8z"/>
		<path class="st1" d="M123.8,38.2h1.5l3.6,10h-1.5l-1-3h-3.9l-1.1,3H120L123.8,38.2z M126.1,44.2l-1.5-4.4l-1.6,4.4H126.1z"/>
	</g>
	<path class="st3" d="M159.7,43.2h-20.2 M60.6,43.2H40.4"/>
</g>
</svg>
