<?xml version="1.0" encoding="utf-8"?>
<!-- Generator: Adobe Illustrator 25.0.0, SVG Export Plug-In . SVG Version: 6.00 Build 0)  -->
<svg version="1.1" id="Layer_1" xmlns="http://www.w3.org/2000/svg" xmlns:xlink="http://www.w3.org/1999/xlink" x="0px" y="0px"
	 viewBox="0 0 200 52" style="enable-background:new 0 0 200 52;" xml:space="preserve">
<style type="text/css">
	.st0{fill:#ED7C22;}
	.st1{fill:#FFFFFF;}
	.st2{fill:#FF8300;}
	.st3{fill:#FFFFFF;stroke:#FFFFFF;stroke-width:0.3724;stroke-miterlimit:10;}
	.st4{fill:none;stroke:#FFFFFF;stroke-miterlimit:2.613;}
</style>
<g>
	<path class="st0" d="M170.1,10c8.6,0,15.7,6.8,15.9,15.4h6.1c-0.2-11.9-10-21.4-22-21.4c-7.3,0-13.8,3.5-17.8,8.9
		c-1.6,2.2-2.8,4.7-3.5,7.4c-0.4,1.6-0.7,3.4-0.7,5.1h6.1C154.4,16.8,161.4,10,170.1,10L170.1,10z"/>
	<path class="st1" d="M170.1,11.7c-4.7,0-8.8,2.2-11.3,5.7c-1,1.4-1.8,3-2.3,4.7c-0.3,1-0.4,2.1-0.4,3.2h5.7
		c0.1-4.5,3.8-8.1,8.4-8.1c4.6,0,8.3,3.6,8.4,8.1h5.7C184,17.8,177.7,11.7,170.1,11.7L170.1,11.7z"/>
	<path class="st1" d="M69.5,18.9c-0.1,0.7-0.7,1.2-1.4,1.2H43.2v0.3c0,2.7,2.2,5,5,5h21.9c2.8,0,5-2.2,5-5v-4
		c-0.3-2.4-2.4-4.3-4.8-4.4H50.1c-0.7,0-1.3-0.5-1.4-1.2v-0.2c0.1-0.7,0.7-1.2,1.4-1.2h25V9.1c0-2.7-2.2-5-5-5H48.2
		c-2.8,0-5,2.2-5,5v4c0.3,2.4,2.3,4.2,4.7,4.3h20.2c0.7,0,1.3,0.5,1.4,1.2V18.9L69.5,18.9z"/>
	<path class="st1" d="M32.3,20.1H8v0.3c0,2.7,2.2,5,5,5h21.9c2.8,0,5-2.2,5-5V9.1c0-2.7-2.2-5-5-5h-0.5V18
		C34.4,19.2,33.5,20.1,32.3,20.1L32.3,20.1z"/>
	<path class="st1" d="M83.8,18V4.1h-0.4c-2.8,0-5,2.2-5,5v11.4c0,2.7,2.2,5,5,5h21.9c2.8,0,5-2.2,5-5v-0.3H85.8
		C84.8,20.1,83.8,19.2,83.8,18L83.8,18z"/>
	<path class="st2" d="M169.9,9.8c8.7,0,15.7,6.9,15.9,15.5h6.1c-0.2-12-10-21.7-22.1-21.7c-7.3,0-13.8,3.6-17.8,9
		c-1.6,2.2-2.8,4.7-3.5,7.4c-0.4,1.7-0.7,3.4-0.7,5.2h6.1C154.2,16.7,161.2,9.8,169.9,9.8L169.9,9.8z"/>
	<path class="st1" d="M119.1,18V4.1h-0.4c-2.8,0-5,2.2-5,5v11.4c0,2.7,2.2,5,5,5h21.9c2.8,0,5-2.2,5-5v-0.3h-24.4
		C120,20.1,119.1,19.2,119.1,18L119.1,18z"/>
	<g>
		<path class="st3" d="M51,38.2h1.9l2.9,8.4l2.9-8.4h1.9v10h-1.3v-5.9c0-0.2,0-0.5,0-1s0-1,0-1.5l-2.9,8.4h-1.3l-2.9-8.4V40
			c0,0.2,0,0.6,0,1.1s0,0.9,0,1.1v5.9h-1.3L51,38.2L51,38.2z"/>
		<path class="st3" d="M75.8,39.6c0.7,0.9,1,2,1,3.4c0,1.5-0.4,2.7-1.1,3.7c-0.9,1.2-2.2,1.7-3.8,1.7c-1.5,0-2.7-0.5-3.6-1.5
			c-0.8-1-1.2-2.2-1.2-3.7c0-1.4,0.3-2.5,1-3.5c0.9-1.2,2.1-1.9,3.8-1.9C73.7,37.9,75,38.5,75.8,39.6z M74.6,46
			c0.5-0.9,0.8-1.8,0.8-3s-0.3-2.1-0.9-2.8S73,39.1,72,39.1s-1.9,0.4-2.5,1.1c-0.7,0.7-1,1.8-1,3.1c0,1.1,0.3,2,0.8,2.8
			c0.6,0.8,1.5,1.1,2.7,1.1C73.2,47.2,74.1,46.8,74.6,46z"/>
		<path class="st3" d="M83.3,38.2h4.3c1.2,0,2,0.3,2.5,1c0.3,0.4,0.4,0.9,0.4,1.4c0,0.6-0.2,1.1-0.5,1.6c-0.2,0.2-0.5,0.4-0.8,0.6
			c0.5,0.2,0.9,0.4,1.1,0.7c0.4,0.4,0.7,1,0.7,1.8c0,0.6-0.2,1.2-0.6,1.7c-0.6,0.8-1.6,1.2-2.9,1.2h-4.3v-10H83.3z M87.2,42.4
			c0.6,0,1-0.1,1.3-0.2c0.5-0.3,0.8-0.7,0.8-1.3c0-0.7-0.3-1.1-0.8-1.3c-0.3-0.1-0.8-0.2-1.3-0.2h-2.4v3.1L87.2,42.4L87.2,42.4z
			 M87.7,47c0.8,0,1.4-0.2,1.8-0.7c0.2-0.3,0.3-0.7,0.3-1.1c0-0.7-0.3-1.2-1-1.5c-0.3-0.1-0.8-0.2-1.4-0.2h-2.7V47H87.7z"/>
		<path class="st3" d="M98.1,38.2h1.4v10h-1.4V38.2z"/>
		<path class="st3" d="M106.7,38.2h1.4V47h5v1.2h-6.4V38.2z"/>
		<path class="st3" d="M119.7,38.2h1.4v10h-1.4V38.2z"/>
		<path class="st3" d="M135.6,38.2v1.2h-3.4v8.8h-1.4v-8.8h-3.4v-1.2H135.6z"/>
		<path class="st3" d="M141.1,38.2h1.6l2.9,4.8l2.9-4.8h1.6l-3.8,6v4h-1.4v-4L141.1,38.2z"/>
	</g>
	<path class="st4" d="M179.5,43.2h-20.2 M40.8,43.2H20.6"/>
</g>
</svg>
