<?xml version="1.0" encoding="utf-8"?>
<!-- Generator: Adobe Illustrator 25.0.0, SVG Export Plug-In . SVG Version: 6.00 Build 0)  -->
<svg version="1.1" id="Layer_1" xmlns="http://www.w3.org/2000/svg" xmlns:xlink="http://www.w3.org/1999/xlink" x="0px" y="0px"
	 viewBox="0 0 200 52" style="enable-background:new 0 0 200 52;" xml:space="preserve">
<style type="text/css">
	.st0{fill:none;stroke:#575656;stroke-width:0.8741;stroke-miterlimit:2.613;}
	.st1{fill:#EC8022;}
	.st2{fill:#FFFFFF;}
	.st3{fill:none;stroke:#FFFFFF;stroke-width:0.8707;stroke-miterlimit:2.613;}
</style>
<g>
	<path class="st0" d="M3.1,4.7"/>
	<path class="st0" d="M3.1,4.7"/>
	<path class="st0" d="M3.1,4.7"/>
	<g id="XMLID_4_">
		<g id="XMLID_59_">
			<path id="XMLID_87_" class="st1" d="M174,13.9c8.9,0,16.3,7,16.5,15.9h6.4C196.6,17.1,186,7.3,173.3,7.6
				c-7,0.2-13.5,3.6-17.7,9.3c-1.7,2.3-3,4.9-3.7,7.6c-0.4,1.7-0.7,3.5-0.8,5.3h6.4C157.9,21,165.1,13.9,174,13.9"/>
			<path id="XMLID_84_" class="st2" d="M174,15.7c-4.6,0-9,2.2-11.8,5.9c-1,1.5-1.8,3.1-2.4,4.9c-0.3,1-0.4,2.2-0.4,3.3h5.9
				c0.2-4.8,4.1-8.6,8.9-8.4c4.6,0.2,8.3,3.8,8.4,8.4h5.9C188.4,21.9,181.9,15.7,174,15.7"/>
			<path id="XMLID_81_" class="st2" d="M66.9,23.2c-0.1,0.8-0.8,1.3-1.5,1.3H39.5v0.3c0,2.9,2.4,5.2,5.2,5.2h22.7
				c2.9,0,5.2-2.3,5.2-5.2v-4.2c-0.3-2.5-2.4-4.5-5-4.5H46.7c-0.7,0-1.4-0.5-1.5-1.3v-0.3c0.1-0.7,0.7-1.3,1.5-1.3h25.9v-0.3
				c0-2.9-2.4-5.2-5.2-5.2H44.7c-2.9,0-5.2,2.3-5.2,5.2v4.2c0.3,2.4,2.4,4.4,4.9,4.5h21c0.8,0,1.4,0.5,1.5,1.3L66.9,23.2z"/>
			<path id="XMLID_76_" class="st2" d="M28.2,24.4H3.1v0.3c0,2.9,2.4,5.2,5.2,5.2h22.7c2.9,0,5.2-2.3,5.2-5.2V12.9
				c0-2.9-2.4-5.2-5.2-5.2h-0.5v14.4C30.4,23.4,29.5,24.4,28.2,24.4"/>
			<path id="XMLID_66_" class="st2" d="M81.6,22.3V7.9h-0.4c-2.9,0-5.2,2.3-5.2,5.2v11.8c0,2.9,2.4,5.2,5.2,5.2h22.7
				c2.9,0,5.2-2.3,5.2-5.2l0,0v-0.3H83.8C82.6,24.4,81.6,23.4,81.6,22.3"/>
			<path id="XMLID_60_" class="st2" d="M118.2,22.3V7.9h-0.4c-2.9,0-5.2,2.3-5.2,5.2v11.8c0,2.9,2.4,5.2,5.2,5.2h22.7
				c2.9,0,5.2-2.3,5.2-5.2l0,0v-0.3h-25.3C119.1,24.5,118.2,23.5,118.2,22.3L118.2,22.3"/>
		</g>
		<g id="XMLID_16_">
			<g id="XMLID_24_">
				<path id="XMLID_50_" class="st2" d="M54.7,43.3c-0.5,0.3-1.1,0.5-2,0.5h-1.8c-0.1,0-0.1,0-0.1,0.1v3.1c0,0.1,0,0.1-0.1,0.1h-0.5
					c-0.1,0-0.1,0-0.1-0.1v-7.4c0-0.1,0-0.1,0-0.1h0.1h2.4c0.9,0,1.6,0.2,2,0.5c0.5,0.3,0.8,0.9,0.8,1.7
					C55.5,42.3,55.2,42.8,54.7,43.3z M54.1,40.4c-0.3-0.3-0.9-0.3-1.5-0.3H51c-0.1,0-0.1,0-0.1,0.1V43c0,0.1,0,0.1,0.1,0.1h1.7
					c0.6,0,1.1-0.1,1.5-0.3c0.3-0.3,0.5-0.7,0.5-1.2C54.6,41,54.5,40.6,54.1,40.4z"/>
				<path id="XMLID_45_" class="st2" d="M63.9,39.4L63.9,39.4h0.6h0.1v0.1v6.8v0.1c0,0,0,0,0.1,0h3.7h0.1c0,0,0,0,0,0.1v0.4
					c0,0.1,0,0.1-0.1,0.1H64c-0.1,0-0.1,0-0.1-0.1L63.9,39.4C63.8,39.4,63.8,39.4,63.9,39.4z"/>
				<path id="XMLID_43_" class="st2" d="M80.8,46.5c-0.4,0.4-1.1,0.6-2,0.6c-1,0-1.6-0.3-2-0.7c-0.4-0.4-0.6-1.1-0.6-2.1v-4.9
					c0-0.1,0-0.2,0.1-0.2h0.5c0.1,0,0.1,0,0.1,0v0.1v5.1c0,1.3,0.6,1.9,1.9,1.9s1.9-0.6,1.9-1.9v-5.1c0-0.1,0-0.1,0.1-0.1h0.4
					c0.1,0,0.1,0,0.1,0.1v5.1C81.5,45.4,81.2,46.1,80.8,46.5z"/>
				<path id="XMLID_40_" class="st2" d="M90.2,46.9v-7.4c0-0.1,0-0.1,0-0.1h0.1H91c0.1,0,0.1,0,0.1,0s0,0,0.1,0.1l2.4,6.3
					c0,0.1,0.1,0.1,0.1,0.1s0.1,0,0.1-0.1l2.5-6.3c0-0.1,0.1-0.1,0.2-0.1h0.8c0.1,0,0.1,0,0.1,0.1v7.4c0,0.1-0.1,0.2-0.2,0.2h-0.5
					c-0.1,0-0.1,0-0.1,0V47v-6.1l0,0l0,0L94.2,47c0,0.1-0.1,0.1-0.2,0.1h-0.4c-0.1,0-0.1,0-0.1,0L93.4,47l-2.4-6v-0.1c0,0,0,0,0,0.1
					v6v0.1H91h-0.4C90.3,47,90.2,47,90.2,46.9z"/>
				<path id="XMLID_32_" class="st2" d="M106.2,46.9v-7.4c0-0.1,0-0.1,0-0.1h0.1h2.3c0.9,0,1.6,0.2,2.1,0.5s0.7,0.9,0.7,1.5
					c0,0.9-0.4,1.4-1.3,1.7c0,0,0,0,0,0.1c0,0.1,0,0,0,0.1c0.5,0.1,0.9,0.3,1.1,0.6c0.3,0.3,0.4,0.7,0.4,1.2c0,0.7-0.3,1.2-0.8,1.6
					c-0.5,0.3-1.2,0.5-2.2,0.5h-2.4C106.2,47,106.2,47,106.2,46.9z M108.7,42.9c0.5,0,1-0.1,1.3-0.3c0.3-0.2,0.5-0.6,0.5-1.1
					s-0.2-0.9-0.5-1.1s-0.9-0.3-1.5-0.3h-1.4H107c0,0,0,0,0,0.1v2.6c0,0.1,0,0.1,0.1,0.1h1.6V42.9z M108.6,46.4
					c0.8,0,1.3-0.1,1.7-0.3c0.3-0.3,0.5-0.6,0.5-1.1c0-0.5-0.2-0.9-0.5-1.1s-0.9-0.3-1.5-0.3h-1.7c-0.1,0-0.2,0-0.2,0.1v2.7
					c0,0.1,0,0.1,0.1,0.1L108.6,46.4L108.6,46.4z"/>
				<path id="XMLID_30_" class="st2" d="M120.7,39.4C120.7,39.4,120.8,39.4,120.7,39.4C120.8,39.4,120.8,39.5,120.7,39.4l0.1,7.4
					c0,0.1,0,0.1,0,0.1h-0.1h-0.5c-0.1,0-0.1,0-0.1,0v-0.1v-7.4c0-0.1,0-0.1,0-0.1h0.1L120.7,39.4L120.7,39.4z"/>
				<path id="XMLID_27_" class="st2" d="M135.2,39.4C135.2,39.4,135.3,39.4,135.2,39.4C135.3,39.4,135.3,39.5,135.2,39.4l0.1,7.5
					c0,0.1,0,0.1-0.1,0.1h-0.3h-0.1c-0.1,0-0.1,0-0.2-0.1l-4.2-6.1c0-0.1-0.1-0.1-0.1-0.1s0,0,0,0.1v6c0,0.1,0,0.1-0.1,0.1h-0.4
					c-0.1,0-0.1,0-0.1,0v-0.1v-7.4c0-0.1,0-0.1,0-0.1h0.1h0.4c0.1,0,0.1,0,0.1,0s0.1,0,0.1,0.1l4.1,6l0.1,0.1l0,0c0,0,0,0,0-0.1
					v-5.9c0-0.1,0-0.1,0.1-0.1C134.7,39.4,135.2,39.4,135.2,39.4z"/>
				<path id="XMLID_25_" class="st2" d="M145.3,46.7c-0.4-0.3-0.9-0.8-1-1.3c-0.3-0.6-0.3-1.3-0.3-2.1s0.1-1.6,0.3-2.1
					c0.3-0.6,0.6-1,1.1-1.4c0.4-0.3,1-0.4,1.7-0.4c0.4,0,0.9,0.1,1.2,0.3c0.4,0.2,0.7,0.4,1,0.8s0.4,0.6,0.4,1v0.1
					c0,0,0,0.1-0.1,0.1l-0.6,0.1l0,0c0,0-0.1,0-0.1-0.1c-0.1-0.4-0.3-0.8-0.7-1.1c-0.3-0.3-0.8-0.4-1.3-0.4c-0.8,0-1.3,0.3-1.7,0.9
					c-0.4,0.5-0.6,1.4-0.6,2.4c0,1.1,0.2,1.9,0.6,2.5c0.4,0.5,1,0.9,1.7,0.9c0.4,0,0.9-0.1,1.1-0.3c0.3-0.2,0.5-0.4,0.7-0.8
					c0.2-0.3,0.3-0.6,0.3-1v-0.7l0,0c0-0.1,0-0.1-0.1-0.1h-1.6c-0.1,0-0.1,0-0.1-0.1v-0.3c0-0.1,0-0.1,0.1-0.1h2.5
					c0.1,0,0.1,0,0.1,0.1V47c0,0.1,0,0.1-0.1,0.1h-0.2c-0.1,0-0.1,0-0.1,0l-0.1-0.1l-0.1-1v-0.1c0,0,0,0-0.1,0.1
					c-0.2,0.3-0.5,0.7-0.9,0.9c-0.3,0.3-0.9,0.3-1.4,0.3C146.3,47.1,145.8,47,145.3,46.7z"/>
			</g>
		</g>
	</g>
	<line class="st3" x1="43.3" y1="43" x2="26.7" y2="43"/>
	<line class="st3" x1="173.3" y1="43" x2="156.6" y2="43"/>
</g>
</svg>
