<?xml version="1.0" encoding="utf-8"?>
<!-- Generator: Adobe Illustrator 25.0.0, SVG Export Plug-In . SVG Version: 6.00 Build 0)  -->
<svg version="1.1" id="Layer_1" xmlns="http://www.w3.org/2000/svg" xmlns:xlink="http://www.w3.org/1999/xlink" x="0px" y="0px"
	 viewBox="0 0 200 52" style="enable-background:new 0 0 200 52;" xml:space="preserve">
<style type="text/css">
	.st0{fill:#ED7C22;}
	.st1{fill:#FFFFFF;}
	.st2{fill:#FF8300;}
	.st3{fill:#FFFFFF;stroke:#FFFFFF;stroke-width:0.3917;stroke-miterlimit:10;}
</style>
<g>
	<path class="st0" d="M173.2,9.2c9.1,0,16.5,7.2,16.7,16.2h6.5c-0.2-12.5-10.5-22.6-23.2-22.6c-7.7,0-14.5,3.7-18.7,9.4
		c-1.7,2.3-3,4.9-3.7,7.7c-0.5,1.7-0.7,3.5-0.7,5.4h6.5C156.7,16.4,164.1,9.2,173.2,9.2L173.2,9.2z"/>
	<path class="st1" d="M173.2,11c-4.9,0-9.2,2.4-11.9,6c-1.1,1.5-1.9,3.1-2.4,4.9c-0.3,1.1-0.4,2.2-0.5,3.4h6c0.1-4.7,4-8.5,8.8-8.5
		c4.8,0,8.7,3.8,8.8,8.5h6C187.8,17.4,181.3,11,173.2,11L173.2,11z"/>
	<path class="st1" d="M67.4,18.6c-0.1,0.7-0.7,1.3-1.5,1.3H39.7v0.3c0,2.9,2.4,5.2,5.3,5.2h23c2.9,0,5.3-2.3,5.3-5.2V16
		c-0.3-2.5-2.4-4.5-5-4.6H47c-0.8,0-1.4-0.6-1.5-1.3V9.8c0.1-0.7,0.7-1.3,1.5-1.3h26.3V8.2C73.3,5.4,70.9,3,68,3H45
		c-2.9,0-5.3,2.3-5.3,5.2v4.2c0.3,2.5,2.4,4.4,4.9,4.6h21.3c0.8,0,1.4,0.6,1.5,1.3V18.6L67.4,18.6z"/>
	<path class="st1" d="M28.3,19.9H2.7v0.3c0,2.9,2.4,5.2,5.3,5.2h23c2.9,0,5.3-2.3,5.3-5.2v-12C36.3,5.4,33.9,3,31,3h-0.5v14.7
		C30.5,18.9,29.5,19.9,28.3,19.9L28.3,19.9z"/>
	<path class="st1" d="M82.5,17.7V3H82c-2.9,0-5.3,2.3-5.3,5.2v12c0,2.9,2.4,5.2,5.3,5.2h23c2.9,0,5.3-2.3,5.3-5.2v-0.3H84.7
		C83.4,19.9,82.5,18.9,82.5,17.7L82.5,17.7z"/>
	<path class="st2" d="M173,9c9.1,0,16.5,7.3,16.7,16.3h6.5C196,12.7,185.7,2.6,173,2.6c-7.7,0-14.5,3.7-18.7,9.5
		c-1.7,2.3-3,5-3.7,7.8c-0.5,1.7-0.7,3.6-0.7,5.4h6.5C156.5,16.3,163.9,9,173,9L173,9z"/>
	<path class="st1" d="M119.6,17.7V3h-0.5c-2.9,0-5.3,2.3-5.3,5.2v12c0,2.9,2.4,5.2,5.3,5.2h23c2.9,0,5.3-2.3,5.3-5.2v-0.3h-25.6
		C120.6,19.9,119.6,18.9,119.6,17.7L119.6,17.7z"/>
	<g>
		<path class="st3" d="M4.9,39.2l2.9,8.5l2.8-8.5h1.5l-3.6,10H7.1l-3.6-10H4.9z"/>
		<path class="st3" d="M19.4,39.2h1.5l3.6,10H23l-1-3h-3.9l-1.1,3h-1.4L19.4,39.2z M21.6,45.1l-1.5-4.4l-1.6,4.4H21.6z"/>
		<path class="st3" d="M28.8,39.2h1.3V48h5v1.2h-6.3V39.2z"/>
		<path class="st3" d="M41,39.2v6.2c0,0.7,0.1,1.3,0.4,1.8c0.4,0.7,1.1,1.1,2,1.1c1.2,0,1.9-0.4,2.3-1.2c0.2-0.4,0.3-1,0.3-1.7v-6.2
			h1.4v5.6c0,1.2-0.2,2.2-0.5,2.8c-0.6,1.2-1.8,1.8-3.4,1.8s-2.8-0.6-3.4-1.8c-0.3-0.7-0.5-1.6-0.5-2.8v-5.6H41z"/>
		<path class="st3" d="M52.7,39.2H60v1.2h-5.9v3h5.5v1.2h-5.5V48h6v1.2h-7.3V39.2z"/>
		<path class="st3" d="M72,39.2h7.2v1.2h-5.9v3h5.5v1.2h-5.5V48h6v1.2H72V39.2z"/>
		<path class="st3" d="M84.1,39.2h1.6l5,8v-8H92v10h-1.5l-5-8v8h-1.3V39.2z"/>
		<path class="st3" d="M103.8,39.5c1,0.5,1.6,1.4,1.8,2.7h-1.3c-0.2-0.7-0.5-1.3-1-1.6s-1.1-0.5-1.9-0.5c-0.9,0-1.7,0.3-2.3,1
			c-0.6,0.7-0.9,1.7-0.9,3.1c0,1.2,0.3,2.1,0.8,2.9c0.5,0.7,1.3,1.1,2.5,1.1c0.9,0,1.6-0.3,2.2-0.8c0.6-0.5,0.9-1.4,0.9-2.5h-3.1
			v-1.1h4.4v5.3h-0.9l-0.3-1.3c-0.4,0.5-0.8,0.8-1.2,1c-0.6,0.3-1.3,0.5-2.2,0.5c-1.2,0-2.2-0.4-3-1.1c-0.9-1-1.4-2.3-1.4-3.9
			c0-1.7,0.4-3,1.3-4c0.8-0.9,1.9-1.4,3.3-1.4C102.4,38.9,103.2,39.1,103.8,39.5z"/>
		<path class="st3" d="M111.4,39.2h1.4v10h-1.4V39.2z"/>
		<path class="st3" d="M118,39.2h1.6l5,8v-8h1.3v10h-1.5l-5-8v8H118V39.2z"/>
		<path class="st3" d="M131.2,39.2h7.2v1.2h-5.9v3h5.5v1.2h-5.5V48h6v1.2h-7.3V39.2z"/>
		<path class="st3" d="M143.5,39.2h7.2v1.2h-5.9v3h5.5v1.2h-5.5V48h6v1.2h-7.3V39.2z"/>
		<path class="st3" d="M155.8,39.2h4.5c0.7,0,1.4,0.1,1.8,0.3c0.9,0.4,1.4,1.2,1.4,2.4c0,0.6-0.1,1.1-0.4,1.5s-0.6,0.7-1,0.9
			c0.4,0.2,0.7,0.4,0.9,0.6c0.2,0.3,0.3,0.7,0.3,1.3l0,1.3c0,0.4,0,0.7,0.1,0.8c0.1,0.3,0.2,0.5,0.4,0.6v0.2h-1.7
			c0-0.1-0.1-0.2-0.1-0.3c0-0.1,0-0.4-0.1-0.8l-0.1-1.7c0-0.7-0.3-1.1-0.7-1.3c-0.3-0.1-0.6-0.2-1.2-0.2h-3v4.3h-1.3V39.2z
			 M160.2,43.8c0.6,0,1.1-0.1,1.5-0.4c0.4-0.3,0.5-0.7,0.5-1.4c0-0.7-0.3-1.2-0.8-1.5c-0.3-0.1-0.6-0.2-1.1-0.2h-3.2v3.4H160.2z"/>
		<path class="st3" d="M169,39.2h1.4v10H169V39.2z"/>
		<path class="st3" d="M175.6,39.2h1.6l5,8v-8h1.3v10H182l-5-8v8h-1.3V39.2z"/>
		<path class="st3" d="M195.3,39.5c1,0.5,1.6,1.4,1.8,2.7h-1.3c-0.2-0.7-0.5-1.3-1-1.6c-0.5-0.3-1.1-0.5-1.9-0.5
			c-0.9,0-1.7,0.3-2.3,1c-0.6,0.7-0.9,1.7-0.9,3.1c0,1.2,0.3,2.1,0.8,2.9c0.5,0.7,1.3,1.1,2.5,1.1c0.9,0,1.6-0.3,2.2-0.8
			c0.6-0.5,0.9-1.4,0.9-2.5h-3.1v-1.1h4.4v5.3h-0.9l-0.3-1.3c-0.4,0.5-0.8,0.8-1.2,1c-0.6,0.3-1.3,0.5-2.2,0.5c-1.2,0-2.2-0.4-3-1.1
			c-0.9-1-1.4-2.3-1.4-3.9c0-1.7,0.4-3,1.3-4c0.8-0.9,1.9-1.4,3.3-1.4C193.9,38.9,194.7,39.1,195.3,39.5z"/>
	</g>
</g>
</svg>
