<svg xmlns="http://www.w3.org/2000/svg" width="130" height="130" viewBox="0 0 130 130"><defs><style>.a{fill:#363c4c;}.b,.c{fill:none;stroke-linecap:round;stroke-linejoin:round;stroke-width:2px;}.b{stroke:#ff9100;}.c{stroke:#fff;}</style></defs><g transform="translate(-245 -2957)"><circle class="a" cx="65" cy="65" r="65" transform="translate(245 2957)"/><g transform="translate(-7.574 -9.139)"><path class="b" d="M302.4,341.016a27.364,27.364,0,0,0-16.361,7.409,25.389,25.389,0,0,0-7.6,15.671,30.213,30.213,0,0,0-7.773-14.191,32.3,32.3,0,0,0-16.191-8.889,29.756,29.756,0,0,0,16.191-8.14,27.745,27.745,0,0,0,7.773-14.939,30.573,30.573,0,0,0,8.37,14.693A32.546,32.546,0,0,0,302.4,341.016Z" transform="translate(38.565 2691.374)"/><path class="c" d="M304.088,317.374a12.64,12.64,0,0,0-11.437,11.437,15.054,15.054,0,0,0-11.437-11.437,13.819,13.819,0,0,0,11.437-11.437,15.233,15.233,0,0,0,11.437,11.437Z" transform="translate(42.486 2689.202)"/><path class="c" d="M302.372,363.334a9.234,9.234,0,0,0-8.356,8.355,11,11,0,0,0-8.356-8.355,10.1,10.1,0,0,0,8.356-8.356,11.129,11.129,0,0,0,8.356,8.356Z" transform="translate(42.844 2695.343)"/><path class="c" d="M267.055,322.162a9.234,9.234,0,0,0-8.356,8.356,10.995,10.995,0,0,0-8.356-8.356,10.094,10.094,0,0,0,8.356-8.356,11.129,11.129,0,0,0,8.356,8.356Z" transform="translate(38.232 2689.836)"/><path class="c" d="M264.328,358.432a6.432,6.432,0,0,0-5.819,5.819,7.658,7.658,0,0,0-5.82-5.819,7.033,7.033,0,0,0,5.82-5.82,7.751,7.751,0,0,0,5.819,5.82Z" transform="translate(38.421 2695.152)"/></g></g></svg>