<svg xmlns="http://www.w3.org/2000/svg" width="130" height="130" viewBox="0 0 130 130"><defs><style>.a{fill:#363c4c;}.b,.c{fill:none;stroke-linecap:round;stroke-linejoin:round;}.b{stroke:#fff;stroke-width:2px;}.c{stroke:#ff9100;stroke-width:1.6px;}</style></defs><g transform="translate(-1015 -2957)"><circle class="a" cx="65" cy="65" r="65" transform="translate(1015 2957)"/><g transform="translate(514.053 2593.227)"><g transform="translate(538.947 394.773)"><path class="b" d="M553.664,382.934c3.4,1.62,18.018,8.506,24.124,10.333a3.018,3.018,0,0,1,2.159,2.892v31.785a1.627,1.627,0,0,1-.1.559c-.647,1.84-5.042,11.9-26.185,22.05a1.681,1.681,0,0,1-1.443,0c-21.14-10.152-25.531-20.21-26.182-22.05a1.7,1.7,0,0,1-.1-.559V396.159a3.025,3.025,0,0,1,2.163-2.892c6.11-1.827,20.729-8.716,24.124-10.333A1.675,1.675,0,0,1,553.664,382.934Z" transform="translate(-525.947 -382.773)"/><g transform="translate(12.901 16.338)"><path class="c" d="M543.842,423.4a13.956,13.956,0,0,1-9.97-4.215,14.316,14.316,0,0,1-3.018-4.489,13.716,13.716,0,0,1-1.11-5.4c0-4.562,2.307-8.1,4.291-8.1a.443.443,0,0,1,.443.444h0v.051c-.191,1.665-.21,5.188,1.082,6.639a1.857,1.857,0,0,0,1.461.651,1.264,1.264,0,0,0,1-.316,1.8,1.8,0,0,0,.246-1.2,18.78,18.78,0,0,0-.306-2.227,24.467,24.467,0,0,1-.479-4.31c0-.156-.006-.373-.016-.619-.057-2.09-.2-6.981,2.782-10.05,1.729-1.784,4.243-2.686,7.475-2.686a.447.447,0,0,1,.443.447.455.455,0,0,1-.057.223c-.15.265-3.538,6.474,3.605,10.819,2.5,1.525,6.228,5.507,6.228,10.238a14.136,14.136,0,0,1-14.1,14.1Zm-11.518-20.071a7.685,7.685,0,0,0-.539.912,11.652,11.652,0,0,0-1.152,5.057,13.385,13.385,0,0,0,13.212,13.209A13.227,13.227,0,0,0,557.054,409.3c0-4.333-3.557-8.113-5.8-9.476-4.131-2.517-4.98-5.653-4.964-7.842a9.4,9.4,0,0,1,.4-2.594l.284-.944-.976.121a8.283,8.283,0,0,0-5.111,2.313c-2.722,2.8-2.594,7.262-2.53,9.406v.048c.01.23.013.427.013.6a24.131,24.131,0,0,0,.466,4.148c.319,1.854.574,3.318-.131,4.16a2.1,2.1,0,0,1-1.685.638,2.786,2.786,0,0,1-2.128-.951c-1.123-1.263-1.378-3.541-1.4-5.229l-.019-2Z" transform="translate(-529.743 -387.577)"/></g></g></g></g></svg>