<svg xmlns="http://www.w3.org/2000/svg" width="130" height="130" viewBox="0 0 130 130"><defs><style>.a{fill:#363c4c;}.b,.c,.d{fill:none;stroke-linecap:round;stroke-linejoin:round;}.b,.d{stroke:#ff9100;}.c{stroke:#fff;}.c,.d{stroke-width:2px;}</style></defs><g transform="translate(-245 -3222)"><circle class="a" cx="65" cy="65" r="65" transform="translate(245 3222)"/><g transform="translate(328.429 3267.907)"><path class="b" d="M347.909,389.87a1.889,1.889,0,0,1-.994-.523l-.009-.013a.1.1,0,0,1,.02-.136,8.31,8.31,0,0,1,4.649-1.611" transform="translate(-342.57 -386.374)"/><path class="b" d="M349.235,393.585l-.132.092a4.575,4.575,0,0,1-4.146.016l0,0,0-.007c.858-.67,2.042-3.17,2.292-3.715a1.2,1.2,0,0,1,.139-.228,4.774,4.774,0,0,1,2.5-1.184" transform="translate(-344.954 -385.178)"/><path class="b" d="M350.6,389.746c-1.8,2.433-3.324,2.752-3.642,2.788a.072.072,0,0,1-.08-.056,2.829,2.829,0,0,1,.431-1.4" transform="translate(-342.6 -383.709)"/><path class="b" d="M350.437,388.116a5.651,5.651,0,0,1-1.58,4.071.042.042,0,0,1-.058,0,4.148,4.148,0,0,1-.337-1.13" transform="translate(-340.625 -385.721)"/><path class="b" d="M346.5,393.478c6.293-3.735,7.357-6.434,7.357-6.434" transform="translate(-343.042 -387.044)"/></g><path class="c" d="M328.806,410.061l8.543-22.354h19.409v38.651H342.382a9.361,9.361,0,0,0-18.141-.474V412.043a1.961,1.961,0,0,1,1.941-1.959Z" transform="translate(-57.241 2880.799)"/><ellipse class="c" cx="5.442" cy="5.442" rx="5.442" ry="5.442" transform="translate(270.448 3305.094)"/><ellipse class="c" cx="5.442" cy="5.442" rx="5.442" ry="5.442" transform="translate(319.686 3305.094)"/><path class="c" d="M328.555,404.1h12.219a2.4,2.4,0,0,0,2.4-2.4v-11.21a1.436,1.436,0,0,0-1.435-1.435H332.92l-5.125,13.954A.81.81,0,0,0,328.555,404.1Z" transform="translate(-49.191 2884.743)"/><ellipse class="d" cx="12.051" cy="12.051" rx="12.051" ry="12.051" transform="translate(321.785 3260.354)"/><path class="c" d="M381.379,426.359h-12.5a9.975,9.975,0,0,0-19.372,0H337.587V387.708h13.566A17.32,17.32,0,0,0,381.379,403" transform="translate(-34.067 2880.799)"/><line class="c" x2="13.271" transform="translate(337.38 3302.307)"/><line class="c" x2="14.225" transform="translate(338.775 3296.832)"/><line class="c" x2="10.534" transform="translate(339.246 3292.768)"/></g></svg>