<svg xmlns="http://www.w3.org/2000/svg" width="130" height="130" viewBox="0 0 130 130"><defs><style>.a{fill:#363c4c;}.b{fill:none;stroke-linecap:round;}.b,.d{stroke:#ff9100;}.b,.c{stroke-miterlimit:10;}.b,.c,.e{stroke-width:2px;}.c{fill:rgba(0,0,0,0);}.c,.e{stroke:#fff;}.d{fill:#ff9100;stroke-width:0.8px;}.e{fill:#fff;}</style></defs><g transform="translate(-1015 -3207)"><circle class="a" cx="65" cy="65" r="65" transform="translate(1015 3207)"/><g transform="translate(8 7.382)"><path class="b" d="M432.9,402.471l-7.758-6.74a1.017,1.017,0,0,0-1.416.08l-3.723,4.08" transform="translate(619.797 2874.75)"/><path class="c" d="M431.993,410.531l12.344,4.812s3.189-10,3.556-11.523a7.286,7.286,0,0,1,3.5-4.479s6-3.522,7.811-7.287a21.807,21.807,0,0,0,1.081-2.1s.576-.967,3.189-.5c0,0,6.05.959,8.071,6.33,0,0,2.65,6.808,3,9.75s4.809,26.788,4.809,26.788H455.15a.716.716,0,0,1-.634-1.044l9.949-19.227s-.9-2.427-3.029-1.154a1.775,1.775,0,0,0-.384.437l-10.114,20.1a1,1,0,0,1-1.341.444l-21.865-10.937s-4.316-2.145-1.414-7.923A4.8,4.8,0,0,1,431.993,410.531Z" transform="translate(626.643 2865.687)"/><path class="d" d="M415.993,404.354l-.243,1.253,1.219-.138,6.276-6.223s.279-1.569-1.2-.838Z" transform="translate(613.908 2878.566)"/><path class="d" d="M420.225,406.547l.612.884.627-.8-.085-7.389s-.78-1.091-1.2.219Z" transform="translate(620.234 2879.39)"/><path class="d" d="M415.3,396.463l-1.059.716.962.763,8.839.022s1.3-.916-.262-1.443Z" transform="translate(611.756 2876.167)"/><path class="c" d="M431.881,398.542l9.055-3.306a1.168,1.168,0,0,0,.7-1.491l-.549-1.54a.923.923,0,0,0-1.185-.559l-9.077,3.289-1.875-5.193s-1.732-5.239,10.289-9.951c0,0,9.951-3.126,12.307,2.74,0,0,5.431,14.182-1.154,23.847,0,0-3.51,5.1-11.634,7.5,0,0-.481.192-1.589-1.2Z" transform="translate(632.054 2851.658)"/><ellipse class="e" cx="1.286" cy="1.286" rx="1.286" ry="1.286" transform="translate(1080.155 3240.231)"/></g></g></svg>