<svg xmlns="http://www.w3.org/2000/svg" width="130" height="130" viewBox="0 0 130 130"><defs><style>.a{fill:#363c4c;}.b,.c{fill:none;stroke-linecap:round;stroke-linejoin:round;stroke-width:2px;}.b{stroke:#fff;}.c{stroke:#ff9100;}</style></defs><g transform="translate(-245 -3446)"><circle class="a" cx="65" cy="65" r="65" transform="translate(245 3446)"/><g transform="translate(-24.19 -19.438)"><path class="b" d="M631.093,394.156h11.424a4.218,4.218,0,0,1,1.409.242l19.3,6.8s2.5,1.591,1.251,5.109a3.387,3.387,0,0,1-3.409,2.5l-19.189-4.882" transform="translate(-318.074 3142.791)"/><path class="b" d="M631.093,412.756l23.992,6.368a4.613,4.613,0,0,0,3.224-.318c6.36-3.131,30.12-14.91,30.809-16.383a4.168,4.168,0,0,0,1.363-4.2,3.445,3.445,0,0,0-4.315-3.067l-21.787,6.124" transform="translate(-318.074 3144.065)"/><line class="c" x2="14.352" transform="translate(335.753 3506.086)"/><line class="c" x2="14.352" transform="translate(335.753 3511.118)"/><path class="c" d="M648.894,381.255s8.441,11.317-8.592,9.791l10.255,11.231" transform="translate(-305.255 3124.833)"/><ellipse class="c" cx="18.055" cy="18.056" rx="18.055" ry="18.056" transform="translate(323.579 3497.438)"/><rect class="b" width="17.828" height="25.777" rx="1" transform="translate(295.19 3533.995)"/></g></g></svg>