<svg xmlns="http://www.w3.org/2000/svg" width="130" height="130" viewBox="0 0 130 130"><defs><style>.a{fill:#363c4c;}.b,.c{fill:none;stroke-linecap:round;stroke-linejoin:round;stroke-width:2px;}.b{stroke:#fff;}.c{stroke:#ff9100;}</style></defs><g transform="translate(-1015 -3458)"><circle class="a" cx="65" cy="65" r="65" transform="translate(1015 3458)"/><g transform="translate(362.016 3118.373)"><g transform="translate(686.984 373.627)"><path class="b" d="M738.818,394.426,728.05,375.775a4.3,4.3,0,0,0-7.44,0l-10.769,18.651" transform="translate(-692.831 -373.627)"/><path class="b" d="M735.31,438.87h22.8a4.3,4.3,0,0,0,3.72-6.443l-12.308-21.321" transform="translate(-699.41 -383.03)"/><path class="b" d="M699.869,411.106l-12.31,21.321a4.3,4.3,0,0,0,3.72,6.443h22.8" transform="translate(-686.984 -383.03)"/></g><path class="c" d="M739.962,398.98l7.785,1.993,2.775-7.872" transform="translate(-14.023 -5.17)"/><path class="c" d="M739.883,441.3l-5.3,6.039,5.762,6.039" transform="translate(-12.664 -17.877)"/><path class="c" d="M704.548,418.67l-2.714-7.564-8.075,2.114" transform="translate(-1.901 -9.952)"/></g></g></svg>