<svg xmlns="http://www.w3.org/2000/svg" width="158.927" height="35.489" viewBox="0 0 158.927 35.489"><defs><style>.a{fill:#f48220;}.b{fill:#fff;}.c{fill:#6b615f;}</style></defs><g transform="translate(0)"><g transform="translate(111.41 0)"><path class="a" d="M796.487,86.36a17.11,17.11,0,0,1,17.1,16.656h6.6a23.7,23.7,0,0,0-47.4,0h6.6a17.109,17.109,0,0,1,17.1-16.656Z" transform="translate(-772.786 -79.762)"/></g><g transform="translate(120.006 8.503)"><path class="b" d="M836.41,127.755a15.069,15.069,0,0,0-15.1,14.751h6.11a9,9,0,0,1,17.99,0h6.111a15.113,15.113,0,0,0-15.106-14.751Z" transform="translate(-821.305 -127.755)"/></g><g transform="translate(37.801 0.244)"><path class="b" d="M385.682,97.181a1.566,1.566,0,0,1-1.537,1.348H357.324v.333a5.4,5.4,0,0,0,5.391,5.391h23.54a5.4,5.4,0,0,0,5.391-5.391V94.494a5.412,5.412,0,0,0-5.14-4.784H364.8a1.566,1.566,0,0,1-1.537-1.348v-.217A1.566,1.566,0,0,1,364.8,86.8h26.845v-.267a5.4,5.4,0,0,0-5.391-5.391h-23.54a5.4,5.4,0,0,0-5.391,5.391V90.9a5.367,5.367,0,0,0,5.056,4.715h21.765a1.566,1.566,0,0,1,1.537,1.348v.217Z" transform="translate(-357.324 -81.14)"/></g><g transform="translate(72.122 13.586)"><path class="b" d="M551.039,156.442v0Z" transform="translate(-551.039 -156.442)"/></g><g transform="translate(37.8 9.998)"><path class="c" d="M357.318,136.211v0Z" transform="translate(-357.317 -136.19)"/></g><g transform="translate(0.003 0.244)"><path class="b" d="M170.141,98.524H143.983v.339a5.4,5.4,0,0,0,5.39,5.391h23.54a5.4,5.4,0,0,0,5.391-5.391V86.531a5.4,5.4,0,0,0-5.391-5.391H172.4V96.263a2.263,2.263,0,0,1-2.261,2.261Z" transform="translate(-143.983 -81.14)"/></g><g transform="translate(75.643 0.244)"><path class="b" d="M576.78,96.263V81.14H576.3a5.4,5.4,0,0,0-5.39,5.391V98.862a5.4,5.4,0,0,0,5.39,5.391h23.54a5.4,5.4,0,0,0,5.391-5.391v-.339H579.04a2.263,2.263,0,0,1-2.261-2.261Z" transform="translate(-570.911 -81.14)"/></g><g transform="translate(0 27.009)"><path class="b" d="M145.057,240.5h4.083v.965h-5.171v-8.054h1.088Z" transform="translate(-143.969 -233.195)"/><path class="b" d="M252.554,241.462h-1.088v-8.054h1.088Z" transform="translate(-232.42 -233.195)"/><path class="b" d="M341.186,241.462H340.1v-8.054h5.575v.965h-4.487v2.468h3.948v.965h-3.948Z" transform="translate(-305.349 -233.195)"/><path class="b" d="M456.072,241.462h-5.945v-8.054h5.866v.965h-4.779v2.468h4.409v.965h-4.409V240.5h4.857Z" transform="translate(-395.884 -233.195)"/><path class="b" d="M566.52,234.774a1.686,1.686,0,0,0-.208-.785,1.532,1.532,0,0,0-.471-.5,1.878,1.878,0,0,0-.633-.269,3.118,3.118,0,0,0-.684-.078,3.683,3.683,0,0,0-.578.05,1.872,1.872,0,0,0-.6.2,1.346,1.346,0,0,0-.471.427,1.266,1.266,0,0,0-.19.735.987.987,0,0,0,.084.432.907.907,0,0,0,.219.292,1.039,1.039,0,0,0,.3.185,2.63,2.63,0,0,0,.348.112l2.3.527a3.229,3.229,0,0,1,.729.258,1.964,1.964,0,0,1,.578.432,1.988,1.988,0,0,1,.381.623,2.314,2.314,0,0,1,.14.841,2.19,2.19,0,0,1-.3,1.189,2.235,2.235,0,0,1-.763.746,3.259,3.259,0,0,1-1.021.387,5.665,5.665,0,0,1-2.03.039,3.436,3.436,0,0,1-.685-.191,2.272,2.272,0,0,1-.471-.253,3.643,3.643,0,0,1-.32-.258,2.221,2.221,0,0,1-.667-.97,3.669,3.669,0,0,1-.151-1.071h1.021a1.834,1.834,0,0,0,.2.908,1.684,1.684,0,0,0,.522.578,2.054,2.054,0,0,0,.712.308,3.505,3.505,0,0,0,.785.09,4.97,4.97,0,0,0,.661-.05,2.462,2.462,0,0,0,.69-.2,1.5,1.5,0,0,0,.539-.409,1.063,1.063,0,0,0,.219-.7,1.493,1.493,0,0,0-.084-.533.887.887,0,0,0-.281-.376,1.818,1.818,0,0,0-.527-.274q-.331-.118-.824-.241l-1.649-.381a3.953,3.953,0,0,1-.493-.151,2,2,0,0,1-.561-.32,1.908,1.908,0,0,1-.466-.555,1.728,1.728,0,0,1-.2-.87,2.761,2.761,0,0,1,.157-.92,2.165,2.165,0,0,1,.494-.8,2.473,2.473,0,0,1,.864-.561,3.353,3.353,0,0,1,1.256-.213,4.177,4.177,0,0,1,1.671.275,2.455,2.455,0,0,1,.937.673,2.024,2.024,0,0,1,.415.842,5.516,5.516,0,0,1,.117.779Z" transform="translate(-487.41 -232.206)"/><path class="b" d="M672.717,233.408h6.539v.965h-2.725v7.089h-1.088v-7.089h-2.726Z" transform="translate(-579.037 -233.195)"/><path class="b" d="M786.874,241.462h-1.088V238.22l-3.04-4.812h1.267l2.311,3.87,2.31-3.87h1.279l-3.04,4.812Z" transform="translate(-669.572 -233.195)"/><path class="b" d="M901.336,240.5h4.083v.965h-5.171v-8.054h1.088Z" transform="translate(-766.255 -233.195)"/><path class="b" d="M1013.373,241.462h-5.945v-8.054h5.866v.965h-4.778v2.468h4.408v.965h-4.408V240.5h4.857Z" transform="translate(-854.446 -233.195)"/></g></g></svg>