<svg xmlns="http://www.w3.org/2000/svg" width="59" height="59" viewBox="0 0 59 59"><defs><style>.a{fill:#ff9100;}.b{fill:#fff;}</style></defs><g transform="translate(-1465.263 -4765)"><circle class="a" cx="29.5" cy="29.5" r="29.5" transform="translate(1465.263 4765)"/><path class="b" d="M31.739,4.5a14.982,14.982,0,0,1-4.316,2.1,6.158,6.158,0,0,0-10.8,4.124V12.1A14.652,14.652,0,0,1,4.249,5.873s-5.5,12.371,6.873,17.869A16,16,0,0,1,1.5,26.491c12.371,6.873,27.49,0,27.49-15.807a6.186,6.186,0,0,0-.11-1.141A10.611,10.611,0,0,0,31.739,4.5Z" transform="translate(1478.85 4779.516)"/></g></svg>